<?xml version="1.0" standalone="no"?>
<!DOCTYPE svg PUBLIC "-//W3C//DTD SVG 1.1//EN" "http://www.w3.org/Graphics/SVG/1.1/DTD/svg11.dtd" >
<svg xmlns="http://www.w3.org/2000/svg" xmlns:xlink="http://www.w3.org/1999/xlink" version="1.1">
<metadata>
Created by FontForge 20170731 at Thu Feb 11 17:40:16 2016
 By Aleksey,,,
Digitised data (c) The Monotype Corpration. All rights reserved.
</metadata>
<defs>
<font id="ArialMT-MediumItalic" horiz-adv-x="583" >
  <font-face 
    font-family="Arial MT Medium"
    font-weight="400"
    font-style="italic"
    font-stretch="normal"
    units-per-em="1000"
    panose-1="2 11 7 3 3 4 3 9 2 4"
    ascent="726"
    descent="-274"
    x-height="518"
    cap-height="716"
    bbox="-255 -232 1065 936"
    underline-thickness="50"
    underline-position="-150"
    slope="-12"
    unicode-range="U+0020-FB02"
  />
<missing-glyph horiz-adv-x="600" 
d="M62 665h475v-665h-475v665zM300 375l161 243h-323zM110 91q0 -1 161 242l-161 242v-484zM328 333l162 -243v485zM300 290l-162 -242h323z" />
    <glyph glyph-name="uniFB01" unicode="fi" horiz-adv-x="552" 
d="M146 433h-78l17 85h79l13 65q7 34 13 52q9 28 22 47q35 46 113 46q32 0 68 -6q13 -3 28 -6l12 -3l11 -3l-22 -89q-46 15 -76 15q-31 0 -43 -19q-7 -11 -16 -52l-10 -47h99l-18 -85h-99l-91 -433h-112zM446 518h113l-109 -518h-112zM487 716h113l-24 -113h-112z" />
    <glyph glyph-name="uniFB02" unicode="fl" horiz-adv-x="552" 
d="M146 433h-78l17 85h79l13 65q7 34 13 52q9 28 22 47q35 46 113 46q32 0 68 -6q13 -3 28 -6l12 -3l11 -3l-22 -89q-46 15 -76 15q-31 0 -43 -19q-7 -11 -16 -52l-10 -47h99l-18 -85h-99l-91 -433h-112zM485 716h113l-150 -716h-113z" />
    <glyph glyph-name=".notdef" horiz-adv-x="600" 
d="M62 665h475v-665h-475v665zM300 375l161 243h-323zM110 91q0 -1 161 242l-161 242v-484zM328 333l162 -243v485zM300 290l-162 -242h323z" />
    <glyph glyph-name=".null" horiz-adv-x="0" 
 />
    <glyph glyph-name="nonmarkingreturn" unicode=" " horiz-adv-x="276" 
 />
    <glyph glyph-name="exclam" unicode="!" horiz-adv-x="302" 
d="M117 181l49 378l33 157h126l-35 -169l-107 -366h-66zM57 0l24 117h118l-24 -117h-118z" />
    <glyph glyph-name="quotedbl" unicode="&#x22;" horiz-adv-x="406" 
d="M324 462l5 133l25 121h124l-26 -121l-51 -133h-77zM133 462l5 133l25 121h124l-26 -121l-51 -133h-77z" />
    <glyph glyph-name="numbersign" unicode="#" horiz-adv-x="552" 
d="M125 188h-75v89h93l33 161h-126v89h144l40 201h90l-40 -201h132l40 201h92l-40 -201h76v-89h-94l-34 -161h128v-89h-146l-40 -200h-91l41 200h-133l-40 -200h-91zM233 277h132l33 161h-132z" />
    <glyph glyph-name="dollar" unicode="$" horiz-adv-x="552" 
d="M153 213q5 -54 31 -89q20 -26 51 -39l51 244l-7 3l-9 4q-12 6 -22 12q-29 16 -51 36q-65 59 -65 142q0 82 63 141q69 65 174 60l10 51h59l-12 -59q86 -21 123 -89q13 -23 19 -51q3 -10 4 -20l1 -8l1 -7l-101 -6l-1 4v5q-1 6 -3 11q-3 14 -9 26q-17 33 -52 47l-47 -221
l9 -4l11 -5q14 -6 26 -12q32 -16 55 -37q67 -57 67 -143q0 -85 -60 -149q-71 -76 -196 -73l-17 -84h-59l19 91q-70 17 -115 71q-48 58 -53 143zM351 641q-56 0 -89 -33q-29 -29 -29 -73q0 -62 75 -102zM292 75q58 -1 98 37q38 37 38 87q0 41 -27 68q-18 18 -61 38z" />
    <glyph glyph-name="percent" unicode="%" horiz-adv-x="885" 
d="M191 442q12 -20 40 -20q50 0 77 76q10 27 16 59q4 26 4 44q0 57 -51 57q-49 0 -76 -76q-10 -27 -15 -59q-4 -25 -4 -42q0 -25 9 -39zM101 558q9 43 27 77q50 93 153 93q82 0 116 -59q11 -20 16 -46q2 -10 2 -20q1 -7 1 -14q0 -29 -7 -63q-9 -44 -27 -79q-51 -95 -154 -95
q-74 0 -108 49q-26 37 -26 95q0 29 7 62zM726 728h95l-592 -756h-97zM543 178q9 43 27 77q50 93 153 93q82 0 116 -59q11 -20 16 -46q2 -10 2 -20q1 -7 1 -14q0 -29 -7 -63q-9 -44 -27 -79q-51 -95 -154 -95q-74 0 -108 49q-26 37 -26 95q0 29 7 62zM633 62q12 -20 40 -20
q50 0 77 76q10 27 16 59q4 26 4 44q0 57 -51 57q-49 0 -76 -76q-10 -27 -15 -59q-4 -25 -4 -42q0 -25 9 -39z" />
    <glyph glyph-name="ampersand" unicode="&#x26;" horiz-adv-x="698" 
d="M680 259q-30 -62 -84 -122q30 -36 77 -83l-77 -71q-33 25 -55 47q-8 8 -16 17q-5 7 -12 15l-12 -10q-7 -6 -15 -11q-21 -15 -43 -25q-61 -30 -132 -30q-104 0 -167 59q-61 57 -61 146q0 94 74 163q27 24 62 45q13 8 28 15l12 6l11 5q-35 78 -35 124q0 80 57 131
q54 48 132 48q76 0 121 -44q39 -39 39 -93q0 -112 -172 -198l4 -6l4 -8q6 -10 11 -18q14 -24 27 -44q37 -60 70 -100q34 40 64 92zM235 291q-38 -39 -38 -91t36 -84q33 -31 81 -31h9q7 0 12 1q16 2 31 6q41 13 83 48q-82 104 -136 202q-51 -24 -78 -51zM376 475l6 4
q8 4 15 8q21 13 37 26q48 39 48 77q0 25 -16 41q-17 17 -44 17q-34 0 -56 -27q-21 -24 -21 -55q0 -27 9 -54q4 -11 9 -22l4 -9l4 -8z" />
    <glyph glyph-name="quotesingle" unicode="'" horiz-adv-x="208" 
d="M136 462l5 133l25 121h124l-26 -121l-51 -133h-77z" />
    <glyph glyph-name="parenleft" unicode="(" horiz-adv-x="333" 
d="M423 728q-40 -44 -75 -95q-45 -65 -79 -137q-88 -186 -88 -389q0 -66 10 -136q13 -90 42 -181h-80q-43 96 -62 198q-15 80 -15 161q0 183 96 354q35 64 85 129q19 24 42 52q9 10 20 23l9 11l9 10h86z" />
    <glyph glyph-name="parenright" unicode=")" horiz-adv-x="333" 
d="M-65 -210q40 44 75 95q45 65 79 137q88 186 88 389q0 66 -10 136q-13 90 -42 181h80q43 -96 62 -198q15 -80 15 -161q0 -183 -96 -354q-35 -64 -85 -129q-19 -24 -42 -52q-9 -10 -20 -23l-9 -11l-9 -10h-86z" />
    <glyph glyph-name="asterisk" unicode="*" horiz-adv-x="385" 
d="M130 650q3 -1 7 -3q5 -2 11 -4q15 -6 29 -12q41 -19 67 -34q-11 83 -11 126h78q0 -45 -12 -126q82 37 119 50l24 -78q-64 -17 -123 -26q13 -12 43 -46q28 -31 42 -49l-66 -45q-14 19 -33 51l-17 27l-17 28q-2 -4 -8 -15q-7 -13 -15 -27q-23 -39 -42 -66l-66 49
q48 55 87 93q-22 4 -61 13q-43 10 -61 16z" />
    <glyph glyph-name="plus" unicode="+" 
d="M284 301h-191v104h191v191h104v-191h191v-104h-191v-191h-104v191z" />
    <glyph glyph-name="comma" unicode="," horiz-adv-x="281" 
d="M73 117h120l-21 -99q-6 -31 -14 -54q-11 -30 -27 -52q-39 -55 -114 -62l11 51l10 3l11 4q12 6 22 16q26 24 37 76h-59z" />
    <glyph glyph-name="hyphen" unicode="-" horiz-adv-x="333" 
d="M66 314h270l-23 -111h-270z" />
    <glyph glyph-name="period" unicode="." horiz-adv-x="281" 
d="M76 117h118l-25 -117h-118z" />
    <glyph glyph-name="slash" unicode="/" horiz-adv-x="281" 
d="M225 716h86l-196 -740h-85z" />
    <glyph glyph-name="zero" unicode="0" horiz-adv-x="552" 
d="M147 553q89 166 227 166q79 0 132 -55q63 -65 63 -184q0 -173 -74 -318q-88 -174 -231 -174q-94 0 -147 73q-49 67 -49 166q0 180 79 326zM178 192q1 -9 2 -19q3 -24 11 -42q22 -53 76 -53q99 0 154 191q19 66 30 146q4 30 6 58q2 24 2 39v13q-1 9 -2 17q-4 22 -12 39
q-22 48 -74 48q-102 0 -157 -201q-18 -65 -29 -144q-3 -27 -5 -51q-1 -9 -2 -17v-24z" />
    <glyph glyph-name="one" unicode="1" horiz-adv-x="552" 
d="M339 520q-83 -61 -205 -89l21 101q197 81 272 187h67l-150 -719h-113z" />
    <glyph glyph-name="two" unicode="2" horiz-adv-x="552" 
d="M126 513q15 98 77 153q61 53 152 53q96 0 155 -57q56 -54 56 -134q0 -112 -134 -227l-14 -12l-14 -13q-17 -14 -31 -27q-37 -32 -64 -57q-72 -67 -84 -89h286l-21 -103h-431q16 91 70 158q38 46 176 169q84 75 115 114q36 46 36 88t-28 71t-72 29q-53 0 -85 -44
q-24 -33 -35 -88z" />
    <glyph glyph-name="three" unicode="3" horiz-adv-x="552" 
d="M163 200q1 -10 2 -17q2 -10 4 -19q6 -24 16 -40q28 -46 87 -46q60 0 100 42q38 40 38 95q0 49 -32 79q-31 30 -81 30q-13 0 -27 -2l20 94l18 -1q9 -1 14 -1q52 0 88 33q37 34 37 84q0 44 -28 72q-27 26 -67 26q-90 0 -115 -117l-106 22q32 116 124 161q30 15 66 21
q12 2 24 3h16q91 0 147 -57q51 -52 51 -129q0 -50 -25 -90q-31 -49 -96 -77q86 -50 86 -141q0 -93 -70 -163q-73 -74 -181 -74q-83 0 -141 46q-69 53 -79 153z" />
    <glyph glyph-name="four" unicode="4" horiz-adv-x="552" 
d="M291 0l35 164h-287l21 103l394 449h95l-94 -453h94l-20 -99h-95l-34 -164h-109zM346 263l55 261l-2 2l-228 -263h175z" />
    <glyph glyph-name="five" unicode="5" horiz-adv-x="552" 
d="M177 215q-4 -73 35 -110q15 -14 34 -21q15 -6 30 -6q67 0 114 64q45 60 45 138q0 52 -28 84q-30 33 -79 33q-68 0 -122 -64l-95 7l108 366h355l-22 -103h-256l-44 -148l8 5l9 5q11 6 23 10q31 12 68 12q76 0 127 -49q58 -56 58 -155q0 -122 -77 -208q-79 -87 -194 -87
q-99 0 -157 67q-54 61 -50 150z" />
    <glyph glyph-name="six" unicode="6" horiz-adv-x="552" 
d="M466 533v5l-1 5q-1 8 -3 14q-3 18 -11 32q-20 40 -66 40q-54 0 -99 -59q-39 -53 -61 -137l2 -2q11 9 20 15q12 9 26 15q35 16 77 16q81 0 133 -54q55 -58 55 -154q0 -109 -67 -192q-71 -89 -179 -89q-34 0 -66 10q-39 13 -68 40q-76 68 -76 212q0 171 74 308
q88 161 234 161q93 0 141 -62q35 -45 41 -115zM221 114q29 -36 72 -36q54 0 95 58q40 57 40 131q0 57 -27 93t-72 36q-59 0 -99 -59q-38 -56 -38 -132q0 -55 29 -91z" />
    <glyph glyph-name="seven" unicode="7" horiz-adv-x="552" 
d="M113 603l22 103h464l-19 -90q-119 -101 -218 -299q-86 -169 -116 -317h-112q21 126 102 291q92 190 211 312h-334z" />
    <glyph glyph-name="eight" unicode="8" horiz-adv-x="552" 
d="M450 380l6 -4q6 -4 12 -9q17 -13 29 -28q33 -44 33 -107q0 -97 -67 -168q-72 -76 -184 -76q-96 0 -152 58q-54 55 -54 139v11q1 11 2 21q4 32 16 60q35 87 130 117q-50 29 -68 76q-7 15 -9 32q-1 6 -1 12v8q0 73 52 130q62 67 170 67q95 0 150 -54q50 -49 50 -121
q0 -71 -49 -117q-18 -16 -40 -29q-9 -5 -18 -9l-7 -3l-6 -3zM211 107q28 -29 74 -29q67 0 105 61q30 49 30 105q0 43 -27 71q-28 28 -73 28q-65 0 -103 -54q-34 -48 -34 -112q0 -43 28 -70zM273 454q26 -26 70 -26q52 0 85 35q31 33 31 77q0 38 -23 63q-26 26 -71 26
q-49 0 -82 -31q-34 -33 -34 -82q0 -38 24 -62z" />
    <glyph glyph-name="nine" unicode="9" horiz-adv-x="552" 
d="M171 174l1 -5l1 -7l2 -14q4 -18 12 -32q21 -38 66 -38q50 0 93 52q42 52 66 144l-2 2q-10 -8 -19 -14q-14 -9 -28 -15q-37 -18 -77 -18q-72 0 -125 49q-62 58 -62 160q0 108 65 190q71 91 183 91q88 0 143 -59q65 -69 65 -203q0 -178 -77 -314q-88 -155 -232 -155
q-91 0 -139 60q-36 46 -42 117zM241 341q27 -31 67 -31q56 0 97 58q40 57 40 129q0 60 -29 96q-28 36 -72 36q-54 0 -94 -56q-41 -58 -41 -137q0 -60 32 -95z" />
    <glyph glyph-name="colon" unicode=":" horiz-adv-x="302" 
d="M86 117h118l-25 -117h-118zM170 518h118l-25 -117h-118z" />
    <glyph glyph-name="semicolon" unicode=";" horiz-adv-x="302" 
d="M86 117h120l-21 -99q-6 -31 -14 -54q-11 -30 -27 -52q-39 -55 -114 -62l11 51l10 3l11 4q12 6 22 16q26 24 37 76h-59zM170 518h118l-25 -117h-118z" />
    <glyph glyph-name="less" unicode="&#x3c;" 
d="M94 305v99l482 206v-112l-360 -143l360 -147v-111z" />
    <glyph glyph-name="equal" unicode="=" 
d="M93 409v104h486v-104h-486zM93 193v104h486v-104h-486z" />
    <glyph glyph-name="greater" unicode="&#x3e;" 
d="M576 402v-99l-482 -206v112l360 143l-360 147v111z" />
    <glyph glyph-name="question" unicode="?" 
d="M126 521q21 93 82 148q66 59 166 59q98 0 158 -54q56 -51 56 -123q0 -60 -45 -114q-29 -35 -115 -105q-65 -53 -84 -80q-19 -26 -27 -73h-104l1 7l1 7q1 10 3 18q6 24 16 46q29 63 95 119q96 82 119 107q33 37 33 74q0 36 -29 60q-30 25 -78 25q-72 0 -109 -53
q-14 -20 -22 -46q-4 -10 -6 -22q-2 -8 -4 -18zM170 0l25 117h118l-25 -117h-118z" />
    <glyph glyph-name="at" unicode="@" horiz-adv-x="1000" 
d="M642 515h107l-72 -338q-11 -52 -11 -61q0 -13 9 -21q8 -7 17 -7q50 0 110 71q71 84 71 194q0 125 -90 208q-96 87 -252 87q-197 0 -310 -135q-96 -115 -96 -279q0 -187 130 -284q109 -81 286 -81q240 0 341 139h96q-18 -36 -46 -68q-35 -41 -82 -72q-122 -79 -305 -79
q-252 0 -384 134q-116 118 -116 310q0 188 112 327q134 168 376 168q201 0 317 -118q103 -106 103 -259q0 -141 -93 -248q-93 -105 -214 -105q-52 0 -74 25q-9 9 -13 22l-3 12l-2 10q-38 -40 -80 -57q-31 -12 -64 -12q-80 0 -132 64q-48 61 -48 146q0 122 76 220
q78 100 181 100q92 0 140 -79zM362 117q27 -39 73 -39q68 0 118 79q47 74 47 165q0 47 -21 81q-28 45 -81 45q-73 0 -120 -86q-41 -73 -41 -156q0 -54 25 -89z" />
    <glyph glyph-name="A" unicode="A" horiz-adv-x="698" 
d="M393 716h136l118 -716h-115l-30 183h-288l-101 -183h-125zM268 279h220l-25 163q-16 112 -19 162h-2q-26 -59 -67 -132z" />
    <glyph glyph-name="B" unicode="B" horiz-adv-x="698" 
d="M193 716h233q123 0 179 -31q76 -43 76 -140q0 -81 -54 -129q-19 -16 -44 -28q-9 -5 -20 -9l-8 -3l-7 -2v-2q116 -33 116 -142q0 -85 -56 -147q-74 -83 -222 -83h-343zM184 99h153q104 0 147 25q60 35 60 104q0 56 -52 77q-19 7 -45 9q-10 1 -21 2h-197zM251 418h163
q20 1 35 3q38 4 65 18q54 29 54 94q0 55 -47 74q-19 6 -46 9l-25 1h-158z" />
    <glyph glyph-name="C" unicode="C" horiz-adv-x="719" 
d="M624 489l-1 7l-2 8q-2 11 -6 20q-8 27 -22 47q-40 58 -121 58q-113 0 -187 -99q-73 -98 -73 -241q0 -93 45 -147q46 -55 126 -55q71 0 127 51q51 45 73 117l120 -18q-44 -121 -134 -187q-85 -62 -192 -62q-138 0 -213 82q-72 81 -72 226q0 181 106 305q108 127 273 127
q109 0 182 -61q73 -62 85 -167z" />
    <glyph glyph-name="D" unicode="D" horiz-adv-x="719" 
d="M193 716h205q86 0 127 -9q67 -15 114 -63q77 -78 77 -223q0 -104 -40 -195q-32 -71 -83 -124q-64 -66 -161 -89q-35 -9 -75 -11q-15 -1 -32 -2h-282zM183 99h96q147 0 207 55q110 102 110 272q0 125 -68 167q-26 16 -64 21q-15 2 -34 3h-138z" />
    <glyph glyph-name="E" unicode="E" horiz-adv-x="667" 
d="M193 716h523l-21 -99h-403l-41 -195h392l-21 -99h-391l-47 -224h432l-20 -99h-553z" />
    <glyph glyph-name="F" unicode="F" horiz-adv-x="615" 
d="M192 716h482l-21 -99h-362l-42 -202h363l-21 -99h-363l-65 -316h-120z" />
    <glyph glyph-name="G" unicode="G" horiz-adv-x="781" 
d="M432 372h317l-62 -299q-22 -14 -48 -26q-33 -16 -68 -28q-91 -31 -182 -31q-139 0 -213 72q-51 50 -72 130q-7 29 -10 60q-1 11 -2 23v17q0 167 99 294q114 144 300 144q26 0 52 -4q33 -4 62 -14q74 -25 116 -80q25 -34 40 -74q5 -15 9 -30q2 -6 3 -12q1 -4 2 -9
l-114 -13q-33 137 -172 137q-127 0 -204 -102q-73 -95 -73 -233q0 -38 5 -67q8 -39 25 -68q43 -72 150 -72q56 0 121 22q22 8 45 18l16 8q7 3 12 6l27 132h-201z" />
    <glyph glyph-name="H" unicode="H" horiz-adv-x="719" 
d="M192 716h120l-60 -288h327l60 288h120l-149 -716h-120l66 329h-324l-69 -329h-120z" />
    <glyph glyph-name="I" unicode="I" horiz-adv-x="281" 
d="M192 716h120l-149 -716h-120z" />
    <glyph glyph-name="J" unicode="J" horiz-adv-x="531" 
d="M469 235q-24 -117 -66 -171q-58 -76 -173 -76q-82 0 -131 31q-65 41 -65 135q0 28 6 52l111 10q-6 -28 -6 -52q0 -47 38 -66q13 -7 29 -9l12 -2h8q68 0 93 57q10 23 19 60l7 34l7 35l92 443h119z" />
    <glyph glyph-name="K" unicode="K" horiz-adv-x="688" 
d="M193 716h119l-69 -333l2 -2l354 335h151l-316 -286l240 -430h-135l-193 351l-134 -121l-49 -230h-120z" />
    <glyph glyph-name="L" unicode="L" 
d="M193 716h120l-129 -617h368l-21 -99h-488z" />
    <glyph glyph-name="M" unicode="M" horiz-adv-x="833" 
d="M193 716h161l50 -482q7 -65 7 -93h2q18 39 52 104l248 471h163l-150 -716h-113l117 502q14 63 29 103l-2 2q-12 -31 -38 -80l-275 -527h-115l-50 524q-7 63 -7 78h-2q-3 -37 -11 -79l-104 -523h-112z" />
    <glyph glyph-name="N" unicode="N" horiz-adv-x="719" 
d="M193 716h114l156 -365q32 -75 68 -177h2q1 12 5 38q4 29 10 56l94 448h114l-150 -716h-114l-186 445l-4 11l-5 12l-10 25q-12 32 -19 54h-2q-1 -22 -6 -49q-4 -24 -8 -41l-95 -457h-114z" />
    <glyph glyph-name="O" unicode="O" horiz-adv-x="781" 
d="M185 586q111 142 296 142q139 0 221 -92q76 -86 76 -219q0 -173 -108 -298q-113 -131 -284 -131q-134 0 -216 86t-82 224q0 164 97 288zM271 135q52 -48 126 -48q118 0 194 115q67 101 67 224q0 78 -44 136q-52 67 -145 67q-106 0 -183 -97q-78 -98 -78 -237
q0 -103 63 -160z" />
    <glyph glyph-name="P" unicode="P" horiz-adv-x="667" 
d="M193 716h278q103 0 150 -25q38 -21 60 -63q21 -40 21 -85q0 -22 -4 -46q-5 -31 -17 -59q-30 -75 -98 -115q-44 -26 -118 -35q-27 -4 -58 -5q-12 -1 -25 -1h-160l-59 -282h-120zM243 381h105q74 0 115 9q16 3 28 8l10 5l8 4q73 41 73 123q0 58 -46 76q-18 7 -46 10l-25 1
h-172z" />
    <glyph glyph-name="Q" unicode="Q" horiz-adv-x="781" 
d="M656 -88q-41 24 -74 55q-25 23 -47 51q-37 -17 -77 -24q-31 -6 -65 -6q-149 0 -232 97q-73 85 -73 211q0 167 98 291q110 141 292 141q136 0 218 -85q82 -86 82 -227q0 -100 -41 -191q-43 -97 -124 -161q23 -25 56 -50q12 -9 24 -17q11 -7 19 -12zM425 234
q61 -28 118 -90q36 36 60 76q55 91 55 206q0 80 -46 138q-51 65 -139 65q-112 0 -190 -101q-75 -99 -75 -231q0 -110 70 -168q26 -21 60 -33q27 -9 51 -9q20 0 45 5q9 2 19 4l8 2l7 2q-33 39 -86 64z" />
    <glyph glyph-name="R" unicode="R" horiz-adv-x="719" 
d="M193 716h302q48 0 79 -4q46 -6 78 -21q81 -41 81 -155q0 -113 -84 -171q-33 -22 -76 -36q-33 -10 -72 -15q46 -39 92 -124q16 -31 32 -68q6 -13 13 -28l5 -12l4 -11l29 -71h-131l-27 71q-62 161 -106 206q-32 31 -98 31h-87l-64 -308h-120zM246 399h107q134 0 173 16
q87 35 87 118q0 55 -41 74q-16 6 -39 9l-21 1h-220z" />
    <glyph glyph-name="S" unicode="S" horiz-adv-x="667" 
d="M182 240q-7 -153 162 -153q101 0 141 50q12 16 17 36q2 7 3 14v7q0 40 -37 68q-26 20 -104 53q-107 45 -147 78q-64 53 -64 135q0 92 70 147q69 53 183 53q108 0 177 -45q54 -36 76 -94q15 -42 14 -77l-116 -7q1 61 -43 94q-41 30 -109 30h-16q-11 -1 -21 -2
q-25 -4 -45 -12q-54 -23 -54 -77q0 -37 34 -63q27 -22 108 -55q114 -48 157 -84q57 -50 57 -128q0 -94 -74 -155q-79 -65 -207 -65q-58 0 -107 12q-68 18 -111 57q-38 35 -52 98q-5 21 -6 46q-1 8 -2 18v13z" />
    <glyph glyph-name="T" unicode="T" horiz-adv-x="615" 
d="M217 0l129 617h-223l20 99h564l-21 -99h-220l-129 -617h-120z" />
    <glyph glyph-name="U" unicode="U" horiz-adv-x="719" 
d="M315 716l-87 -416q-14 -67 -14 -100q0 -54 44 -85q38 -28 94 -28q104 0 153 76q19 30 33 76q9 28 20 84l82 393h120l-85 -407q-6 -28 -10 -47q-7 -29 -15 -53q-21 -61 -51 -104q-83 -117 -248 -117q-136 0 -204 73q-53 56 -53 132q0 48 19 139l82 384h120z" />
    <glyph glyph-name="V" unicode="V" horiz-adv-x="667" 
d="M381 0h-129l-133 716h118l87 -481q12 -63 15 -99h2q5 13 18 40q11 21 20 37l274 503h121z" />
    <glyph glyph-name="W" unicode="W" horiz-adv-x="948" 
d="M121 716h120l11 -423q4 -102 3 -120l2 -2l43 91l232 454h127l20 -455q3 -42 3 -92h2q12 40 43 100l219 447h119l-356 -716h-124l-21 476q-1 4 -1 33q-1 26 -1 39h-2q-3 -9 -12 -28l-7 -16q-3 -7 -6 -12l-254 -492h-123z" />
    <glyph glyph-name="X" unicode="X" horiz-adv-x="667" 
d="M299 362l-191 354h128l82 -149q41 -75 62 -123q22 28 56 67q31 36 51 57l136 148h153l-337 -373l187 -343h-134l-91 175q-3 7 -18 36q-7 15 -12 24l-13 26q-9 -14 -38 -49q-27 -31 -42 -47l-152 -165h-157z" />
    <glyph glyph-name="Y" unicode="Y" horiz-adv-x="667" 
d="M326 278l-210 438h128l98 -206q21 -45 36 -79q11 -26 19 -48q38 67 105 153l136 180h141l-335 -449l-56 -267h-120z" />
    <glyph glyph-name="Z" unicode="Z" horiz-adv-x="615" 
d="M41 91l383 454q1 2 5 6l4 5l4 4q11 13 19 23q25 31 31 37q-15 -1 -38 -2q-21 -1 -38 -1h-285l21 99h504l-14 -93l-399 -470q-13 -16 -29 -34q-17 -20 -19 -22q27 1 70 2h328l-21 -99h-542z" />
    <glyph glyph-name="bracketleft" unicode="[" horiz-adv-x="302" 
d="M222 -196h-216l189 912h217l-18 -87h-107l-155 -740h108z" />
    <glyph glyph-name="backslash" unicode="\" horiz-adv-x="281" 
d="M226 -24l-196 740h86l195 -740h-85z" />
    <glyph glyph-name="bracketright" unicode="]" horiz-adv-x="302" 
d="M132 716h216l-189 -912h-217l18 87h107l155 740h-108z" />
    <glyph glyph-name="asciicircum" unicode="^" horiz-adv-x="521" 
d="M83 325l178 391h89l176 -391h-113l-109 267l-107 -267h-114z" />
    <glyph glyph-name="underscore" unicode="_" horiz-adv-x="500" 
d="M-6 -75h564v-50h-564v50z" />
    <glyph glyph-name="grave" unicode="`" horiz-adv-x="333" 
d="M140 723h120l60 -140h-81z" />
    <glyph glyph-name="a" unicode="a" horiz-adv-x="552" 
d="M97 377q55 153 238 153q90 0 144 -39q52 -37 52 -98q0 -27 -28 -159q-12 -55 -17 -87q-9 -50 -9 -81q0 -17 3 -38q2 -7 3 -16l2 -6l1 -6h-111q-8 27 -10 62l-5 -4l-5 -5q-7 -7 -13 -12q-18 -14 -36 -24q-50 -29 -108 -29q-64 0 -107 39q-47 42 -47 111q0 95 79 138
q27 14 62 22q13 3 27 5l11 1l9 1q7 1 28 2l19 2l22 2l66 6q15 1 27 5l9 3l7 3l3 11l3 14q3 16 3 31q0 33 -34 49q-13 6 -30 10q-14 2 -28 2q-93 0 -118 -78zM319 239l-24 -3l-12 -2l-11 -2q-25 -3 -31 -4q-14 -2 -27 -7q-17 -6 -29 -14q-32 -23 -32 -62q0 -30 20 -50
q23 -22 62 -22q73 0 116 58q28 38 44 122q-13 -5 -76 -14z" />
    <glyph glyph-name="b" unicode="b" 
d="M185 716h113l-52 -247l2 -2q12 11 23 20q16 12 32 21q42 22 89 22q76 0 123 -52q53 -57 53 -162q0 -137 -77 -233q-76 -95 -179 -95q-111 0 -155 104h-2l-19 -92h-101zM220 117q28 -41 79 -41q76 0 121 90q36 72 36 153q0 51 -26 87q-28 39 -74 39q-78 0 -125 -90
q-18 -35 -28 -77q-9 -37 -9 -67q0 -57 26 -94z" />
    <glyph glyph-name="c" unicode="c" horiz-adv-x="531" 
d="M430 348q-2 56 -39 80q-13 8 -30 12l-14 2h-11q-85 0 -130 -98q-17 -37 -26 -83q-7 -39 -7 -72q0 -55 28 -86q25 -27 65 -27q41 0 78 35q34 33 50 81l111 -16q-26 -76 -82 -126q-69 -62 -161 -62q-99 0 -153 65q-48 57 -48 146q0 138 75 232q79 99 207 99q96 0 149 -55
q45 -47 47 -118z" />
    <glyph glyph-name="d" unicode="d" 
d="M389 64l-2 2q-4 -5 -8 -9l-12 -12q-15 -15 -33 -26q-48 -31 -104 -31q-82 0 -129 60q-46 58 -46 156q0 130 72 226q74 100 182 100q102 0 151 -88l57 274h113l-149 -716h-106zM195 111q27 -35 73 -35q73 0 120 83q41 71 41 157q0 53 -28 90q-31 39 -80 39q-63 0 -109 -73
q-45 -71 -45 -166q0 -60 28 -95z" />
    <glyph glyph-name="e" unicode="e" horiz-adv-x="552" 
d="M167 227q-6 -78 32 -120q30 -34 75 -34q35 0 67 19q43 24 68 76l105 -14q-25 -65 -83 -111q-69 -55 -156 -55q-102 0 -163 67q-57 62 -57 160q0 127 75 218q80 97 206 97q103 0 157 -64q49 -59 49 -160q0 -45 -8 -79h-367zM436 303v13q1 10 0 20q-2 27 -10 47
q-23 62 -96 62q-57 0 -97 -42q-37 -38 -52 -100h255z" />
    <glyph glyph-name="f" unicode="f" horiz-adv-x="302" 
d="M138 433h-78l17 85h79l13 65q7 34 13 52q9 28 22 47q35 46 113 46q32 0 68 -6q13 -3 28 -6l12 -3l11 -3l-22 -89q-46 15 -76 15q-31 0 -43 -19q-7 -11 -16 -52l-10 -47h99l-18 -85h-99l-91 -433h-112z" />
    <glyph glyph-name="g" unicode="g" 
d="M148 -52v-10l1 -11q3 -14 10 -24q18 -27 71 -27q78 0 110 42q21 28 37 113l6 31l-2 2q-63 -65 -148 -65q-81 0 -130 61q-47 60 -47 156q0 129 75 222q75 92 178 92q106 0 161 -100l18 88h105l-98 -468q-28 -136 -70 -187q-59 -72 -191 -72h-19l-28 2q-38 4 -69 16
q-89 34 -89 125q0 14 2 28zM194 127q28 -40 76 -40q76 0 123 80q41 68 41 148q0 49 -28 87q-31 43 -83 43q-71 0 -116 -82q-39 -69 -39 -142q0 -58 26 -94z" />
    <glyph glyph-name="h" unicode="h" 
d="M188 716h113l-56 -264l2 -2l11 11q8 7 15 12q18 16 38 27q54 30 113 30q73 0 109 -46q13 -17 20 -40q6 -18 6 -35q0 -22 -6 -57q-2 -12 -5 -27l-2 -11l-2 -10l-63 -304h-113l65 311q12 60 12 80q0 22 -15 37q-18 17 -49 17q-88 0 -143 -92q-14 -23 -25 -67
q-5 -16 -10 -38l-3 -17l-4 -17l-45 -214h-113z" />
    <glyph glyph-name="i" unicode="i" horiz-adv-x="250" 
d="M146 518h113l-109 -518h-112zM187 716h113l-24 -113h-112z" />
    <glyph glyph-name="j" unicode="j" horiz-adv-x="250" 
d="M-96 -101l12 -3l12 -2q16 -3 30 -3q33 0 49 26q17 28 37 122l100 479h113l-103 -492q-27 -128 -53 -170q-38 -65 -122 -65q-28 0 -56 5q-10 2 -21 5l-9 2l-8 2zM186 716h112l-23 -113h-113z" />
    <glyph glyph-name="k" unicode="k" horiz-adv-x="531" 
d="M188 716h112l-85 -409l2 -2l220 213h147l-215 -191l123 -327h-117l-88 254l-102 -89l-34 -165h-113z" />
    <glyph glyph-name="l" unicode="l" horiz-adv-x="250" 
d="M183 716h113l-150 -716h-113z" />
    <glyph glyph-name="m" unicode="m" horiz-adv-x="854" 
d="M140 518h109l-16 -73l2 -2q78 87 169 87q42 0 72 -18q40 -24 52 -77q72 95 183 95q59 0 93 -32q33 -31 33 -84q0 -32 -13 -88l-68 -326h-113l69 330q11 55 11 68q0 19 -14 33q-15 14 -41 14q-36 0 -70 -21q-27 -16 -47 -43q-20 -26 -34 -70q-5 -17 -9 -36l-4 -17l-3 -14
l-51 -244h-113l70 333q9 50 9 62q0 20 -13 34q-16 16 -41 16q-36 0 -70 -22q-29 -19 -49 -47q-19 -26 -31 -67q-6 -16 -10 -35q-3 -13 -7 -32l-50 -242h-113z" />
    <glyph glyph-name="n" unicode="n" 
d="M147 518h105l-17 -77l2 -2q5 6 10 11q8 6 15 13q20 17 41 30q59 37 120 37q68 0 105 -41q31 -34 31 -82q0 -22 -5 -52l-5 -26l-5 -25l-63 -304h-113l65 313q12 53 12 78q0 24 -18 39t-45 15q-41 0 -78 -24q-31 -19 -53 -49q-20 -27 -35 -74q-5 -18 -10 -38l-4 -17
q-1 -6 -3 -15l-48 -228h-113z" />
    <glyph glyph-name="o" unicode="o" 
d="M505 473q63 -60 63 -167q0 -132 -77 -222q-81 -96 -212 -96q-90 0 -151 50q-73 60 -73 174q0 118 64 207q79 111 225 111q101 0 161 -57zM199 111q32 -38 84 -38q79 0 129 83q44 72 44 157q0 51 -25 87q-31 45 -91 45q-80 0 -129 -76q-44 -68 -44 -158q0 -63 32 -100z
" />
    <glyph glyph-name="p" unicode="p" 
d="M143 518h105l-13 -61l2 -2q5 6 10 10q6 6 13 12q16 14 33 25q48 28 101 28q93 0 140 -77q36 -59 36 -141q0 -129 -76 -226q-76 -98 -181 -98q-101 0 -150 89l-57 -275h-113zM234 101q15 -13 35 -20q16 -5 33 -5q75 0 120 91q36 73 36 153q0 48 -23 82q-28 43 -80 43
q-73 0 -120 -84q-40 -72 -40 -153q0 -72 39 -107z" />
    <glyph glyph-name="q" unicode="q" 
d="M325 -198l52 247l-2 2q-5 -5 -9 -8q-6 -6 -12 -10q-15 -12 -31 -21q-43 -24 -91 -24q-75 0 -123 52q-54 58 -54 163q0 132 73 228q75 99 183 99h11l16 -2q21 -3 41 -11q58 -25 88 -88h2l17 89h101l-149 -716h-113zM196 111q29 -35 74 -35q72 0 119 83q41 73 41 158
q0 51 -28 88q-30 40 -79 40q-69 0 -115 -81q-41 -73 -41 -161q0 -56 29 -92z" />
    <glyph glyph-name="r" unicode="r" horiz-adv-x="354" 
d="M139 518h103l-21 -101l2 -2q72 115 152 115q21 0 41 -6q8 -3 15 -6l7 -3l5 -2l-44 -97l-8 4l-9 4q-13 4 -26 4q-37 0 -72 -26q-14 -10 -26 -23q-9 -10 -17 -21q-23 -31 -41 -90q-6 -21 -12 -46q-2 -9 -5 -20l-1 -8l-2 -8l-39 -186h-110z" />
    <glyph glyph-name="s" unicode="s" horiz-adv-x="531" 
d="M144 175q7 -66 58 -91q17 -8 38 -11q7 -1 15 -2h9q41 0 71 14q40 18 40 55q0 23 -22 39q-23 17 -90 42l-28 11l-27 11q-30 14 -50 30q-50 38 -50 99q0 85 80 128q25 14 53 21q36 9 82 9q90 0 144 -43q50 -40 59 -108l-106 -13q-8 52 -59 71q-17 7 -36 9q-7 1 -14 1h-7
q-40 0 -65 -16t-25 -41q0 -23 23 -38q19 -13 75 -33q92 -33 131 -64q48 -39 48 -99q0 -65 -54 -113q-62 -55 -167 -55q-109 0 -172 48q-60 46 -64 126z" />
    <glyph glyph-name="t" unicode="t" horiz-adv-x="302" 
d="M193 179q-11 -56 -11 -68q0 -19 17 -27q5 -2 13 -3l7 -1h5q16 0 30 2l11 1l9 2l-18 -88l-12 -2q-8 -2 -15 -3q-19 -2 -40 -2q-64 0 -96 27q-28 23 -28 60q0 29 15 99l54 257h-69l17 85h70l22 107l129 78l-39 -185h86l-17 -85h-86z" />
    <glyph glyph-name="u" unicode="u" 
d="M479 0h-105l17 80l-2 2q-50 -55 -106 -78q-22 -9 -45 -13q-18 -3 -37 -3q-64 0 -101 40q-33 34 -33 83q0 32 16 113l62 294h113l-67 -319q-10 -47 -10 -69q0 -26 19 -42q17 -15 45 -15q48 0 92 35q15 13 28 28l10 12q3 5 6 9q26 40 44 127l49 234h113z" />
    <glyph glyph-name="v" unicode="v" horiz-adv-x="531" 
d="M80 518h110l41 -257q3 -15 10 -68q7 -50 9 -66h2q21 47 65 123l152 268h121l-307 -518h-109z" />
    <glyph glyph-name="w" unicode="w" horiz-adv-x="750" 
d="M76 518h103l30 -286q5 -47 5 -95h2q11 35 30 75l141 306h111l17 -300q3 -51 3 -84h2q9 26 22 56q4 10 10 22l4 10l4 8l135 288h113l-256 -518h-111l-22 316v18q-1 20 -1 41h-2q-4 -12 -10 -28q-8 -20 -14 -32l-147 -315h-110z" />
    <glyph glyph-name="x" unicode="x" horiz-adv-x="531" 
d="M224 264l-130 254h121l59 -118q8 -16 24 -52l141 170h137l-229 -265l131 -253h-122l-62 124q-11 21 -20 45l-143 -169h-139z" />
    <glyph glyph-name="y" unicode="y" horiz-adv-x="531" 
d="M15 -105l9 -2l11 -3q14 -2 29 -2q31 0 49 15q21 17 51 69l15 27l-88 519h111l38 -260q13 -96 15 -148h2q13 39 36 79l181 329h118l-325 -578q-44 -78 -72 -105q-45 -45 -109 -45q-24 0 -49 5q-9 1 -18 3l-7 2l-6 2z" />
    <glyph glyph-name="z" unicode="z" horiz-adv-x="500" 
d="M35 81l282 314q27 29 35 34l-2 2l-11 -1l-11 -1q-15 -1 -24 -1h-211l19 90h403l-14 -68l-289 -324q-1 -1 -12 -13l-6 -6l-6 -6l-13 -14q33 3 53 3h229l-18 -90h-421z" />
    <glyph glyph-name="braceleft" unicode="{" horiz-adv-x="365" 
d="M383 633q-65 0 -79 -16q-18 -20 -23 -115v-59q0 -87 -35 -135q-13 -18 -32 -32q-7 -5 -15 -10l-7 -4l-6 -3q62 -30 81 -93q16 -51 16 -179q0 -67 17 -84q17 -18 83 -18v-95q-75 0 -106 8q-49 14 -74 58q-23 41 -23 161q0 103 -14 139q-21 50 -90 54v98q67 3 88 51
q16 35 16 136q0 82 7 117q9 48 37 76q27 27 66 35q25 5 93 5v-95z" />
    <glyph glyph-name="bar" unicode="|" horiz-adv-x="271" 
d="M121 716h91v-914h-91v914z" />
    <glyph glyph-name="braceright" unicode="}" horiz-adv-x="365" 
d="M55 -115q65 0 80 16q17 20 22 115v59q0 87 36 136q12 17 31 31q7 5 15 10l7 4l6 3q-62 30 -81 93q-16 51 -16 179q0 67 -17 84q-17 18 -83 18v95q75 0 106 -8q49 -14 74 -58q23 -41 23 -161q0 -103 15 -138q20 -51 89 -55v-98q-67 -3 -88 -51q-16 -35 -16 -136
q0 -82 -7 -117q-9 -48 -37 -76q-27 -27 -66 -35q-25 -5 -93 -5v95z" />
    <glyph glyph-name="asciitilde" unicode="~" 
d="M81 378l3 3l3 3q5 5 10 9q13 12 28 21q43 26 97 26q56 0 147 -39q13 -5 22 -9l23 -9q28 -9 44 -9q68 0 132 69v-117q-62 -60 -141 -60q-29 0 -57 8q-11 3 -23 8l-9 3l-9 4q-105 43 -140 43q-62 0 -130 -67v113z" />
    <glyph glyph-name="uni00A0" unicode="&#xa0;" horiz-adv-x="276" 
 />
    <glyph glyph-name="exclamdown" unicode="&#xa1;" horiz-adv-x="302" 
d="M215 337l-49 -378l-33 -157h-126l35 169l107 366h66zM275 518l-24 -117h-118l24 117h118z" />
    <glyph glyph-name="cent" unicode="&#xa2;" horiz-adv-x="552" 
d="M167 11q-102 51 -102 188q0 129 68 223q79 108 219 108h18q9 -1 11 -1l79 191l55 -23l-75 -183q40 -17 68 -54q34 -45 35 -103l-109 -9q-2 51 -32 75l-143 -348q50 -1 88 36q33 31 51 81l111 -16q-29 -84 -94 -136q-64 -52 -142 -52q-15 0 -28 1q-10 1 -20 3l-78 -188
l-56 23zM345 442q-88 1 -133 -93q-18 -36 -27 -83q-8 -39 -8 -76q0 -9 1 -18q1 -12 3 -22q7 -29 24 -48z" />
    <glyph glyph-name="sterling" unicode="&#xa3;" horiz-adv-x="552" 
d="M26 90q95 53 132 131q13 27 18 55q2 11 2 21q1 8 0 14h-110l18 90h81l-1 9l-2 10q-1 12 -2 22q-3 29 -3 54q0 104 72 170q68 62 168 62q88 0 144 -49q57 -52 66 -143l-102 -10q-14 112 -109 112q-55 0 -92 -40q-38 -42 -38 -107q0 -22 3 -49l3 -22l2 -10l1 -9h132
l-19 -90h-108v-14q0 -9 -1 -18q-2 -24 -11 -48q-24 -68 -93 -123l2 -2l10 3q6 2 12 3q16 3 36 3q28 0 107 -19q11 -2 22 -3q13 -1 25 -1h13q11 1 23 3q34 7 69 24l34 -98q-4 -2 -9 -4q-6 -3 -11 -5q-16 -6 -31 -11q-43 -13 -82 -13t-99 20q-14 5 -23 8q-14 4 -27 7
q-31 7 -62 7q-45 0 -90 -16q-17 -7 -33 -15q-13 -7 -24 -14z" />
    <glyph glyph-name="currency" unicode="&#xa4;" horiz-adv-x="552" 
d="M70 530l68 72l67 -68l6 4l9 5q11 6 24 10q34 13 72 13q59 0 112 -32l67 67l68 -69l-66 -66q2 -4 4 -7l5 -9q6 -11 10 -23q12 -34 12 -72t-12 -72q-5 -12 -11 -24l-4 -9l-2 -3l-2 -3l67 -66l-68 -70l-68 67q-53 -32 -110 -32q-59 0 -112 32l-66 -66l-69 69l66 66l-2 3
l-2 3q-2 4 -4 9q-6 11 -11 23q-13 35 -13 74t13 72q4 11 10 23l5 8l2 3l2 3zM237 435q-34 -33 -34 -80t33 -81q34 -33 81 -33t80 33q33 34 33 81t-33 80t-80 33t-80 -33z" />
    <glyph glyph-name="yen" unicode="&#xa5;" horiz-adv-x="552" 
d="M222 149h-191l16 80h192l14 67h-192l17 80h151l-117 340h114l46 -141q10 -30 26 -84q18 -63 26 -98h2q9 22 35 68q28 49 53 86l120 169h133l-246 -340h150l-17 -80h-189l-14 -67h189l-16 -80h-190l-31 -149h-112z" />
    <glyph glyph-name="brokenbar" unicode="&#xa6;" horiz-adv-x="271" 
d="M212 336h-91v380h91v-380zM212 -198h-91v380h91v-380z" />
    <glyph glyph-name="section" unicode="&#xa7;" horiz-adv-x="552" 
d="M129 -19l1 -5l2 -6l4 -14q8 -20 19 -36q33 -45 93 -45q44 0 69 24q22 20 22 48q0 27 -21 51q-14 15 -105 97q-83 75 -106 105q-35 44 -35 96q0 68 50 117q18 18 44 34q10 6 22 12q8 4 19 10q-34 48 -34 99q0 70 52 115q53 45 136 45q101 0 149 -51q36 -38 47 -115
l-106 -11v9l-2 12q-3 17 -11 31q-22 40 -77 40q-39 0 -63 -22q-21 -21 -21 -51q0 -48 89 -123q95 -80 123 -114q42 -51 42 -105q0 -107 -132 -169l2 -3l3 -4q4 -4 7 -9q9 -12 15 -24q18 -36 18 -71q0 -65 -51 -110q-56 -48 -146 -48q-88 0 -148 47q-58 45 -73 120zM432 210
q0 25 -19 50q-19 24 -78 75q-22 19 -41 36q-25 23 -42 43l-5 -3l-6 -4l-13 -8q-16 -11 -27 -22q-30 -30 -30 -68q0 -16 7 -31q2 -6 5 -10t5 -7q19 -23 159 -146q85 37 85 95z" />
    <glyph glyph-name="dieresis" unicode="&#xa8;" horiz-adv-x="333" 
d="M124 708h105l-22 -110h-106zM316 708h105l-22 -110h-106z" />
    <glyph glyph-name="copyright" unicode="&#xa9;" horiz-adv-x="740" 
d="M515 431q-29 72 -99 72q-65 0 -95 -55q-11 -21 -17 -47q-4 -21 -4 -41q0 -8 1 -17q0 -11 2 -22q4 -28 14 -50q27 -61 93 -61h9l12 2q16 3 31 10q41 22 56 77l69 -22q-17 -65 -67 -99q-44 -31 -105 -31q-86 0 -138 57q-52 56 -52 145q0 111 59 167q51 48 134 48
q55 0 95 -24q49 -29 70 -93zM675 620q109 -109 109 -263q0 -153 -109 -262q-108 -109 -262 -109t-262 109q-109 108 -109 262q0 155 109 263t262 108t262 -108zM199 573q-90 -89 -90 -216q0 -126 89 -215q90 -89 215 -89t215 89q89 89 89 215q0 127 -90 216q-89 88 -214 88
t-214 -88z" />
    <glyph glyph-name="ordfeminine" unicode="&#xaa;" horiz-adv-x="375" 
d="M115 625l2 5l3 6q4 8 8 15q12 20 28 35q46 42 120 42q60 0 97 -25q37 -26 37 -71q0 -18 -7 -54q-3 -13 -6 -29q-3 -13 -6 -25q-21 -80 -21 -109q0 -10 3 -24l3 -11l2 -4l1 -4h-79q-4 14 -6 27q-10 -7 -18 -12q-11 -6 -23 -11q-30 -13 -64 -13q-49 0 -78 28q-29 27 -29 71
q0 60 50 89q17 10 39 16q8 2 16 3l7 1l5 1q6 1 25 3l18 2l20 2q51 5 61 7l2 7l2 9q2 11 2 20q0 23 -22 33q-8 3 -18 5l-8 1h-6q-33 0 -55 -17q-9 -7 -15 -16q-5 -6 -10 -15zM261 518q-12 -2 -28 -4q-5 -1 -11 -2l-4 -1h-3q-8 -1 -16 -4q-9 -3 -17 -8q-19 -12 -19 -34
q0 -18 15 -30q13 -10 32 -10q77 0 95 100q-8 -2 -44 -7z" />
    <glyph glyph-name="guillemotleft" unicode="&#xab;" horiz-adv-x="521" 
d="M235 35h-85l-97 234l193 209h96l-175 -219zM428 35h-85l-97 234l193 209h96l-175 -219z" />
    <glyph glyph-name="logicalnot" unicode="&#xac;" 
d="M475 193v216h-382v104h486v-320h-104z" />
    <glyph glyph-name="uni00AD" unicode="&#xad;" horiz-adv-x="333" 
d="M66 314h270l-23 -111h-270z" />
    <glyph glyph-name="registered" unicode="&#xae;" horiz-adv-x="740" 
d="M248 552h110q117 0 151 -18q52 -28 52 -92q0 -15 -5 -30q-5 -19 -16 -34q-29 -40 -89 -47v-2q39 -13 88 -95l48 -79h-88l-35 63q-37 67 -61 86q-19 17 -53 17h-30v-166h-72v397zM320 379h74l18 1q21 1 35 6q38 13 38 51t-36 50q-15 5 -37 6l-19 1h-73v-115zM675 620
q109 -108 109 -263q0 -153 -109 -262q-108 -109 -262 -109t-262 109q-109 108 -109 262q0 155 109 263t262 108t262 -108zM199 573q-90 -89 -90 -216q0 -126 89 -215t215 -89t215 89t89 215q0 127 -89 216q-89 88 -215 88q-125 0 -214 -88z" />
    <glyph glyph-name="macron" unicode="&#xaf;" horiz-adv-x="333" 
d="M115 691h307l-17 -80h-307z" />
    <glyph glyph-name="degree" unicode="&#xb0;" horiz-adv-x="396" 
d="M371 686q43 -43 43 -103t-42 -102q-43 -43 -103 -43t-102 43q-43 42 -43 102t43 103q42 42 102 42t102 -42zM213 639q-23 -23 -23 -56q0 -32 23 -56q23 -23 56 -23t56 23q23 24 23 56q0 33 -23 56q-24 23 -56 23t-56 -23z" />
    <glyph glyph-name="plusminus" unicode="&#xb1;" 
d="M284 345h-191v104h191v191h104v-191h191v-104h-191v-191h-104v191zM93 0v104h486v-104h-486z" />
    <glyph glyph-name="uni00B2" unicode="&#xb2;" horiz-adv-x="333" 
d="M115 614q26 111 148 111q64 0 101 -29q35 -28 35 -74q0 -42 -34 -77q-21 -22 -85 -66q-59 -40 -71 -55h163l-15 -67h-279l1 7l2 7l6 16q8 21 23 42q42 57 141 119q28 18 44 34q21 21 21 40q0 16 -12 27q-14 12 -39 12q-31 0 -48 -19q-7 -7 -12 -18q-4 -8 -7 -19z" />
    <glyph glyph-name="uni00B3" unicode="&#xb3;" horiz-adv-x="333" 
d="M159 466l3 -7l3 -9q4 -10 10 -17q17 -20 49 -20q33 0 51 18q16 16 16 38q0 33 -33 42q-11 3 -26 3h-12l-5 -1h-4l14 61q54 -3 75 19q7 8 9 18l2 8v5q0 22 -19 33q-7 4 -16 6q-7 1 -14 1q-28 0 -44 -17q-6 -7 -11 -16q-4 -7 -7 -17l-80 12q32 99 144 99q56 0 92 -25
q39 -27 39 -73q0 -36 -25 -59q-10 -9 -23 -16l-12 -5l-10 -5l7 -5l9 -5q9 -7 16 -15q19 -20 19 -49q0 -49 -43 -84q-44 -35 -109 -35q-49 0 -86 22q-47 28 -59 86z" />
    <glyph glyph-name="acute" unicode="&#xb4;" horiz-adv-x="333" 
d="M272 723h130l-144 -140h-82z" />
    <glyph glyph-name="mu" unicode="&#xb5;" 
d="M253 518l-51 -241q-17 -85 -17 -116q0 -36 25 -60q25 -25 64 -25q67 0 103 61q13 22 22 54q4 12 8 27l2 13l3 12l58 275h111l-109 -518h-101l9 42l-2 2l-9 -9l-10 -9q-13 -11 -25 -18q-33 -20 -72 -20q-42 0 -73 23q-11 9 -21 21l-8 11l-6 9l-53 -252h-112l152 718h112z
" />
    <glyph glyph-name="paragraph" unicode="&#xb6;" horiz-adv-x="542" 
d="M246 313q-108 7 -159 76q-37 51 -37 122q0 51 21 96q24 53 72 78q59 31 152 31h301v-104h-63v-810h-98v810h-91v-810h-98v511z" />
    <glyph glyph-name="periodcentered" unicode="&#xb7;" horiz-adv-x="281" 
d="M131 411h118l-25 -117h-118z" />
    <glyph glyph-name="cedilla" unicode="&#xb8;" horiz-adv-x="333" 
d="M40 -148l24 -1h25q30 0 49 3q53 9 53 40q0 37 -64 37q-7 0 -14 -1q-7 0 -11 -1l23 80h72l-11 -36q92 -9 92 -80q0 -39 -36 -65q-50 -36 -156 -36q-22 0 -40 2q-6 0 -13 1l-6 1h-4z" />
    <glyph glyph-name="uni00B9" unicode="&#xb9;" horiz-adv-x="333" 
d="M190 357l57 250q-68 -35 -121 -44l16 68q54 18 103 49q18 12 34 25q13 11 22 20h57l-84 -368h-84z" />
    <glyph glyph-name="ordmasculine" unicode="&#xba;" horiz-adv-x="365" 
d="M118 655q53 73 142 73q73 0 116 -48q37 -42 37 -101q0 -29 -9 -63q-11 -40 -31 -71q-53 -83 -149 -83q-65 0 -107 37q-46 40 -46 113q0 80 47 143zM176 453q18 -19 46 -19q49 0 80 53q26 45 26 96q0 31 -18 52q-19 21 -49 21q-48 0 -79 -54q-26 -45 -26 -94q0 -35 20 -55
z" />
    <glyph glyph-name="guillemotright" unicode="&#xbb;" horiz-adv-x="521" 
d="M309 478h85l97 -234l-193 -209h-96l175 219zM116 478h85l97 -234l-193 -209h-96l175 219z" />
    <glyph glyph-name="onequarter" unicode="&#xbc;" horiz-adv-x="833" 
d="M660 -19l16 74h-181l15 63l241 231h69l-52 -232h50l-15 -62h-50l-17 -74h-76zM691 117l31 118l-2 2l-124 -120h95zM190 357l57 250q-68 -35 -121 -44l16 68q54 18 103 49q18 12 34 25q13 11 22 20h57l-84 -368h-84zM91 -30l669 756h85l-673 -756h-81z" />
    <glyph glyph-name="onehalf" unicode="&#xbd;" horiz-adv-x="833" 
d="M563 238q26 111 148 111q64 0 101 -29q35 -28 35 -74q0 -42 -34 -77q-21 -22 -85 -66q-59 -40 -71 -55h163l-15 -67h-279l1 7l2 7l6 16q8 21 23 42q42 57 141 119q28 18 44 34q21 21 21 40q0 16 -12 27q-14 12 -39 12q-31 0 -48 -19q-7 -7 -12 -18q-4 -8 -7 -19zM190 357
l57 250q-68 -35 -121 -44l16 68q54 18 103 49q18 12 34 25q13 11 22 20h57l-84 -368h-84zM91 -30l669 756h85l-673 -756h-81z" />
    <glyph glyph-name="threequarters" unicode="&#xbe;" horiz-adv-x="833" 
d="M660 -19l16 74h-181l15 63l241 231h69l-52 -232h50l-15 -62h-50l-17 -74h-76zM691 117l31 118l-2 2l-124 -120h95zM146 466l3 -7l3 -9q4 -10 10 -17q17 -20 49 -20q33 0 51 18q16 16 16 38q0 33 -33 42q-11 3 -26 3h-12l-5 -1h-4l14 61q54 -3 75 19q7 8 9 18l2 8v5
q0 22 -19 33q-7 4 -16 6q-7 1 -14 1q-28 0 -44 -17q-6 -7 -11 -16q-4 -7 -7 -17l-80 12q32 99 144 99q56 0 92 -25q39 -27 39 -73q0 -36 -25 -59q-10 -9 -23 -16l-12 -5l-10 -5l7 -5l9 -5q9 -7 16 -15q19 -20 19 -49q0 -49 -43 -84q-44 -35 -109 -35q-49 0 -86 22
q-47 28 -59 86zM91 -30l669 756h85l-673 -756h-81z" />
    <glyph glyph-name="questiondown" unicode="&#xbf;" 
d="M489 -3q-21 -93 -82 -148q-66 -59 -166 -59q-98 0 -158 54q-56 51 -56 123q0 60 45 114q29 35 115 105q65 52 84 80q19 25 27 73h104l-1 -7l-1 -7q-1 -10 -3 -18q-6 -24 -16 -46q-29 -63 -95 -119q-96 -82 -119 -107q-33 -37 -33 -74q0 -36 29 -60q30 -25 78 -25
q72 0 109 53q14 20 22 46q4 10 6 22q2 8 4 18zM445 518l-25 -117h-118l25 117h118z" />
    <glyph glyph-name="Agrave" unicode="&#xc0;" horiz-adv-x="698" 
d="M393 716h136l118 -716h-115l-30 183h-288l-101 -183h-125zM268 279h220l-25 163q-16 112 -19 162h-2q-26 -59 -67 -132zM343 905h120l60 -140h-81z" />
    <glyph glyph-name="Aacute" unicode="&#xc1;" horiz-adv-x="698" 
d="M393 716h136l118 -716h-115l-30 183h-288l-101 -183h-125zM268 279h220l-25 163q-16 112 -19 162h-2q-26 -59 -67 -132zM485 905h130l-144 -140h-82z" />
    <glyph glyph-name="Acircumflex" unicode="&#xc2;" horiz-adv-x="698" 
d="M393 716h136l118 -716h-115l-30 183h-288l-101 -183h-125zM268 279h220l-25 163q-16 112 -19 162h-2q-26 -59 -67 -132zM405 765h-103l137 140h114l60 -140h-87l-38 87z" />
    <glyph glyph-name="Atilde" unicode="&#xc3;" horiz-adv-x="698" 
d="M393 716h136l118 -716h-115l-30 183h-288l-101 -183h-125zM268 279h220l-25 163q-16 112 -19 162h-2q-26 -59 -67 -132zM629 888q-7 -55 -37 -85q-26 -26 -56 -26q-23 0 -89 26q-34 14 -49 14q-32 0 -40 -40h-62q11 50 30 76q25 37 66 37q31 0 89 -24l6 -2l6 -3l14 -5
q17 -6 26 -6q25 0 36 38h60z" />
    <glyph glyph-name="Adieresis" unicode="&#xc4;" horiz-adv-x="698" 
d="M393 716h136l118 -716h-115l-30 183h-288l-101 -183h-125zM268 279h220l-25 163q-16 112 -19 162h-2q-26 -59 -67 -132zM347 890h105l-22 -110h-106zM539 890h105l-22 -110h-106z" />
    <glyph glyph-name="Aring" unicode="&#xc5;" horiz-adv-x="698" 
d="M393 716h136l118 -716h-115l-30 183h-288l-101 -183h-125zM268 279h220l-25 163q-16 112 -19 162h-2q-26 -59 -67 -132zM406 910q26 26 64 26t65 -27q26 -26 26 -64t-27 -65q-26 -27 -64 -27t-64 27q-27 26 -27 65q0 38 27 65zM437 811q13 -13 33 -13q19 0 33 13
q14 14 14 34t-14 34q-14 13 -33 13t-33 -14t-14 -33q0 -20 14 -34z" />
    <glyph glyph-name="AE" unicode="&#xc6;" horiz-adv-x="1000" 
d="M205 193l-113 -193h-129l430 716h658l-21 -99h-360l-41 -195h356l-20 -99h-357l-46 -224h396l-21 -99h-514l40 193h-258zM484 292l68 325h-96l-193 -325h221z" />
    <glyph glyph-name="Ccedilla" unicode="&#xc7;" horiz-adv-x="719" 
d="M380 -27q91 -9 91 -80q0 -39 -36 -65q-50 -36 -156 -36q-22 0 -40 2q-6 0 -13 1l-6 1h-4l17 56l24 -1h25q30 0 49 3q53 9 53 40q0 37 -64 37q-5 0 -14 -1q-8 -1 -11 -1l18 63q-221 44 -221 304q0 181 106 305q108 127 273 127q109 0 182 -61q73 -62 85 -167l-114 -11
l-1 7l-2 8q-2 11 -6 20q-8 27 -22 47q-40 58 -121 58q-113 0 -187 -99q-73 -98 -73 -241q0 -93 45 -147q46 -55 126 -55q71 0 127 51q51 45 73 117l120 -18q-43 -121 -133 -187q-83 -61 -186 -62z" />
    <glyph glyph-name="Egrave" unicode="&#xc8;" horiz-adv-x="667" 
d="M193 716h523l-21 -99h-403l-41 -195h392l-21 -99h-391l-47 -224h432l-20 -99h-553zM347 905h120l60 -140h-81z" />
    <glyph glyph-name="Eacute" unicode="&#xc9;" horiz-adv-x="667" 
d="M193 716h523l-21 -99h-403l-41 -195h392l-21 -99h-391l-47 -224h432l-20 -99h-553zM479 905h130l-144 -140h-82z" />
    <glyph glyph-name="Ecircumflex" unicode="&#xca;" horiz-adv-x="667" 
d="M193 716h523l-21 -99h-403l-41 -195h392l-21 -99h-391l-47 -224h432l-20 -99h-553zM389 765h-103l137 140h114l60 -140h-87l-38 87z" />
    <glyph glyph-name="Edieresis" unicode="&#xcb;" horiz-adv-x="667" 
d="M193 716h523l-21 -99h-403l-41 -195h392l-21 -99h-391l-47 -224h432l-20 -99h-553zM331 890h105l-22 -110h-106zM523 890h105l-22 -110h-106z" />
    <glyph glyph-name="Igrave" unicode="&#xcc;" horiz-adv-x="281" 
d="M192 716h120l-149 -716h-120zM154 905h120l60 -140h-81z" />
    <glyph glyph-name="Iacute" unicode="&#xcd;" horiz-adv-x="281" 
d="M192 716h120l-149 -716h-120zM286 905h130l-144 -140h-82z" />
    <glyph glyph-name="Icircumflex" unicode="&#xce;" horiz-adv-x="281" 
d="M192 716h120l-149 -716h-120zM196 765h-103l137 140h114l60 -140h-87l-38 87z" />
    <glyph glyph-name="Idieresis" unicode="&#xcf;" horiz-adv-x="281" 
d="M192 716h120l-149 -716h-120zM138 890h105l-22 -110h-106zM330 890h105l-22 -110h-106z" />
    <glyph glyph-name="Eth" unicode="&#xd0;" horiz-adv-x="719" 
d="M110 320h-74l16 75h74l67 321h205q86 0 127 -9q67 -15 114 -63q77 -78 77 -223q0 -104 -40 -195q-32 -71 -83 -124q-64 -66 -161 -89q-35 -9 -75 -11q-15 -1 -32 -2h-282zM245 395h178l-16 -75h-178l-46 -221h96q147 0 207 55q110 102 110 272q0 125 -68 167
q-26 16 -64 21q-15 2 -34 3h-138z" />
    <glyph glyph-name="Ntilde" unicode="&#xd1;" horiz-adv-x="719" 
d="M193 716h114l156 -365q32 -75 68 -177h2q1 12 5 38q4 29 10 56l94 448h114l-150 -716h-114l-186 445l-4 11l-5 12l-10 25q-12 32 -19 54h-2q-1 -22 -6 -49q-4 -24 -8 -41l-95 -457h-114zM659 888q-7 -55 -37 -85q-26 -26 -56 -26q-23 0 -89 26q-34 14 -49 14
q-32 0 -40 -40h-62q11 50 30 76q25 37 66 37q31 0 89 -24l6 -2l6 -3l14 -5q17 -6 26 -6q25 0 36 38h60z" />
    <glyph glyph-name="Ograve" unicode="&#xd2;" horiz-adv-x="781" 
d="M185 586q111 142 296 142q139 0 221 -92q76 -86 76 -219q0 -173 -108 -298q-113 -131 -284 -131q-134 0 -216 86t-82 224q0 164 97 288zM271 135q52 -48 126 -48q118 0 194 115q67 101 67 224q0 78 -44 136q-52 67 -145 67q-106 0 -183 -97q-78 -98 -78 -237
q0 -103 63 -160zM384 905h120l60 -140h-81z" />
    <glyph glyph-name="Oacute" unicode="&#xd3;" horiz-adv-x="781" 
d="M185 586q111 142 296 142q139 0 221 -92q76 -86 76 -219q0 -173 -108 -298q-113 -131 -284 -131q-134 0 -216 86t-82 224q0 164 97 288zM271 135q52 -48 126 -48q118 0 194 115q67 101 67 224q0 78 -44 136q-52 67 -145 67q-106 0 -183 -97q-78 -98 -78 -237
q0 -103 63 -160zM506 905h130l-144 -140h-82z" />
    <glyph glyph-name="Ocircumflex" unicode="&#xd4;" horiz-adv-x="781" 
d="M185 586q111 142 296 142q139 0 221 -92q76 -86 76 -219q0 -173 -108 -298q-113 -131 -284 -131q-134 0 -216 86t-82 224q0 164 97 288zM271 135q52 -48 126 -48q118 0 194 115q67 101 67 224q0 78 -44 136q-52 67 -145 67q-106 0 -183 -97q-78 -98 -78 -237
q0 -103 63 -160zM426 765h-103l137 140h114l60 -140h-87l-38 87z" />
    <glyph glyph-name="Otilde" unicode="&#xd5;" horiz-adv-x="781" 
d="M185 586q111 142 296 142q139 0 221 -92q76 -86 76 -219q0 -173 -108 -298q-113 -131 -284 -131q-134 0 -216 86t-82 224q0 164 97 288zM271 135q52 -48 126 -48q118 0 194 115q67 101 67 224q0 78 -44 136q-52 67 -145 67q-106 0 -183 -97q-78 -98 -78 -237
q0 -103 63 -160zM670 888q-7 -55 -37 -85q-26 -26 -56 -26q-23 0 -89 26q-34 14 -49 14q-32 0 -40 -40h-62q11 50 30 76q25 37 66 37q31 0 89 -24l6 -2l6 -3l14 -5q17 -6 26 -6q25 0 36 38h60z" />
    <glyph glyph-name="Odieresis" unicode="&#xd6;" horiz-adv-x="781" 
d="M185 586q111 142 296 142q139 0 221 -92q76 -86 76 -219q0 -173 -108 -298q-113 -131 -284 -131q-134 0 -216 86t-82 224q0 164 97 288zM271 135q52 -48 126 -48q118 0 194 115q67 101 67 224q0 78 -44 136q-52 67 -145 67q-106 0 -183 -97q-78 -98 -78 -237
q0 -103 63 -160zM368 890h105l-22 -110h-106zM560 890h105l-22 -110h-106z" />
    <glyph glyph-name="multiply" unicode="&#xd7;" 
d="M262 353l-151 151l74 74l151 -151l150 150l73 -72l-150 -151l151 -151l-74 -74l-151 151l-151 -151l-73 73z" />
    <glyph glyph-name="Oslash" unicode="&#xd8;" horiz-adv-x="781" 
d="M726 765l55 -46l-75 -90l4 -5l5 -6q6 -8 11 -16q14 -20 24 -42q28 -63 28 -144q0 -172 -107 -296q-114 -132 -285 -132q-54 0 -105 17q-20 6 -39 15l-28 16l-76 -91l-57 47l78 93q-71 87 -71 213q0 164 96 288q110 142 292 142h14q9 -1 17 -1q23 -2 44 -7q59 -12 102 -43
zM583 593q-52 36 -114 36q-104 0 -181 -96q-80 -98 -80 -236q0 -40 10 -75q4 -14 10 -26q4 -10 9 -18zM286 123l8 -5l9 -6q12 -7 24 -11q33 -14 69 -14q113 0 190 108q72 99 72 225q0 71 -28 117z" />
    <glyph glyph-name="Ugrave" unicode="&#xd9;" horiz-adv-x="719" 
d="M315 716l-87 -416q-14 -67 -14 -100q0 -54 44 -85q38 -28 94 -28q104 0 153 76q19 30 33 76q9 28 20 84l82 393h120l-85 -407q-6 -28 -10 -47q-7 -29 -15 -53q-21 -61 -51 -104q-83 -117 -248 -117q-136 0 -204 73q-53 56 -53 132q0 48 19 139l82 384h120zM373 905h120
l60 -140h-81z" />
    <glyph glyph-name="Uacute" unicode="&#xda;" horiz-adv-x="719" 
d="M315 716l-87 -416q-14 -67 -14 -100q0 -54 44 -85q38 -28 94 -28q104 0 153 76q19 30 33 76q9 28 20 84l82 393h120l-85 -407q-6 -28 -10 -47q-7 -29 -15 -53q-21 -61 -51 -104q-83 -117 -248 -117q-136 0 -204 73q-53 56 -53 132q0 48 19 139l82 384h120zM505 905h130
l-144 -140h-82z" />
    <glyph glyph-name="Ucircumflex" unicode="&#xdb;" horiz-adv-x="719" 
d="M315 716l-87 -416q-14 -67 -14 -100q0 -54 44 -85q38 -28 94 -28q104 0 153 76q19 30 33 76q9 28 20 84l82 393h120l-85 -407q-6 -28 -10 -47q-7 -29 -15 -53q-21 -61 -51 -104q-83 -117 -248 -117q-136 0 -204 73q-53 56 -53 132q0 48 19 139l82 384h120zM415 765h-103
l137 140h114l60 -140h-87l-38 87z" />
    <glyph glyph-name="Udieresis" unicode="&#xdc;" horiz-adv-x="719" 
d="M315 716l-87 -416q-14 -67 -14 -100q0 -54 44 -85q38 -28 94 -28q104 0 153 76q19 30 33 76q9 28 20 84l82 393h120l-85 -407q-6 -28 -10 -47q-7 -29 -15 -53q-21 -61 -51 -104q-83 -117 -248 -117q-136 0 -204 73q-53 56 -53 132q0 48 19 139l82 384h120zM357 890h105
l-22 -110h-106zM549 890h105l-22 -110h-106z" />
    <glyph glyph-name="Yacute" unicode="&#xdd;" horiz-adv-x="667" 
d="M326 278l-210 438h128l98 -206q21 -45 36 -79q11 -26 19 -48q38 67 105 153l136 180h141l-335 -449l-56 -267h-120zM459 905h130l-144 -140h-82z" />
    <glyph glyph-name="Thorn" unicode="&#xde;" horiz-adv-x="667" 
d="M193 716h120l-29 -141h175q88 0 133 -25q38 -21 60 -63q21 -40 21 -85q0 -22 -4 -46q-5 -31 -17 -59q-30 -75 -98 -115q-44 -26 -118 -35q-27 -4 -58 -5q-12 -1 -25 -1h-160l-30 -141h-120zM214 240h105q74 0 115 9q16 3 28 8l10 5l8 4q73 41 73 123q0 58 -46 76
q-18 7 -46 10l-25 1h-173z" />
    <glyph glyph-name="germandbls" unicode="&#xdf;" horiz-adv-x="615" 
d="M138 488q23 108 57 152q36 46 96 69q49 19 103 19q76 0 123 -35t47 -91q0 -46 -48 -109q-66 -87 -66 -109q0 -21 21 -50q7 -10 17 -21q4 -4 8 -9l6 -6q44 -44 61 -82q11 -25 11 -54q0 -70 -53 -121q-55 -53 -133 -53q-66 0 -120 43q-20 15 -37 35q-6 7 -12 15l-8 12
l86 48q38 -63 80 -63q34 0 59 26q24 25 24 56v6l-1 6q-1 8 -5 17q-11 22 -45 56l-8 8q-6 6 -11 12q-14 16 -25 32q-31 43 -31 73t19 63q13 22 66 94l4 5l4 7q6 8 10 16q11 21 11 39q0 22 -19 36q-18 13 -43 13q-67 0 -104 -63q-13 -23 -23 -56q-3 -13 -7 -27l-5 -25
l-98 -472h-113z" />
    <glyph glyph-name="agrave" unicode="&#xe0;" horiz-adv-x="552" 
d="M97 377q55 153 238 153q90 0 144 -39q52 -37 52 -98q0 -27 -28 -159q-12 -55 -17 -87q-9 -50 -9 -81q0 -17 3 -38q2 -7 3 -16l2 -6l1 -6h-111q-8 27 -10 62l-5 -4l-5 -5q-7 -7 -13 -12q-18 -14 -36 -24q-50 -29 -108 -29q-64 0 -107 39q-47 42 -47 111q0 95 79 138
q27 14 62 22q13 3 27 5l11 1l9 1q7 1 28 2l19 2l22 2l66 6q15 1 27 5l9 3l7 3l3 11l3 14q3 16 3 31q0 33 -34 49q-13 6 -30 10q-14 2 -28 2q-93 0 -118 -78zM319 239l-24 -3l-12 -2l-11 -2q-25 -3 -31 -4q-14 -2 -27 -7q-17 -6 -29 -14q-32 -23 -32 -62q0 -30 20 -50
q23 -22 62 -22q73 0 116 58q28 38 44 122q-13 -5 -76 -14zM250 725h120l60 -140h-81z" />
    <glyph glyph-name="aacute" unicode="&#xe1;" horiz-adv-x="552" 
d="M97 377q55 153 238 153q90 0 144 -39q52 -37 52 -98q0 -27 -28 -159q-12 -55 -17 -87q-9 -50 -9 -81q0 -17 3 -38q2 -7 3 -16l2 -6l1 -6h-111q-8 27 -10 62l-5 -4l-5 -5q-7 -7 -13 -12q-18 -14 -36 -24q-50 -29 -108 -29q-64 0 -107 39q-47 42 -47 111q0 95 79 138
q27 14 62 22q13 3 27 5l11 1l9 1q7 1 28 2l19 2l22 2l66 6q15 1 27 5l9 3l7 3l3 11l3 14q3 16 3 31q0 33 -34 49q-13 6 -30 10q-14 2 -28 2q-93 0 -118 -78zM319 239l-24 -3l-12 -2l-11 -2q-25 -3 -31 -4q-14 -2 -27 -7q-17 -6 -29 -14q-32 -23 -32 -62q0 -30 20 -50
q23 -22 62 -22q73 0 116 58q28 38 44 122q-13 -5 -76 -14zM382 725h130l-144 -140h-82z" />
    <glyph glyph-name="acircumflex" unicode="&#xe2;" horiz-adv-x="552" 
d="M97 377q55 153 238 153q90 0 144 -39q52 -37 52 -98q0 -27 -28 -159q-12 -55 -17 -87q-9 -50 -9 -81q0 -17 3 -38q2 -7 3 -16l2 -6l1 -6h-111q-8 27 -10 62l-5 -4l-5 -5q-7 -7 -13 -12q-18 -14 -36 -24q-50 -29 -108 -29q-64 0 -107 39q-47 42 -47 111q0 95 79 138
q27 14 62 22q13 3 27 5l11 1l9 1q7 1 28 2l19 2l22 2l66 6q15 1 27 5l9 3l7 3l3 11l3 14q3 16 3 31q0 33 -34 49q-13 6 -30 10q-14 2 -28 2q-93 0 -118 -78zM319 239l-24 -3l-12 -2l-11 -2q-25 -3 -31 -4q-14 -2 -27 -7q-17 -6 -29 -14q-32 -23 -32 -62q0 -30 20 -50
q23 -22 62 -22q73 0 116 58q28 38 44 122q-13 -5 -76 -14zM292 585h-103l137 140h114l60 -140h-87l-38 87z" />
    <glyph glyph-name="atilde" unicode="&#xe3;" horiz-adv-x="552" 
d="M97 377q55 153 238 153q90 0 144 -39q52 -37 52 -98q0 -27 -28 -159q-12 -55 -17 -87q-9 -50 -9 -81q0 -17 3 -38q2 -7 3 -16l2 -6l1 -6h-111q-8 27 -10 62l-5 -4l-5 -5q-7 -7 -13 -12q-18 -14 -36 -24q-50 -29 -108 -29q-64 0 -107 39q-47 42 -47 111q0 95 79 138
q27 14 62 22q13 3 27 5l11 1l9 1q7 1 28 2l19 2l22 2l66 6q15 1 27 5l9 3l7 3l3 11l3 14q3 16 3 31q0 33 -34 49q-13 6 -30 10q-14 2 -28 2q-93 0 -118 -78zM319 239l-24 -3l-12 -2l-11 -2q-25 -3 -31 -4q-14 -2 -27 -7q-17 -6 -29 -14q-32 -23 -32 -62q0 -30 20 -50
q23 -22 62 -22q73 0 116 58q28 38 44 122q-13 -5 -76 -14zM536 708q-7 -55 -37 -85q-26 -26 -56 -26q-23 0 -89 26q-34 14 -49 14q-32 0 -40 -40h-62q11 50 30 76q25 37 66 37q31 0 89 -24l6 -2l6 -3l14 -5q17 -6 26 -6q25 0 36 38h60z" />
    <glyph glyph-name="adieresis" unicode="&#xe4;" horiz-adv-x="552" 
d="M97 377q55 153 238 153q90 0 144 -39q52 -37 52 -98q0 -27 -28 -159q-12 -55 -17 -87q-9 -50 -9 -81q0 -17 3 -38q2 -7 3 -16l2 -6l1 -6h-111q-8 27 -10 62l-5 -4l-5 -5q-7 -7 -13 -12q-18 -14 -36 -24q-50 -29 -108 -29q-64 0 -107 39q-47 42 -47 111q0 95 79 138
q27 14 62 22q13 3 27 5l11 1l9 1q7 1 28 2l19 2l22 2l66 6q15 1 27 5l9 3l7 3l3 11l3 14q3 16 3 31q0 33 -34 49q-13 6 -30 10q-14 2 -28 2q-93 0 -118 -78zM319 239l-24 -3l-12 -2l-11 -2q-25 -3 -31 -4q-14 -2 -27 -7q-17 -6 -29 -14q-32 -23 -32 -62q0 -30 20 -50
q23 -22 62 -22q73 0 116 58q28 38 44 122q-13 -5 -76 -14zM234 710h105l-22 -110h-106zM426 710h105l-22 -110h-106z" />
    <glyph glyph-name="aring" unicode="&#xe5;" horiz-adv-x="552" 
d="M97 377q55 153 238 153q90 0 144 -39q52 -37 52 -98q0 -27 -28 -159q-12 -55 -17 -87q-9 -50 -9 -81q0 -17 3 -38q2 -7 3 -16l2 -6l1 -6h-111q-8 27 -10 62l-5 -4l-5 -5q-7 -7 -13 -12q-18 -14 -36 -24q-50 -29 -108 -29q-64 0 -107 39q-47 42 -47 111q0 95 79 138
q27 14 62 22q13 3 27 5l11 1l9 1q7 1 28 2l19 2l22 2l66 6q15 1 27 5l9 3l7 3l3 11l3 14q3 16 3 31q0 33 -34 49q-13 6 -30 10q-14 2 -28 2q-93 0 -118 -78zM319 239l-24 -3l-12 -2l-11 -2q-25 -3 -31 -4q-14 -2 -27 -7q-17 -6 -29 -14q-32 -23 -32 -62q0 -30 20 -50
q23 -22 62 -22q73 0 116 58q28 38 44 122q-13 -5 -76 -14zM293 730q26 26 64 26t65 -27q26 -26 26 -64t-27 -65q-26 -27 -64 -27t-64 27q-27 26 -27 65q0 38 27 65zM324 631q13 -13 33 -13q19 0 33 13q14 14 14 34t-14 34q-14 13 -33 13t-33 -14t-14 -33q0 -20 14 -34z" />
    <glyph glyph-name="ae" unicode="&#xe6;" horiz-adv-x="885" 
d="M489 226q-5 -65 25 -107q30 -43 85 -43q14 0 28 3q18 4 34 12q43 23 71 77l106 -13l-5 -9l-5 -11q-7 -14 -15 -25q-21 -33 -50 -58q-71 -64 -166 -64q-84 0 -138 48q-19 16 -35 39q-5 8 -11 17l-4 8l-3 6q-80 -118 -209 -118q-71 0 -116 41t-45 110q0 96 81 137
q29 15 68 23q14 2 31 4l13 2l12 1q107 10 156 21q8 22 8 47q0 41 -30 58q-21 13 -56 13q-58 0 -89 -30q-12 -10 -20 -25l-6 -12q-2 -5 -4 -11l-109 10q23 73 87 114q61 39 144 39q75 0 120 -26q17 -9 29 -22q5 -5 9 -11q3 -4 7 -9q67 68 169 68q109 0 165 -74
q44 -58 44 -142q0 -26 -3 -52q-1 -9 -2 -20l-2 -8l-1 -8h-368zM312 240q-20 -3 -42 -6q-19 -3 -29 -4l-5 -1l-6 -1q-8 -2 -15 -4q-18 -5 -31 -12q-39 -22 -39 -64q0 -30 19 -50q21 -24 61 -24q58 0 101 50q41 49 56 127q-13 -3 -70 -11zM759 302q5 83 -34 118q-15 14 -36 20
q-16 5 -35 5q-46 0 -86 -33q-48 -39 -65 -110h256z" />
    <glyph glyph-name="ccedilla" unicode="&#xe7;" horiz-adv-x="531" 
d="M285 -27q92 -9 92 -80q0 -39 -36 -65q-50 -36 -156 -36q-22 0 -40 2q-6 0 -13 1l-6 1h-4l17 56l24 -1h25q30 0 49 3q53 9 53 40q0 37 -64 37q-4 0 -9 -1l-8 -2q-9 -2 -8 1l18 62q-74 13 -116 70q-42 55 -42 138q0 138 75 232q79 99 207 99q96 0 149 -55q45 -47 47 -118
l-109 -9q-2 56 -39 80q-13 8 -30 12l-14 2h-11q-85 0 -130 -98q-17 -37 -26 -83q-7 -39 -7 -72q0 -55 28 -86q25 -27 65 -27q41 0 78 35q34 33 50 81l111 -16q-25 -72 -78 -122q-61 -58 -138 -64z" />
    <glyph glyph-name="egrave" unicode="&#xe8;" horiz-adv-x="552" 
d="M167 227q-6 -78 32 -120q30 -34 75 -34q35 0 67 19q43 24 68 76l105 -14q-25 -65 -83 -111q-69 -55 -156 -55q-102 0 -163 67q-57 62 -57 160q0 127 75 218q80 97 206 97q103 0 157 -64q49 -59 49 -160q0 -45 -8 -79h-367zM436 303v13q1 10 0 20q-2 27 -10 47
q-23 62 -96 62q-57 0 -97 -42q-37 -38 -52 -100h255zM250 725h120l60 -140h-81z" />
    <glyph glyph-name="eacute" unicode="&#xe9;" horiz-adv-x="552" 
d="M167 227q-6 -78 32 -120q30 -34 75 -34q35 0 67 19q43 24 68 76l105 -14q-25 -65 -83 -111q-69 -55 -156 -55q-102 0 -163 67q-57 62 -57 160q0 127 75 218q80 97 206 97q103 0 157 -64q49 -59 49 -160q0 -45 -8 -79h-367zM436 303v13q1 10 0 20q-2 27 -10 47
q-23 62 -96 62q-57 0 -97 -42q-37 -38 -52 -100h255zM382 725h130l-144 -140h-82z" />
    <glyph glyph-name="ecircumflex" unicode="&#xea;" horiz-adv-x="552" 
d="M167 227q-6 -78 32 -120q30 -34 75 -34q35 0 67 19q43 24 68 76l105 -14q-25 -65 -83 -111q-69 -55 -156 -55q-102 0 -163 67q-57 62 -57 160q0 127 75 218q80 97 206 97q103 0 157 -64q49 -59 49 -160q0 -45 -8 -79h-367zM436 303v13q1 10 0 20q-2 27 -10 47
q-23 62 -96 62q-57 0 -97 -42q-37 -38 -52 -100h255zM292 585h-103l137 140h114l60 -140h-87l-38 87z" />
    <glyph glyph-name="edieresis" unicode="&#xeb;" horiz-adv-x="552" 
d="M167 227q-6 -78 32 -120q30 -34 75 -34q35 0 67 19q43 24 68 76l105 -14q-25 -65 -83 -111q-69 -55 -156 -55q-102 0 -163 67q-57 62 -57 160q0 127 75 218q80 97 206 97q103 0 157 -64q49 -59 49 -160q0 -45 -8 -79h-367zM436 303v13q1 10 0 20q-2 27 -10 47
q-23 62 -96 62q-57 0 -97 -42q-37 -38 -52 -100h255zM234 710h105l-22 -110h-106zM426 710h105l-22 -110h-106z" />
    <glyph glyph-name="igrave" unicode="&#xec;" horiz-adv-x="250" 
d="M146 518h113l-109 -518h-112zM99 725h120l60 -140h-81z" />
    <glyph glyph-name="iacute" unicode="&#xed;" horiz-adv-x="250" 
d="M146 518h113l-109 -518h-112zM231 725h130l-144 -140h-82z" />
    <glyph glyph-name="icircumflex" unicode="&#xee;" horiz-adv-x="250" 
d="M146 518h113l-109 -518h-112zM141 585h-103l137 140h114l60 -140h-87l-38 87z" />
    <glyph glyph-name="idieresis" unicode="&#xef;" horiz-adv-x="250" 
d="M146 518h113l-109 -518h-112zM83 710h105l-22 -110h-106zM275 710h105l-22 -110h-106z" />
    <glyph glyph-name="eth" unicode="&#xf0;" 
d="M432 716q11 -12 31 -37l92 37l20 -48l-82 -34q6 -10 11 -18l12 -24q15 -30 26 -62q31 -87 31 -183q0 -144 -66 -243q-78 -116 -220 -116q-124 0 -185 77q-47 58 -47 143q0 123 73 214q78 96 193 96q51 0 90 -21q14 -8 27 -19l11 -9l9 -9l2 2q-14 68 -51 137l-115 -46
l-20 49l106 43q-31 43 -58 71h110zM425 397q-33 33 -83 33q-80 0 -130 -78q-43 -67 -43 -147q0 -60 30 -94q31 -35 85 -35q80 0 131 84q44 71 44 148q0 55 -34 89z" />
    <glyph glyph-name="ntilde" unicode="&#xf1;" 
d="M147 518h105l-17 -77l2 -2q5 6 10 11q8 6 15 13q20 17 41 30q59 37 120 37q68 0 105 -41q31 -34 31 -82q0 -22 -5 -52l-5 -26l-5 -25l-63 -304h-113l65 313q12 53 12 78q0 24 -18 39t-45 15q-41 0 -78 -24q-31 -19 -53 -49q-20 -27 -35 -74q-5 -18 -10 -38l-4 -17
q-1 -6 -3 -15l-48 -228h-113zM551 708q-7 -55 -37 -85q-26 -26 -56 -26q-23 0 -89 26q-34 14 -49 14q-32 0 -40 -40h-62q11 50 30 76q25 37 66 37q31 0 89 -24l6 -2l6 -3l14 -5q17 -6 26 -6q25 0 36 38h60z" />
    <glyph glyph-name="ograve" unicode="&#xf2;" 
d="M505 473q63 -60 63 -167q0 -132 -77 -222q-81 -96 -212 -96q-90 0 -151 50q-73 60 -73 174q0 118 64 207q79 111 225 111q101 0 161 -57zM199 111q32 -38 84 -38q79 0 129 83q44 72 44 157q0 51 -25 87q-31 45 -91 45q-80 0 -129 -76q-44 -68 -44 -158q0 -63 32 -100z
M265 725h120l60 -140h-81z" />
    <glyph glyph-name="oacute" unicode="&#xf3;" 
d="M505 473q63 -60 63 -167q0 -132 -77 -222q-81 -96 -212 -96q-90 0 -151 50q-73 60 -73 174q0 118 64 207q79 111 225 111q101 0 161 -57zM199 111q32 -38 84 -38q79 0 129 83q44 72 44 157q0 51 -25 87q-31 45 -91 45q-80 0 -129 -76q-44 -68 -44 -158q0 -63 32 -100z
M397 725h130l-144 -140h-82z" />
    <glyph glyph-name="ocircumflex" unicode="&#xf4;" 
d="M505 473q63 -60 63 -167q0 -132 -77 -222q-81 -96 -212 -96q-90 0 -151 50q-73 60 -73 174q0 118 64 207q79 111 225 111q101 0 161 -57zM199 111q32 -38 84 -38q79 0 129 83q44 72 44 157q0 51 -25 87q-31 45 -91 45q-80 0 -129 -76q-44 -68 -44 -158q0 -63 32 -100z
M307 585h-103l137 140h114l60 -140h-87l-38 87z" />
    <glyph glyph-name="otilde" unicode="&#xf5;" 
d="M505 473q63 -60 63 -167q0 -132 -77 -222q-81 -96 -212 -96q-90 0 -151 50q-73 60 -73 174q0 118 64 207q79 111 225 111q101 0 161 -57zM199 111q32 -38 84 -38q79 0 129 83q44 72 44 157q0 51 -25 87q-31 45 -91 45q-80 0 -129 -76q-44 -68 -44 -158q0 -63 32 -100z
M551 708q-7 -55 -37 -85q-26 -26 -56 -26q-23 0 -89 26q-34 14 -49 14q-32 0 -40 -40h-62q11 50 30 76q25 37 66 37q31 0 89 -24l6 -2l6 -3l14 -5q17 -6 26 -6q25 0 36 38h60z" />
    <glyph glyph-name="odieresis" unicode="&#xf6;" 
d="M505 473q63 -60 63 -167q0 -132 -77 -222q-81 -96 -212 -96q-90 0 -151 50q-73 60 -73 174q0 118 64 207q79 111 225 111q101 0 161 -57zM199 111q32 -38 84 -38q79 0 129 83q44 72 44 157q0 51 -25 87q-31 45 -91 45q-80 0 -129 -76q-44 -68 -44 -158q0 -63 32 -100z
M249 710h105l-22 -110h-106zM441 710h105l-22 -110h-106z" />
    <glyph glyph-name="divide" unicode="&#xf7;" 
d="M93 301v104h486v-104h-486zM277 581h118v-118h-118v118zM277 243h118v-118h-118v118z" />
    <glyph glyph-name="oslash" unicode="&#xf8;" 
d="M543 568l49 -40l-58 -70l7 -11l8 -13q9 -16 15 -30q18 -42 18 -100q0 -132 -78 -222q-81 -94 -208 -94q-68 0 -127 31l-58 -70l-48 40l58 70q-29 33 -42 80q-10 35 -10 75q0 117 65 206q80 110 225 110q74 0 126 -31zM423 424q-13 8 -31 14q-20 7 -37 7q-84 0 -133 -80
q-41 -67 -41 -155q0 -40 12 -66zM232 93q36 -20 63 -20q80 0 131 82q44 71 44 157q0 21 -3 37q-2 11 -7 21z" />
    <glyph glyph-name="ugrave" unicode="&#xf9;" 
d="M479 0h-105l17 80l-2 2q-50 -55 -106 -78q-22 -9 -45 -13q-18 -3 -37 -3q-64 0 -101 40q-33 34 -33 83q0 32 16 113l62 294h113l-67 -319q-10 -47 -10 -69q0 -26 19 -42q17 -15 45 -15q48 0 92 35q15 13 28 28l10 12q3 5 6 9q26 40 44 127l49 234h113zM265 725h120
l60 -140h-81z" />
    <glyph glyph-name="uacute" unicode="&#xfa;" 
d="M479 0h-105l17 80l-2 2q-50 -55 -106 -78q-22 -9 -45 -13q-18 -3 -37 -3q-64 0 -101 40q-33 34 -33 83q0 32 16 113l62 294h113l-67 -319q-10 -47 -10 -69q0 -26 19 -42q17 -15 45 -15q48 0 92 35q15 13 28 28l10 12q3 5 6 9q26 40 44 127l49 234h113zM397 725h130
l-144 -140h-82z" />
    <glyph glyph-name="ucircumflex" unicode="&#xfb;" 
d="M479 0h-105l17 80l-2 2q-50 -55 -106 -78q-22 -9 -45 -13q-18 -3 -37 -3q-64 0 -101 40q-33 34 -33 83q0 32 16 113l62 294h113l-67 -319q-10 -47 -10 -69q0 -26 19 -42q17 -15 45 -15q48 0 92 35q15 13 28 28l10 12q3 5 6 9q26 40 44 127l49 234h113zM307 585h-103
l137 140h114l60 -140h-87l-38 87z" />
    <glyph glyph-name="udieresis" unicode="&#xfc;" 
d="M479 0h-105l17 80l-2 2q-50 -55 -106 -78q-22 -9 -45 -13q-18 -3 -37 -3q-64 0 -101 40q-33 34 -33 83q0 32 16 113l62 294h113l-67 -319q-10 -47 -10 -69q0 -26 19 -42q17 -15 45 -15q48 0 92 35q15 13 28 28l10 12q3 5 6 9q26 40 44 127l49 234h113zM249 710h105
l-22 -110h-106zM441 710h105l-22 -110h-106z" />
    <glyph glyph-name="yacute" unicode="&#xfd;" horiz-adv-x="531" 
d="M15 -105l9 -2l11 -3q14 -2 29 -2q31 0 49 15q21 17 51 69l15 27l-88 519h111l38 -260q13 -96 15 -148h2q13 39 36 79l181 329h118l-325 -578q-44 -78 -72 -105q-45 -45 -109 -45q-24 0 -49 5q-9 1 -18 3l-7 2l-6 2zM371 725h130l-144 -140h-82z" />
    <glyph glyph-name="thorn" unicode="&#xfe;" 
d="M185 716h113l-52 -249l2 -2q12 12 23 21q15 12 32 21q42 23 91 23q93 0 140 -77q36 -59 36 -141q0 -129 -76 -226q-76 -98 -181 -98q-101 0 -150 89l-57 -275h-113zM234 101q15 -13 35 -20q16 -5 33 -5q75 0 120 91q36 73 36 153q0 48 -23 82q-28 43 -80 43
q-73 0 -120 -84q-40 -72 -40 -153q0 -72 39 -107z" />
    <glyph glyph-name="ydieresis" unicode="&#xff;" horiz-adv-x="531" 
d="M15 -105l9 -2l11 -3q14 -2 29 -2q31 0 49 15q21 17 51 69l15 27l-88 519h111l38 -260q13 -96 15 -148h2q13 39 36 79l181 329h118l-325 -578q-44 -78 -72 -105q-45 -45 -109 -45q-24 0 -49 5q-9 1 -18 3l-7 2l-6 2zM223 710h105l-22 -110h-106zM415 710h105l-22 -110
h-106z" />
    <glyph glyph-name="dotlessi" unicode="&#x131;" horiz-adv-x="250" 
d="M146 518h113l-109 -518h-112z" />
    <glyph glyph-name="Lslash" unicode="&#x141;" 
d="M14 232l20 98l91 50l71 336h120l-55 -262l186 103l-20 -97l-187 -103l-53 -258h367l-21 -99h-487l59 282z" />
    <glyph glyph-name="lslash" unicode="&#x142;" horiz-adv-x="250" 
d="M22 256l17 84l73 38l71 338h113l-57 -272l65 34l-17 -84l-66 -35l-75 -359h-113l61 294z" />
    <glyph glyph-name="OE" unicode="&#x152;" horiz-adv-x="1000" 
d="M1060 716l-20 -99h-318l-41 -196h315l-21 -99h-314l-47 -223h352l-21 -99h-468l12 53l-2 2q-27 -30 -57 -45q-43 -22 -101 -22q-118 0 -187 84q-67 81 -67 214q0 188 103 316q102 126 253 126h13l18 -2q24 -3 46 -11q64 -24 101 -82l18 83h433zM216 153q40 -66 127 -66
h13q9 1 17 2q24 4 45 14q62 30 95 110q6 14 15 45q10 35 19 72q23 97 23 152q0 56 -37 99q-42 48 -107 48q-107 0 -176 -115q-63 -105 -63 -239q0 -74 29 -122z" />
    <glyph glyph-name="oe" unicode="&#x153;" horiz-adv-x="948" 
d="M559 226q-5 -84 36 -124q15 -16 36 -23q16 -6 33 -6q35 0 69 22q40 26 62 73l107 -14q-38 -77 -102 -122q-64 -44 -139 -44h-10q-8 0 -16 1q-24 3 -46 10q-67 22 -104 79q-81 -90 -203 -90q-101 0 -163 64q-59 61 -59 156q0 135 73 225q80 97 214 97q126 0 182 -86
q86 86 197 86q99 0 155 -67q49 -60 49 -152q0 -44 -10 -85h-361zM204 108q31 -33 78 -33q87 0 135 88q38 69 38 153q0 51 -28 87q-31 42 -85 42q-86 0 -134 -93q-18 -36 -28 -80q-8 -38 -8 -71q0 -58 32 -93zM824 302q3 36 -3 63q-10 45 -45 67q-13 8 -30 12q-13 3 -26 3
q-60 0 -100 -49q-20 -24 -32 -53q-5 -11 -9 -23l-3 -11l-3 -9h251z" />
    <glyph glyph-name="Scaron" unicode="&#x160;" horiz-adv-x="667" 
d="M182 240q-7 -153 162 -153q101 0 141 50q12 16 17 36q2 7 3 14v7q0 40 -37 68q-26 20 -104 53q-107 45 -147 78q-64 53 -64 135q0 92 70 147q69 53 183 53q108 0 177 -45q54 -36 76 -94q15 -42 14 -77l-116 -7q1 61 -43 94q-41 30 -109 30h-16q-11 -1 -21 -2
q-25 -4 -45 -12q-54 -23 -54 -77q0 -37 34 -63q27 -22 108 -55q114 -48 157 -84q57 -50 57 -128q0 -94 -74 -155q-79 -65 -207 -65q-58 0 -107 12q-68 18 -111 57q-38 35 -52 98q-5 21 -6 46q-1 8 -2 18v13zM514 905h103l-137 -140h-114l-60 140h87l38 -87z" />
    <glyph glyph-name="scaron" unicode="&#x161;" horiz-adv-x="531" 
d="M144 175q7 -66 58 -91q17 -8 38 -11q7 -1 15 -2h9q41 0 71 14q40 18 40 55q0 23 -22 39q-23 17 -90 42l-28 11l-27 11q-30 14 -50 30q-50 38 -50 99q0 85 80 128q25 14 53 21q36 9 82 9q90 0 144 -43q50 -40 59 -108l-106 -13q-8 52 -59 71q-17 7 -36 9q-7 1 -14 1h-7
q-40 0 -65 -16t-25 -41q0 -23 23 -38q19 -13 75 -33q92 -33 131 -64q48 -39 48 -99q0 -65 -54 -113q-62 -55 -167 -55q-109 0 -172 48q-60 46 -64 126zM426 725h103l-137 -140h-114l-60 140h87l38 -87z" />
    <glyph glyph-name="Ydieresis" unicode="&#x178;" horiz-adv-x="667" 
d="M326 278l-210 438h128l98 -206q21 -45 36 -79q11 -26 19 -48q38 67 105 153l136 180h141l-335 -449l-56 -267h-120zM331 890h105l-22 -110h-106zM523 890h105l-22 -110h-106z" />
    <glyph glyph-name="Zcaron" unicode="&#x17d;" horiz-adv-x="615" 
d="M41 91l383 454q1 2 5 6l4 5l4 4q11 13 19 23q25 31 31 37q-15 -1 -38 -2q-21 -1 -38 -1h-285l21 99h504l-14 -93l-399 -470q-13 -16 -29 -34q-17 -20 -19 -22q27 1 70 2h328l-21 -99h-542zM488 905h103l-137 -140h-114l-60 140h87l38 -87z" />
    <glyph glyph-name="zcaron" unicode="&#x17e;" horiz-adv-x="500" 
d="M35 81l282 314q27 29 35 34l-2 2l-11 -1l-11 -1q-15 -1 -24 -1h-211l19 90h403l-14 -68l-289 -324q-1 -1 -12 -13l-6 -6l-6 -6l-13 -14q33 3 53 3h229l-18 -90h-421zM411 725h103l-137 -140h-114l-60 140h87l38 -87z" />
    <glyph glyph-name="florin" unicode="&#x192;" horiz-adv-x="552" 
d="M30 -113q24 -5 40 -7q23 -4 39 -4q32 0 45 23q8 15 15 56l80 469h-98l14 85h99l10 55q15 80 35 108q34 47 117 47q34 0 68 -6q13 -3 27 -7q10 -2 22 -6l-21 -91q-25 6 -40 8q-22 4 -38 4q-29 0 -42 -18q-10 -13 -18 -54l-8 -40h100l-14 -85h-100l-89 -506
q-12 -71 -40 -101q-34 -36 -105 -36q-33 0 -68 5q-24 4 -52 11z" />
    <glyph glyph-name="circumflex" unicode="&#x2c6;" horiz-adv-x="333" 
d="M182 583h-103l137 140h114l60 -140h-87l-38 87z" />
    <glyph glyph-name="caron" unicode="&#x2c7;" horiz-adv-x="333" 
d="M327 723h103l-137 -140h-114l-60 140h87l38 -87z" />
    <glyph glyph-name="uni02C9" unicode="&#x2c9;" horiz-adv-x="333" 
d="M115 691h307l-17 -80h-307z" />
    <glyph glyph-name="breve" unicode="&#x2d8;" horiz-adv-x="333" 
d="M173 716l2 -10l3 -11q5 -13 12 -23q20 -26 60 -26q66 0 98 70h61q-14 -51 -50 -87q-46 -47 -113 -47q-66 0 -102 44q-29 35 -34 90h63z" />
    <glyph glyph-name="dotaccent" unicode="&#x2d9;" horiz-adv-x="333" 
d="M211 712h124l-24 -118h-124z" />
    <glyph glyph-name="ring" unicode="&#x2da;" horiz-adv-x="333" 
d="M183 728q26 26 64 26t65 -27q26 -26 26 -64t-27 -65q-26 -27 -64 -27t-64 27q-27 26 -27 65q0 38 27 65zM214 629q13 -13 33 -13q19 0 33 13q14 14 14 34t-14 34q-14 13 -33 13t-33 -14t-14 -33q0 -20 14 -34z" />
    <glyph glyph-name="ogonek" unicode="&#x2db;" horiz-adv-x="333" 
d="M157 11q-27 -61 -27 -99q0 -27 19 -40q14 -10 33 -10t44 6q17 4 42 13l-13 -60l-8 -4l-10 -5q-12 -5 -24 -9q-30 -10 -63 -10q-48 0 -71 29q-18 23 -18 59q0 37 12 76q5 15 11 30q5 11 11 24h62z" />
    <glyph glyph-name="tilde" unicode="&#x2dc;" horiz-adv-x="333" 
d="M426 706q-7 -55 -37 -85q-26 -26 -56 -26q-23 0 -89 26q-34 14 -49 14q-32 0 -40 -40h-62q11 50 30 76q25 37 66 37q31 0 89 -24l6 -2l6 -3l14 -5q17 -6 26 -6q25 0 36 38h60z" />
    <glyph glyph-name="hungarumlaut" unicode="&#x2dd;" horiz-adv-x="333" 
d="M114 723h130l-144 -140h-82zM295 723h130l-144 -140h-82z" />
    <glyph glyph-name="uni03A9" unicode="&#x3a9;" horiz-adv-x="710" 
d="M408 0v95q52 50 80 104q41 78 41 174q0 107 -45 170q-48 67 -133 67q-83 0 -134 -67q-50 -65 -50 -172q0 -95 40 -172q29 -55 82 -104v-95h-245v95h146q-28 23 -49 45q-28 30 -48 63q-51 84 -51 192q0 138 86 227q87 90 225 90q142 0 224 -89q78 -86 78 -225
q0 -185 -150 -303h149v-95h-246z" />
    <glyph glyph-name="uni03BC" unicode="&#x3bc;" 
d="M253 518l-51 -241q-17 -85 -17 -116q0 -36 25 -60q25 -25 64 -25q67 0 103 61q13 22 22 54q4 12 8 27l2 13l3 12l58 275h111l-109 -518h-101l9 42l-2 2l-9 -9l-10 -9q-13 -11 -25 -18q-33 -20 -72 -20q-42 0 -73 23q-11 9 -21 21l-8 11l-6 9l-53 -252h-112l152 718h112z
" />
    <glyph glyph-name="pi" unicode="&#x3c0;" horiz-adv-x="653" 
d="M614 11q-35 -20 -87 -20q-71 0 -106 46q-31 39 -31 105v272h-118v-267q0 -93 -17 -147h-119q19 63 19 156v258q-53 0 -94 -24l-16 38l-16 38q24 14 63 23q44 11 93 11h423v-86h-100v-257q0 -80 53 -80q9 0 18 3l7 3l7 3z" />
    <glyph glyph-name="endash" unicode="&#x2013;" horiz-adv-x="500" 
d="M533 295v-90h-512v90h512z" />
    <glyph glyph-name="emdash" unicode="&#x2014;" horiz-adv-x="1000" 
d="M1033 295v-90h-1012v90h1012z" />
    <glyph glyph-name="quoteleft" unicode="&#x2018;" horiz-adv-x="250" 
d="M240 461h-119l20 99q6 31 14 54q11 30 27 52q39 55 114 62l-11 -51l-10 -3l-10 -4q-12 -6 -22 -15q-26 -25 -37 -77h59z" />
    <glyph glyph-name="quoteright" unicode="&#x2019;" horiz-adv-x="250" 
d="M182 716h119l-20 -99q-6 -31 -14 -54q-11 -30 -27 -52q-39 -55 -114 -62l11 51l10 3l10 4q12 6 22 16q26 24 37 76h-59z" />
    <glyph glyph-name="quotesinglbase" unicode="&#x201a;" horiz-adv-x="250" 
d="M58 117h119l-20 -99q-6 -31 -14 -54q-11 -30 -27 -52q-39 -55 -114 -62l11 51l10 3l10 4q12 6 22 16q26 24 37 76h-59z" />
    <glyph glyph-name="quotedblleft" unicode="&#x201c;" horiz-adv-x="417" 
d="M237 461h-119l20 99q6 31 14 54q11 30 27 52q39 55 114 62l-11 -51l-10 -3l-10 -4q-12 -6 -22 -15q-26 -25 -37 -77h59zM432 461h-119l20 99q6 31 14 54q11 30 27 52q39 55 114 62l-11 -51l-10 -3l-10 -4q-12 -6 -22 -15q-26 -25 -37 -77h59z" />
    <glyph glyph-name="quotedblright" unicode="&#x201d;" horiz-adv-x="417" 
d="M370 716h119l-20 -99q-6 -31 -14 -54q-11 -30 -27 -52q-39 -55 -114 -62l11 51l10 3l10 4q12 6 22 16q26 24 37 76h-59zM175 716h119l-20 -99q-6 -31 -14 -54q-11 -30 -27 -52q-39 -55 -114 -62l11 51l10 3l10 4q12 6 22 16q26 24 37 76h-59z" />
    <glyph glyph-name="quotedblbase" unicode="&#x201e;" horiz-adv-x="417" 
d="M245 117h119l-20 -99q-6 -31 -14 -54q-11 -30 -27 -52q-39 -55 -114 -62l11 51l10 3l10 4q12 6 22 16q26 24 37 76h-59zM50 117h119l-20 -99q-6 -31 -14 -54q-11 -30 -27 -52q-39 -55 -114 -62l11 51l10 3l10 4q12 6 22 16q26 24 37 76h-59z" />
    <glyph glyph-name="dagger" unicode="&#x2020;" horiz-adv-x="552" 
d="M262 -171h-109l123 586h-188l19 90h188l42 201h109l-42 -201h186l-19 -90h-186z" />
    <glyph glyph-name="daggerdbl" unicode="&#x2021;" horiz-adv-x="552" 
d="M319 95h186l-19 -90h-186l-37 -176h-109l37 176h-189l19 90h189l72 344h-189l19 90h188l38 177h109l-38 -177h187l-20 -90h-185z" />
    <glyph glyph-name="bullet" unicode="&#x2022;" horiz-adv-x="354" 
d="M315 446q39 -39 39 -94t-39 -95q-39 -39 -94 -39t-95 39q-39 40 -39 95t39 94t95 39q55 0 94 -39z" />
    <glyph glyph-name="ellipsis" unicode="&#x2026;" horiz-adv-x="1000" 
d="M799 117h118l-25 -117h-118zM466 117h118l-25 -117h-118zM133 117h118l-25 -117h-118z" />
    <glyph glyph-name="perthousand" unicode="&#x2030;" horiz-adv-x="1000" 
d="M148 462q2 -11 6 -19q10 -21 36 -21q46 0 73 80q9 28 15 62q4 27 4 43q0 19 -9 33q-12 18 -35 18q-44 0 -71 -73q-10 -27 -15 -59q-5 -28 -5 -47q0 -9 1 -17zM559 728h87l-466 -755h-84zM68 506q2 15 4 31q8 45 24 82q47 109 148 109q73 0 104 -56q10 -19 15 -43
q2 -9 2 -18q1 -6 1 -12q0 -29 -8 -66q-9 -45 -27 -81q-49 -100 -144 -100q-51 0 -82 30q-38 35 -38 105q0 7 1 19zM378 128q2 15 4 31q8 45 24 82q47 109 148 109q73 0 104 -56q10 -19 15 -43q2 -9 2 -18q1 -6 1 -12q0 -29 -8 -65q-9 -46 -27 -82q-49 -100 -144 -100
q-51 0 -82 29q-38 35 -38 106q0 7 1 19zM458 85q2 -11 6 -19q10 -22 36 -22q46 0 73 79q9 29 15 62q4 27 4 44q0 19 -9 33q-11 18 -34 18q-39 0 -67 -60q-25 -55 -25 -118q0 -10 1 -17zM714 128q1 16 4 32q8 45 24 81q47 109 148 109q73 0 104 -55q10 -19 15 -43q2 -9 2 -18
q1 -6 1 -12q0 -30 -8 -66q-9 -46 -27 -82q-49 -100 -144 -100q-50 0 -81 29q-39 35 -39 106q0 7 1 19zM794 84q2 -11 6 -19q11 -21 37 -21q45 0 72 79q9 28 15 62q4 27 4 44q0 19 -9 33q-11 18 -34 18q-46 0 -73 -77q-9 -27 -15 -60q-4 -26 -4 -42q0 -9 1 -17z" />
    <glyph glyph-name="guilsinglleft" unicode="&#x2039;" horiz-adv-x="333" 
d="M235 35h-85l-97 234l193 209h96l-175 -219z" />
    <glyph glyph-name="guilsinglright" unicode="&#x203a;" horiz-adv-x="333" 
d="M120 478h85l97 -234l-193 -209h-96l175 219z" />
    <glyph glyph-name="fraction" unicode="&#x2044;" horiz-adv-x="167" 
d="M-255 -30l669 756h85l-673 -756h-81z" />
    <glyph glyph-name="Euro" unicode="&#x20ac;" horiz-adv-x="552" 
d="M582 591q-24 19 -56 28q-31 10 -74 10q-41 0 -83 -20q-41 -22 -71 -58t-52 -87h298l-21 -80h-302q-5 -23 -8 -60h297l-21 -80h-274q11 -76 50 -120q40 -46 98 -46q31 0 63 8q32 10 54 23q25 14 52 36l-18 -116q-27 -19 -73 -30q-43 -11 -84 -11q-73 0 -129 30
q-57 32 -91 89q-34 58 -42 137h-66l21 80h43q1 14 3 32l1 14l2 14h-70l21 80h69q25 74 74 134q51 58 115 89q64 32 143 32q44 0 73 -7q35 -8 55 -16q20 -9 35 -16z" />
    <glyph glyph-name="uni2113" unicode="&#x2113;" horiz-adv-x="493" 
d="M351 5q-40 -20 -79 -20q-59 0 -95 36q-41 41 -41 130v80l-27 -28l-27 -28q-24 34 -35 52l44 46l45 46v213q0 95 40 147q37 49 103 49q57 0 87 -40q24 -32 24 -78q0 -118 -116 -258l-8 -10l-9 -10q-10 -13 -15 -18v-153q0 -94 59 -94q20 0 42 14q15 10 33 28l33 -63
q-27 -25 -58 -41zM288 645q-46 0 -46 -97v-141l4 5l4 5q5 7 8 12q65 87 65 168q0 48 -35 48z" />
    <glyph glyph-name="trademark" unicode="&#x2122;" horiz-adv-x="1000" 
d="M235 652h-127v64h325v-64h-125v-335h-73v335zM479 716h111l87 -298h2l85 298h110v-399h-68v327h-2l-93 -327h-67l-95 329h-2v-329h-68v399z" />
    <glyph glyph-name="Omega" unicode="&#x2126;" horiz-adv-x="710" 
d="M408 0v95q52 50 80 104q41 78 41 174q0 107 -45 170q-48 67 -133 67q-83 0 -134 -67q-50 -65 -50 -172q0 -95 40 -172q29 -55 82 -104v-95h-245v95h146q-28 23 -49 45q-28 30 -48 63q-51 84 -51 192q0 138 86 227q87 90 225 90q142 0 224 -89q78 -86 78 -225
q0 -185 -150 -303h149v-95h-246z" />
    <glyph glyph-name="estimated" unicode="&#x212e;" horiz-adv-x="661" 
d="M161 284v-195q64 -64 156 -64q132 0 210 129l36 -21q-49 -72 -101 -106q-61 -39 -145 -39q-125 0 -202 87q-75 83 -75 210t74 210q78 86 204 86q128 0 205 -86q73 -82 77 -211h-439zM475 479q-66 66 -158 66t-156 -64v-159h314v157z" />
    <glyph glyph-name="partialdiff" unicode="&#x2202;" horiz-adv-x="576" 
d="M520 280q-34 -125 -102 -202q-77 -89 -180 -89q-88 0 -142 55q-55 55 -55 142q0 142 83 229q74 79 175 79q44 0 79 -19q32 -17 46 -43h2q4 38 4 60q0 73 -34 112q-34 38 -94 38q-50 0 -94 -26l-12 39l-13 39q55 36 136 36q104 0 163 -67q61 -69 61 -193q0 -93 -23 -190z
M318 413q-64 0 -111 -67q-49 -69 -49 -166q0 -47 22 -74q22 -28 59 -28q62 0 110 78q45 72 64 185q-24 72 -95 72z" />
    <glyph glyph-name="Delta" unicode="&#x2206;" horiz-adv-x="608" 
d="M24 0v51q96 286 220 649h159l109 -324l108 -325v-51h-596zM481 96q-61 184 -145 445q-5 17 -10 35q-2 7 -3 15l-2 6l-1 5h-4q-1 -8 -5 -25l-5 -16l-4 -18q-48 -149 -146 -447h325z" />
    <glyph glyph-name="product" unicode="&#x220f;" horiz-adv-x="719" 
d="M523 -230v828h-328v-828h-118v930h565v-930h-119z" />
    <glyph glyph-name="summation" unicode="&#x2211;" horiz-adv-x="631" 
d="M23 -230v61l147 204l146 204q-144 210 -274 394v67h513v-95h-369l252 -363l-134 -188l-134 -189h406v-95h-553z" />
    <glyph glyph-name="minus" unicode="&#x2212;" 
d="M93 301v104h486v-104h-486z" />
    <glyph glyph-name="uni2215" unicode="&#x2215;" horiz-adv-x="167" 
d="M-255 -30l669 756h85l-673 -756h-81z" />
    <glyph glyph-name="uni2219" unicode="&#x2219;" horiz-adv-x="281" 
d="M131 411h118l-25 -117h-118z" />
    <glyph glyph-name="radical" unicode="&#x221a;" horiz-adv-x="513" 
d="M520 729q-60 -247 -178 -741h-95l-63 157l-63 157q-18 -11 -54 -35q-24 40 -37 60l71 46l71 47l61 -154l60 -154l74 308l73 309h80z" />
    <glyph glyph-name="infinity" unicode="&#x221e;" horiz-adv-x="783" 
d="M689 169q-48 -51 -123 -51q-112 0 -179 105h-2q-72 -105 -176 -105q-73 0 -122 45q-52 48 -52 128q0 79 52 127q49 46 120 46q109 0 178 -105h2q27 42 67 70q51 35 109 35q75 0 125 -48q49 -48 49 -122q0 -76 -48 -125zM624 357q-24 27 -68 27q-67 0 -126 -92
q52 -94 127 -94q43 0 67 29q22 26 22 66q0 39 -22 64zM215 384q-42 0 -66 -28q-23 -26 -23 -65q0 -40 25 -66q26 -27 65 -27q70 0 126 94q-57 92 -127 92z" />
    <glyph glyph-name="integral" unicode="&#x222b;" horiz-adv-x="491" 
d="M367 660q-72 0 -72 -90v-611q0 -88 -42 -138q-44 -53 -129 -53q-52 0 -82 14l11 42l10 42q19 -8 43 -8q72 0 72 89v611q0 88 42 138q45 54 131 54q22 0 48 -5q24 -4 34 -10l-11 -41l-12 -42q-20 8 -43 8z" />
    <glyph glyph-name="approxequal" unicode="&#x2248;" 
d="M393 331q-59 0 -108 31q-52 32 -90 32q-26 0 -49 -23q-9 -9 -18 -22q-6 -9 -13 -21l-69 78q65 92 145 92q56 0 107 -30q54 -33 91 -33q25 0 48 22q15 14 33 44l68 -78q-62 -92 -145 -92zM393 98q-59 0 -108 31q-52 32 -90 32q-26 0 -49 -23q-9 -9 -18 -22q-6 -9 -13 -21
l-69 78q65 92 145 92q55 0 107 -31q55 -32 91 -32q26 0 48 21q16 15 33 45l68 -79q-61 -91 -145 -91z" />
    <glyph glyph-name="notequal" unicode="&#x2260;" 
d="M275 130l-47 -106h-114l47 106h-83v104h128l58 130h-186v104h232l54 123h114l-54 -123h82v-104h-128l-58 -130h186v-104h-231z" />
    <glyph glyph-name="lessequal" unicode="&#x2264;" 
d="M78 0v104h428v-104h-428zM78 320v96l428 177v-109l-298 -116v-2l298 -116v-107z" />
    <glyph glyph-name="greaterequal" unicode="&#x2265;" 
d="M78 0v104h428v-104h-428zM78 143v109l298 116v2l-298 116v107l428 -177v-96z" />
    <glyph glyph-name="lozenge" unicode="&#x25ca;" horiz-adv-x="559" 
d="M394 175l-100 -175h-56l-99 175l-100 174l100 176l99 175h56l100 -175l99 -175zM336 474l-70 123q-72 -129 -140 -247l70 -124l70 -124l70 124l70 124z" />
    </font>
</defs>
</svg>
