<?xml version="1.0" standalone="no"?>
<!DOCTYPE svg PUBLIC "-//W3C//DTD SVG 1.1//EN" "http://www.w3.org/Graphics/SVG/1.1/DTD/svg11.dtd" >
<svg xmlns="http://www.w3.org/2000/svg" xmlns:xlink="http://www.w3.org/1999/xlink" version="1.1">
<metadata>
Created by FontForge 20170731 at Thu Feb 11 17:35:50 2016
 By Aleksey,,,
Digitized Data (c) 1990 The Monotype Corporation.  All rights reserved.
</metadata>
<defs>
<font id="ArialMT-LightItalic" horiz-adv-x="556" >
  <font-face 
    font-family="Arial MT Light"
    font-weight="400"
    font-style="italic"
    font-stretch="normal"
    units-per-em="1000"
    panose-1="2 11 3 2 3 4 3 9 2 4"
    ascent="726"
    descent="-274"
    x-height="518"
    cap-height="716"
    bbox="-224 -230 1044 928"
    underline-thickness="50"
    underline-position="-150"
    slope="-12"
    unicode-range="U+0020-FB02"
  />
<missing-glyph horiz-adv-x="600" 
d="M62 665h475v-665h-475v665zM300 375l161 243h-323zM110 91q0 -1 161 242l-161 242v-484zM328 333l162 -243v485zM300 290l-162 -242h323z" />
    <glyph glyph-name="uniFB01" unicode="fi" horiz-adv-x="500" 
d="M342 518l-9 -44h-109l-103 -474h-61l103 474h-83l9 44h82l18 79q6 27 13 45q9 25 22 42q35 44 101 44q31 0 55 -4q10 -2 19 -4l8 -2l7 -2l-11 -51l-7 1l-8 2q-9 1 -17 3q-23 3 -43 3q-60 0 -77 -74l-19 -82h110zM496 518l-110 -518h-61l110 518h61zM538 716l-19 -94h-61
l19 94h61z" />
    <glyph glyph-name="uniFB02" unicode="fl" horiz-adv-x="500" 
d="M342 518l-9 -44h-109l-103 -474h-61l103 474h-83l9 44h82l18 79q6 27 13 45q9 25 22 42q35 44 101 44q31 0 55 -4q10 -2 19 -4l8 -2l7 -2l-11 -51l-7 1l-8 2q-9 1 -17 3q-23 3 -43 3q-60 0 -77 -74l-19 -82h110zM538 716l-152 -716h-61l152 716h61z" />
    <glyph glyph-name=".notdef" horiz-adv-x="600" 
d="M62 665h475v-665h-475v665zM300 375l161 243h-323zM110 91q0 -1 161 242l-161 242v-484zM328 333l162 -243v485zM300 290l-162 -242h323z" />
    <glyph glyph-name=".null" horiz-adv-x="0" 
 />
    <glyph glyph-name="nonmarkingreturn" unicode=" " horiz-adv-x="278" 
 />
    <glyph glyph-name="exclam" unicode="!" horiz-adv-x="333" 
d="M310 716l-32 -164l-96 -372h-40l55 372l37 164h76zM186 95l-20 -95h-86l22 95h84z" />
    <glyph glyph-name="quotedbl" unicode="&#x22;" horiz-adv-x="278" 
d="M356 716l-25 -117l-40 -131h-45l13 131l25 117h72zM223 716l-25 -117l-40 -131h-45l13 131l25 117h72z" />
    <glyph glyph-name="numbersign" unicode="#" 
d="M297 698l-43 -204h189l44 204h47l-43 -204h81v-45h-90l-39 -194h129v-45h-141l-44 -203h-43l43 203h-192l-44 -203h-44l44 203h-84v45h92l40 194h-132v45h142l42 204h46zM245 449l-41 -194h191l40 194h-190z" />
    <glyph glyph-name="dollar" unicode="$" 
d="M423 762l-9 -44q65 -15 98 -43q44 -38 56 -116h-61l-1 6l-2 6q-2 8 -4 15q-6 19 -15 33q-26 40 -81 50l-59 -274l12 -5l13 -5q16 -6 29 -12q34 -16 58 -36q66 -52 66 -131q0 -50 -25 -98q-28 -52 -76 -83q-41 -26 -90 -34q-18 -3 -40 -3h-33l-16 -82h-38l19 87
q-66 13 -109 54q-56 52 -66 146l61 4l1 -9l2 -10q2 -12 5 -21q6 -25 18 -44q30 -51 100 -69l63 308l-10 4l-11 6q-14 6 -25 12q-31 17 -53 36q-61 53 -61 128q0 70 52 123q65 67 186 62l9 39h37zM367 674q-78 4 -126 -35q-44 -36 -44 -94q0 -54 39 -90q15 -14 37 -27l19 -10
l18 -9zM270 39q102 -5 156 56q20 23 30 55q9 26 9 50q0 55 -38 88q-27 24 -93 50z" />
    <glyph glyph-name="percent" unicode="%" horiz-adv-x="889" 
d="M245 686q-50 0 -85 -61q-32 -58 -32 -133q0 -57 30 -83q11 -9 25 -14q11 -3 22 -3q48 0 81 53q34 57 34 148q0 93 -75 93zM325 422q-48 -71 -121 -71q-51 0 -85 33q-41 40 -41 119q0 87 46 153q49 72 123 72q73 0 104 -59q11 -22 16 -49l2 -22q1 -9 1 -18q0 -91 -45 -158
zM742 728l-527 -756h-57l526 756h58zM697 307q-51 0 -85 -61q-32 -57 -32 -133q0 -57 30 -83q11 -9 25 -14q11 -3 22 -3q48 0 81 53q34 57 34 148q0 93 -75 93zM777 43q-48 -71 -121 -71q-51 0 -85 33q-41 40 -41 119q0 88 47 155q50 70 122 70q73 0 104 -59q11 -22 16 -49
l2 -22q1 -9 1 -18q0 -91 -45 -158z" />
    <glyph glyph-name="ampersand" unicode="&#x26;" horiz-adv-x="667" 
d="M638 256q-17 -37 -48 -80q-11 -16 -23 -31q-9 -11 -16 -19q48 -60 91 -95l-52 -43q-23 20 -53 53l-20 24q-4 4 -7 8q-3 3 -5 6q-116 -91 -213 -91q-101 0 -160 62q-54 56 -54 136q0 93 80 161q28 24 68 46q14 8 32 16l14 6l13 6q-43 80 -43 144q0 78 55 124q47 39 112 39
q70 0 113 -40q40 -37 40 -90q0 -70 -79 -130q-28 -22 -65 -41q-14 -7 -29 -14l-12 -6q-4 -2 -10 -4q30 -62 83 -139q18 -27 38 -55q8 -10 15 -20l6 -8l5 -6q38 50 70 110zM392 474q29 17 51 34q58 45 58 90q0 29 -19 49q-25 27 -75 27q-58 0 -84 -42q-9 -15 -14 -34
q-1 -8 -2 -15t-1 -12v-6q0 -5 1 -9q1 -12 4 -26q9 -37 32 -80q26 11 49 24zM197 306q-55 -50 -55 -112t42 -106q44 -46 114 -46q74 0 170 84q-42 53 -91 130q-42 66 -68 118q-73 -32 -112 -68z" />
    <glyph glyph-name="quotesingle" unicode="'" horiz-adv-x="222" 
d="M261 716l-25 -117l-40 -131h-45l13 131l25 117h72z" />
    <glyph glyph-name="parenleft" unicode="(" horiz-adv-x="333" 
d="M403 728q-140 -155 -202 -342q-23 -72 -34 -145q-9 -57 -9 -111q0 -27 3 -63q3 -42 10 -85q16 -112 48 -192h-46l-5 12l-5 13q-6 16 -11 31q-15 40 -25 78q-29 108 -29 209q0 146 58 294q69 177 203 301h44z" />
    <glyph glyph-name="parenright" unicode=")" horiz-adv-x="333" 
d="M-41 -210q140 155 202 341q23 72 34 145q9 58 9 112q0 26 -3 62q-3 43 -9 86q-17 112 -49 192h45q6 -13 10 -25q6 -15 12 -31q14 -39 25 -78q29 -108 29 -210q0 -145 -58 -293q-69 -177 -203 -301h-44z" />
    <glyph glyph-name="asterisk" unicode="*" horiz-adv-x="389" 
d="M304 728l-3 -67l-5 -66l59 27l60 24l17 -51l-62 -17l-62 -15l85 -100l-43 -32l-37 54l-36 57l-67 -111l-44 32l39 50l44 50l-65 15l-62 17l18 51l60 -24l60 -27l-6 66l-5 67h55z" />
    <glyph glyph-name="plus" unicode="+" horiz-adv-x="660" 
d="M388 614v-239h239v-46h-239v-239h-46v239h-239v46h239v239h46z" />
    <glyph glyph-name="comma" unicode="," horiz-adv-x="278" 
d="M204 95l-20 -95q-14 -64 -41 -96q-11 -12 -26 -21l-12 -8l-13 -6l-16 36q35 17 47 34q11 16 19 61h-44l21 95h85z" />
    <glyph glyph-name="hyphen" unicode="-" horiz-adv-x="333" 
d="M330 286l-12 -55h-266l11 55h267z" />
    <glyph glyph-name="period" unicode="." horiz-adv-x="278" 
d="M204 95l-20 -95h-86l21 95h85z" />
    <glyph glyph-name="slash" unicode="/" horiz-adv-x="278" 
d="M322 716l-231 -734h-47l232 734h46z" />
    <glyph glyph-name="zero" unicode="0" 
d="M549 353q-16 -89 -47 -162q-84 -203 -241 -203q-91 0 -140 76q-42 65 -42 162q0 59 14 134q17 90 49 163q84 196 237 196q84 0 134 -66q49 -66 49 -180q0 -50 -13 -120zM464 627q-34 45 -87 45q-111 0 -180 -168q-57 -138 -57 -291q0 -82 35 -130q34 -48 89 -48
q111 0 180 168q57 138 57 290q0 85 -37 134z" />
    <glyph glyph-name="one" unicode="1" 
d="M304 0h-61l123 574l-2 2q-71 -60 -209 -104l12 52q124 50 193 112q25 22 44 47q6 9 13 20l5 8l5 8h31z" />
    <glyph glyph-name="two" unicode="2" 
d="M113 530q22 107 98 155q29 19 65 27q28 7 58 7q90 0 149 -58q54 -54 54 -127q0 -66 -54 -128q-38 -44 -155 -137q-57 -43 -96 -76q-53 -45 -79 -77q-19 -23 -32 -60h351l-12 -56h-419q17 86 65 146q45 57 169 151q115 87 155 134q43 51 43 105q0 58 -41 95
q-41 38 -104 38q-77 0 -120 -61q-15 -22 -25 -50q-4 -11 -7 -23l-3 -9l-2 -8z" />
    <glyph glyph-name="three" unicode="3" 
d="M136 545l3 8l4 11q5 13 11 25q16 33 37 58q61 72 162 72q82 0 135 -50t53 -128q0 -20 -4 -41q-6 -27 -19 -50q-34 -61 -110 -87l6 -2l6 -3q8 -4 15 -8q18 -11 32 -26q37 -40 37 -108q0 -90 -66 -156q-72 -72 -185 -72q-69 0 -120 34q-69 46 -84 144l61 9
q26 -137 153 -137q81 0 133 61q47 55 47 128q0 60 -43 92q-37 27 -94 27q-8 0 -19 -1q-11 0 -15 -1l10 50h4l5 -1q7 -1 13 -1q18 -2 31 -2q64 0 106 45q39 42 39 104q0 57 -35 95q-37 38 -93 38q-72 0 -116 -55q-16 -20 -28 -47q-4 -9 -9 -21l-3 -9l-3 -8z" />
    <glyph glyph-name="four" unicode="4" 
d="M58 193l15 69l403 457h47l-100 -474h100l-11 -52h-99l-42 -193h-61l41 193h-293zM361 245l54 244l33 129l-2 2l-329 -375h244z" />
    <glyph glyph-name="five" unicode="5" 
d="M559 706l-13 -52h-289l-71 -241l2 -2q5 4 9 8l12 10q16 12 33 21q46 25 99 25q74 0 125 -49q58 -56 58 -155q0 -114 -73 -197q-77 -86 -190 -86q-30 0 -59 7q-36 10 -63 29q-70 51 -75 163l59 6l1 -9l1 -10q2 -12 5 -23q7 -30 19 -52q36 -64 118 -64q87 0 145 84
q52 73 52 158q0 69 -42 110q-39 38 -95 38q-83 0 -160 -81l-53 5l103 357h342z" />
    <glyph glyph-name="six" unicode="6" 
d="M507 552l-1 7l-1 8q-2 10 -4 18q-6 22 -17 39q-28 45 -90 45q-99 0 -162 -117q-22 -40 -39 -94q-6 -18 -12 -39q-2 -8 -4 -17l-1 -7l-2 -6l2 -2q5 6 10 10l13 13q18 16 37 27q55 32 113 32q82 0 133 -57q52 -58 52 -149q0 -110 -70 -192q-71 -83 -169 -83q-10 0 -21 1
q-15 2 -29 5q-38 10 -67 33q-85 64 -85 218q0 63 15 137q18 86 51 156q86 181 238 181q16 0 32 -2q19 -3 37 -10q45 -16 69 -51q18 -26 26 -55q3 -11 5 -23l2 -9l1 -9zM437 374q-37 43 -97 43q-74 0 -125 -55q-55 -59 -55 -155q0 -78 39 -126q37 -46 95 -46q74 0 129 73
q50 69 50 151q0 72 -36 115z" />
    <glyph glyph-name="seven" unicode="7" 
d="M598 706l-14 -54q-255 -252 -358 -652h-68q104 399 362 652h-372l11 54h439z" />
    <glyph glyph-name="eight" unicode="8" 
d="M428 380l6 -5q8 -5 15 -10q17 -15 29 -31q34 -45 34 -109q0 -87 -57 -156q-68 -81 -181 -81q-90 0 -144 52q-55 51 -55 138q0 67 31 119q38 66 121 95l-5 3l-6 3q-7 4 -13 8q-16 12 -27 25q-33 37 -33 93q0 80 62 137q63 58 151 58q86 0 141 -53q51 -51 51 -120v-11
q-1 -8 -2 -17q-4 -24 -14 -45q-31 -64 -110 -89zM445 643q-37 29 -91 29q-69 0 -111 -45q-39 -42 -39 -100q0 -49 31 -81q36 -36 104 -36q63 0 103 33q45 38 45 110q0 58 -42 90zM405 336q-38 29 -96 29q-72 0 -123 -55q-50 -53 -50 -127v-11q1 -10 2 -19q5 -28 16 -50
q34 -68 122 -68q83 0 133 68q42 57 42 128q0 69 -46 105z" />
    <glyph glyph-name="nine" unicode="9" 
d="M137 155l1 -7l1 -8q2 -10 4 -18q6 -22 17 -39q28 -45 90 -45q99 0 162 117q22 40 39 94q6 18 12 39q2 8 4 17l1 7l2 6l-2 2q-5 -6 -10 -10l-13 -13q-18 -16 -37 -27q-55 -32 -113 -32q-82 0 -133 57q-52 58 -52 149q0 110 70 192q71 83 169 83q10 0 21 -1q15 -2 29 -5
q38 -10 68 -32q84 -65 84 -219q0 -63 -15 -137q-18 -86 -51 -156q-86 -181 -238 -181q-16 0 -32 2q-19 3 -37 10q-45 16 -69 51q-18 26 -26 55q-3 11 -5 23l-2 9l-1 9zM208 333q36 -43 96 -43q74 0 125 55q55 59 55 155q0 78 -39 126q-37 46 -95 46q-74 0 -128 -73
q-51 -69 -51 -151q0 -72 37 -115z" />
    <glyph glyph-name="colon" unicode=":" horiz-adv-x="278" 
d="M204 95l-20 -95h-85l20 95h85zM294 518l-20 -95h-85l20 95h85z" />
    <glyph glyph-name="semicolon" unicode=";" horiz-adv-x="278" 
d="M204 95l-20 -95q-14 -64 -41 -96q-11 -12 -26 -21l-12 -8l-13 -6l-16 36q35 17 47 34q11 16 19 61h-44l21 95h85zM294 518l-20 -95h-85l20 95h85z" />
    <glyph glyph-name="less" unicode="&#x3c;" horiz-adv-x="660" 
d="M627 543l-464 -192l464 -193v-49l-524 222v40l524 221v-49z" />
    <glyph glyph-name="equal" unicode="=" horiz-adv-x="660" 
d="M627 492v-46h-524v46h524zM627 254v-46h-524v46h524z" />
    <glyph glyph-name="greater" unicode="&#x3e;" horiz-adv-x="660" 
d="M627 371v-40l-524 -222v49l464 193l-464 192v49z" />
    <glyph glyph-name="question" unicode="?" horiz-adv-x="500" 
d="M122 535l3 10l3 12q4 16 9 29q13 37 33 64q58 78 167 78q80 0 134 -49q52 -48 52 -118q0 -56 -37 -107q-32 -44 -103 -99q-83 -64 -109 -105q-16 -26 -20 -70h-62q8 59 29 96q29 49 105 110q73 58 99 90q33 40 33 83q0 48 -35 82q-36 35 -92 35q-74 0 -115 -60
q-15 -22 -25 -51q-3 -10 -7 -22l-2 -10l-2 -8zM252 97l-20 -97h-84l21 97h83z" />
    <glyph glyph-name="at" unicode="@" horiz-adv-x="800" 
d="M645 530l-83 -392l-2 -14q-4 -19 -4 -25q0 -20 24 -20q58 0 120 74q71 87 71 208q0 17 -2 36q-2 23 -8 46q-13 59 -43 104q-83 129 -272 129q-174 0 -280 -116q-101 -111 -101 -275t100 -269q106 -110 285 -110q134 0 228 59q33 21 62 50q11 11 22 23l8 11l8 9h50
q-22 -34 -47 -61q-34 -36 -75 -62q-106 -69 -256 -69q-194 0 -310 118q-115 115 -115 302q0 176 104 296q116 134 320 134q194 0 290 -129q38 -51 56 -117q16 -54 16 -109q0 -145 -90 -242q-78 -84 -161 -84q-59 0 -59 52q0 6 1 14q1 11 3 22l-2 2q-42 -51 -90 -73
q-36 -17 -75 -17q-74 0 -122 60q-47 59 -47 146q0 114 69 204q73 97 180 97q62 0 106 -38q15 -13 28 -31q4 -7 9 -14l3 -6l3 -5l17 82h61zM508 461q-35 38 -89 38q-87 0 -142 -94q-46 -80 -46 -167q0 -65 33 -110q35 -47 92 -47q78 0 136 99q52 89 52 180q0 62 -36 101z" />
    <glyph glyph-name="A" unicode="A" horiz-adv-x="667" 
d="M188 214l-129 -214h-69l430 716h72l131 -716h-73l-34 214h-328zM507 271l-61 374l-223 -374h284z" />
    <glyph glyph-name="B" unicode="B" horiz-adv-x="667" 
d="M209 716h219q78 0 124 -17q31 -12 55 -36q49 -49 49 -121q0 -52 -28 -94q-34 -52 -104 -77v-2l7 -2l7 -3q9 -3 17 -7q22 -9 38 -23q45 -40 45 -110q0 -55 -31 -107q-30 -52 -77 -81q-39 -24 -93 -31q-20 -3 -44 -4l-21 -1h-318zM133 57h234q75 0 121 22q38 18 62 63
q21 39 21 80q0 75 -74 100q-29 10 -71 13l-38 2h-194zM206 394h201q16 1 31 3q41 4 71 18q80 36 80 124q0 12 -2 24q-3 16 -8 29q-15 35 -48 50q-22 9 -71 14q-19 1 -40 2q-18 1 -34 1h-123z" />
    <glyph glyph-name="C" unicode="C" horiz-adv-x="722" 
d="M694 238q-49 -131 -143 -196q-79 -54 -176 -54q-121 0 -198 71q-88 82 -88 236q0 161 88 285q105 148 285 148q12 0 25 -1q17 -1 34 -4q46 -8 84 -27q109 -56 124 -192l-66 -7q-15 92 -78 138q-50 36 -117 36q-140 0 -229 -116q-83 -110 -83 -266q0 -132 77 -196
q58 -48 140 -48q110 0 186 85q27 29 48 67q7 14 15 29q2 6 5 12l2 5l2 5z" />
    <glyph glyph-name="D" unicode="D" horiz-adv-x="722" 
d="M417 716q105 0 156 -25q58 -28 96 -88q46 -75 46 -181q0 -124 -60 -231q-53 -95 -131 -143q-44 -27 -128 -40q-27 -4 -55 -7q-10 0 -18 -1h-268l155 716h207zM265 659l-131 -602h174q108 0 176 38q67 38 114 126q50 97 50 210q0 146 -96 198q-34 18 -80 26q-17 2 -37 3
q-14 1 -32 1h-138z" />
    <glyph glyph-name="E" unicode="E" horiz-adv-x="611" 
d="M648 716l-12 -57h-375l-56 -261h365l-10 -57h-367l-62 -284h410l-9 -57h-480l154 716h442z" />
    <glyph glyph-name="F" unicode="F" 
d="M610 716l-13 -57h-334l-57 -262h342l-15 -57h-339l-73 -340h-67l154 716h402z" />
    <glyph glyph-name="G" unicode="G" horiz-adv-x="778" 
d="M738 355l-57 -279l-9 -5l-10 -6q-13 -7 -25 -13q-33 -17 -66 -29q-93 -35 -182 -35q-108 0 -187 59q-105 80 -105 242q0 168 97 294q111 145 296 145q151 0 223 -96q25 -32 39 -74q4 -15 8 -31q1 -6 2 -13l1 -5l1 -4l-65 -7q-18 84 -72 130q-55 46 -137 46
q-164 0 -254 -135q-72 -109 -72 -253q0 -112 61 -176q61 -65 169 -65q100 0 226 66l36 187h-218l12 57h288z" />
    <glyph glyph-name="H" unicode="H" horiz-adv-x="722" 
d="M274 716l-66 -309h410l65 309h67l-151 -716h-67l73 348h-410l-74 -348h-67l153 716h67z" />
    <glyph glyph-name="I" unicode="I" horiz-adv-x="278" 
d="M292 716l-158 -716h-67l158 716h67z" />
    <glyph glyph-name="J" unicode="J" horiz-adv-x="500" 
d="M513 716l-122 -549q-20 -91 -58 -131q-45 -48 -132 -48q-91 0 -134 50q-32 36 -32 90q0 12 2 31q1 6 2 13v5l1 4l61 3q-6 -32 -6 -51q0 -59 43 -81q15 -8 34 -11q7 0 14 -1h10q57 0 86 35q29 34 49 125l115 516h67z" />
    <glyph glyph-name="K" unicode="K" horiz-adv-x="667" 
d="M275 716l-81 -371l2 -2l439 373h95l-343 -285l245 -431h-71l-224 389l-162 -133l-56 -256h-66l155 716h67z" />
    <glyph glyph-name="L" unicode="L" 
d="M271 716l-141 -659h375l-12 -57h-441l153 716h66z" />
    <glyph glyph-name="M" unicode="M" horiz-adv-x="833" 
d="M295 716l107 -638h2l361 638h96l-150 -716h-62l85 407l58 238h-4l-127 -234l-241 -411h-66l-74 438l-25 207h-4l-52 -255l-84 -390h-62l154 716h88z" />
    <glyph glyph-name="N" unicode="N" horiz-adv-x="722" 
d="M278 716l273 -632h3l134 632h62l-152 -716h-75l-270 627h-2l-135 -627h-62l154 716h70z" />
    <glyph glyph-name="O" unicode="O" horiz-adv-x="778" 
d="M192 588q106 140 284 140q134 0 212 -83q80 -83 80 -227q0 -162 -90 -285q-106 -145 -285 -145q-163 0 -240 116q-30 44 -44 100q-11 46 -11 90q0 170 94 294zM239 98q61 -56 152 -56q156 0 242 143q68 113 68 249q0 100 -59 168q-63 72 -165 72q-165 0 -252 -160
q-31 -57 -47 -127q-13 -55 -13 -94q0 -128 74 -195z" />
    <glyph glyph-name="P" unicode="P" horiz-adv-x="611" 
d="M398 716q129 0 178 -39q62 -48 62 -139q0 -65 -36 -125q-40 -66 -105 -91q-46 -17 -160 -17h-154l-65 -305h-67l154 716h193zM260 659l-64 -297h164q19 1 36 2q47 4 74 12q52 17 80 73q21 44 21 93q0 79 -59 103q-36 14 -143 14h-109z" />
    <glyph glyph-name="Q" unicode="Q" horiz-adv-x="778" 
d="M666 -71q-51 30 -114 94q-73 -35 -159 -35q-154 0 -232 104q-63 84 -63 211q0 157 91 280q107 145 287 145q133 0 212 -82q80 -84 80 -228q0 -96 -34 -183q-43 -108 -133 -181q28 -32 97 -78zM421 201l12 -4l12 -6q15 -7 30 -16q38 -26 87 -78q64 57 102 151
q37 91 37 184q0 104 -61 172q-62 70 -163 70q-158 0 -246 -150q-33 -57 -51 -128q-15 -60 -15 -112q0 -106 62 -173q63 -69 165 -69q37 0 71 9q13 3 26 8q9 4 22 9l-14 13q-59 55 -101 73z" />
    <glyph glyph-name="R" unicode="R" horiz-adv-x="667" 
d="M426 716q122 0 178 -36q65 -41 65 -140q0 -119 -101 -175q-36 -19 -82 -30q-16 -4 -35 -7l-14 -2q-5 0 -12 -1q53 -39 84 -95q25 -45 101 -230h-79q-4 11 -8 23q-6 17 -12 33q-16 44 -32 82q-46 109 -79 144q-6 6 -14 12q-11 8 -22 14q-32 17 -68 17h-106l-70 -325h-67
l155 716h218zM262 659l-59 -277h174q110 0 162 31q63 38 63 130q0 69 -41 92q-43 24 -168 24h-131z" />
    <glyph glyph-name="S" unicode="S" horiz-adv-x="611" 
d="M125 220v-10l1 -11q1 -15 3 -27q6 -34 22 -59q45 -71 163 -71q83 0 140 40q59 42 59 107q0 51 -36 81q-34 28 -146 75q-91 38 -131 74q-55 50 -55 124t54 125q64 60 182 60q140 0 199 -75q22 -27 34 -66q4 -14 7 -32l3 -15l2 -13l-66 -9l-1 9l-1 9q-2 13 -4 24
q-8 29 -23 51q-44 63 -151 63q-82 0 -129 -43q-39 -37 -39 -87q0 -46 38 -80q33 -29 111 -60q116 -47 159 -82q60 -49 60 -126q0 -85 -69 -144q-74 -64 -198 -64q-108 0 -170 44q-80 56 -83 182z" />
    <glyph glyph-name="T" unicode="T" 
d="M654 716l-12 -56h-222l-142 -660h-67l142 660h-223l12 56h512z" />
    <glyph glyph-name="U" unicode="U" horiz-adv-x="722" 
d="M274 716l-86 -398q-19 -89 -19 -128q0 -86 79 -124q27 -14 62 -20q13 -2 26 -3q10 -1 19 -1q115 0 178 85q22 30 37 79q6 20 12 45l10 44l90 421h67l-94 -440q-31 -146 -93 -205q-86 -83 -218 -83q-114 0 -182 67q-60 59 -60 139v9q1 8 2 17q2 26 7 47l96 449h67z" />
    <glyph glyph-name="V" unicode="V" horiz-adv-x="611" 
d="M180 716l122 -627l352 627h72l-408 -716h-66l-139 716h67z" />
    <glyph glyph-name="W" unicode="W" horiz-adv-x="889" 
d="M176 716l27 -635h2l325 635h69l30 -635h2l313 635h73l-364 -716h-76l-28 628h-2l-320 -628h-76l-42 716h67z" />
    <glyph glyph-name="X" unicode="X" horiz-adv-x="611" 
d="M188 716l166 -305l276 305h81l-327 -360l188 -356h-74l-159 307l-277 -307h-86l336 363l-201 353h77z" />
    <glyph glyph-name="Y" unicode="Y" horiz-adv-x="611" 
d="M189 716l178 -384l298 384h82l-361 -444l-57 -272h-67l59 279l-203 437h71z" />
    <glyph glyph-name="Z" unicode="Z" horiz-adv-x="611" 
d="M645 716l-8 -63l-499 -596h433l-11 -57h-516l11 56l509 603h-416l12 57h485z" />
    <glyph glyph-name="bracketleft" unicode="[" horiz-adv-x="333" 
d="M449 716l-10 -48h-170l-176 -818h169l-9 -48h-230l197 914h229z" />
    <glyph glyph-name="backslash" unicode="\" horiz-adv-x="278" 
d="M97 716l232 -734h-47l-231 734h46z" />
    <glyph glyph-name="bracketright" unicode="]" horiz-adv-x="333" 
d="M-62 -198l10 48h170l176 818h-169l10 48h229l-197 -914h-229z" />
    <glyph glyph-name="asciicircum" unicode="^" horiz-adv-x="660" 
d="M608 466l-32 -27l-187 226l-188 -226l-31 27l219 262z" />
    <glyph glyph-name="underscore" unicode="_" horiz-adv-x="500" 
d="M-6 -75h512v-50h-512v50z" />
    <glyph glyph-name="grave" unicode="`" horiz-adv-x="333" 
d="M255 716l49 -128h-49l-90 128h90z" />
    <glyph glyph-name="a" unicode="a" 
d="M109 379l4 11l4 11q5 14 11 25q15 29 37 49q58 55 170 55q96 0 147 -42q45 -37 45 -94q0 -18 -7 -54l-43 -211l-1 -5l-1 -7q-2 -10 -4 -19q-4 -26 -4 -42q0 -21 10 -56h-66q-7 27 -7 67l-5 -5l-5 -5q-7 -7 -13 -12q-18 -16 -37 -26q-55 -31 -129 -31q-89 0 -131 54
q-15 21 -23 47q-6 21 -6 42q0 62 39 103q31 33 72 46q40 12 122 16q118 5 168 23l5 21q1 3 2 8q1 6 2 13q3 16 3 27q0 45 -40 71q-38 24 -101 24q-79 0 -120 -41q-15 -15 -26 -36q-4 -8 -7 -17l-5 -15zM445 270q-55 -13 -162 -21l-10 -1l-12 -1q-14 -1 -25 -3
q-32 -5 -55 -14q-65 -27 -65 -92q0 -45 33 -74t83 -29q24 0 51 7q31 8 58 26q70 44 90 137z" />
    <glyph glyph-name="b" unicode="b" horiz-adv-x="611" 
d="M43 0l151 716h61l-58 -272l2 -2q36 42 69 61q47 27 116 27q100 0 154 -66q48 -59 48 -153q0 -115 -65 -208q-79 -115 -218 -115q-79 0 -123 36q-18 14 -33 36l-11 19l-11 19l-21 -98h-61zM192 81q42 -48 111 -48q103 0 167 93q55 80 55 178q0 75 -35 123q-40 56 -115 56
q-113 0 -176 -110q-24 -42 -37 -96q-10 -46 -10 -88q0 -63 40 -108z" />
    <glyph glyph-name="c" unicode="c" 
d="M511 167l-4 -10l-6 -12q-7 -15 -13 -27q-19 -35 -43 -60q-68 -70 -177 -70q-112 0 -165 84q-19 30 -29 70q-7 30 -7 58q0 46 14 98q16 60 45 108q77 124 215 124q99 0 151 -63q18 -22 29 -52q5 -11 8 -23l3 -10l2 -8l-59 -6l-2 7l-2 7q-3 9 -6 17q-9 22 -22 39
q-37 45 -106 45q-107 0 -165 -109q-22 -42 -34 -94q-10 -45 -10 -85v-11q1 -10 3 -20q5 -30 17 -55q36 -74 127 -74q122 0 176 137z" />
    <glyph glyph-name="d" unicode="d" horiz-adv-x="611" 
d="M499 0h-60l17 74l-2 2q-13 -16 -25 -27q-17 -17 -37 -29q-53 -32 -124 -32q-104 0 -157 72q-44 59 -44 148q0 112 62 204q80 118 223 118q77 0 127 -43q17 -16 32 -37q5 -7 10 -16l5 -8l3 -6l65 296h61zM462 437q-43 48 -112 48q-103 0 -167 -93q-55 -79 -55 -177
q0 -75 34 -123q39 -57 114 -57q112 0 176 111q49 87 49 184q0 62 -39 107z" />
    <glyph glyph-name="e" unicode="e" 
d="M132 251l-1 -13l-1 -15q-2 -19 -2 -28q0 -61 33 -106q39 -54 109 -54q97 0 165 122l66 -4q-42 -80 -87 -117q-59 -48 -146 -48q-101 0 -151 60q-50 61 -50 151q0 117 61 212q76 119 212 119q91 0 142 -60q49 -58 49 -152q0 -16 -2 -35l-1 -17l-2 -15h-394zM470 298
q8 109 -48 156q-20 17 -47 24q-10 3 -21 4q-9 1 -17 1h-6l-8 -1q-10 0 -20 -2q-28 -6 -53 -21q-74 -46 -107 -161h327z" />
    <glyph glyph-name="f" unicode="f" horiz-adv-x="278" 
d="M342 518l-9 -44h-109l-103 -474h-61l103 474h-83l9 44h82l18 79q6 27 13 45q9 25 22 42q35 44 101 44q31 0 55 -4q10 -2 19 -4l8 -2l7 -2l-11 -51l-7 1l-8 2q-9 1 -17 3q-23 3 -43 3q-60 0 -77 -74l-19 -82h110z" />
    <glyph glyph-name="g" unicode="g" horiz-adv-x="611" 
d="M608 518l-112 -518q-25 -114 -91 -165q-59 -45 -158 -45h-23q-14 1 -28 3q-36 5 -64 17q-77 34 -79 122h58q7 -55 59 -77q18 -8 42 -12l18 -2h14q92 0 140 49q35 37 53 115l15 65l-2 2q-15 -18 -27 -28q-17 -16 -36 -27q-49 -29 -122 -29q-103 0 -153 73q-41 58 -41 148
q0 119 67 211q79 110 214 110q66 0 109 -28q35 -24 63 -75l3 -1l20 92h61zM459 443q-43 42 -109 42q-95 0 -158 -85q-60 -80 -60 -188q0 -87 44 -134q40 -43 106 -43q117 0 177 123q22 45 34 100q9 44 9 77q0 66 -43 108z" />
    <glyph glyph-name="h" unicode="h" 
d="M257 716l-62 -291l2 -2q13 18 27 32q19 20 40 35q56 40 124 40q73 0 110 -43q29 -36 29 -91q0 -14 -3 -38q-3 -23 -6 -38l-70 -320h-60l69 323q9 44 9 63q0 40 -25 63q-25 24 -69 24q-84 0 -147 -78q-25 -31 -46 -85q-19 -46 -28 -91l-47 -219h-60l152 716h61z" />
    <glyph glyph-name="i" unicode="i" horiz-adv-x="222" 
d="M218 518l-110 -518h-61l110 518h61zM260 716l-19 -94h-61l19 94h61z" />
    <glyph glyph-name="j" unicode="j" horiz-adv-x="222" 
d="M218 518l-121 -563q-19 -87 -35 -118q-28 -51 -83 -51q-24 0 -62 15l15 50q24 -11 38 -11q33 1 48 41q5 14 26 110l112 527h62zM260 716l-19 -94h-61l19 94h61z" />
    <glyph glyph-name="k" unicode="k" horiz-adv-x="500" 
d="M261 716l-104 -471l2 -2l289 275h92l-220 -193l128 -325h-71l-107 282l-129 -114l-38 -168h-61l158 716h61z" />
    <glyph glyph-name="l" unicode="l" horiz-adv-x="222" 
d="M260 716l-152 -716h-61l152 716h61z" />
    <glyph glyph-name="m" unicode="m" horiz-adv-x="833" 
d="M216 518l-16 -73l2 -2q16 17 28 29q18 17 36 28q46 30 99 30q66 0 103 -40q14 -14 23 -32q4 -7 7 -15l2 -6l2 -5l6 7l6 7q8 9 15 16q18 18 37 32q52 36 112 36q58 0 95 -32q40 -35 40 -95q0 -19 -5 -44q0 -2 -1 -9t-2 -9l-76 -341h-61l71 320q8 35 11 57q0 8 1 15v10
q0 71 -82 71q-86 0 -147 -93q-17 -26 -33 -72q-12 -37 -21 -78l-51 -230h-61l68 306q2 9 4 21q2 14 5 27q5 35 5 48q0 39 -22 57q-18 14 -49 14q-15 0 -31 -3q-21 -4 -40 -13q-50 -22 -85 -71q-16 -23 -36 -86q-8 -23 -15 -51q-6 -21 -10 -41l-45 -208h-61l113 518h59z" />
    <glyph glyph-name="n" unicode="n" 
d="M216 518l-19 -93l2 -2q6 8 12 15q7 9 14 17q19 20 40 35q55 40 123 40q73 0 110 -43q29 -36 29 -91q0 -14 -3 -38q-3 -23 -6 -38l-69 -320h-61l70 323q8 39 8 63q0 42 -28 66q-25 21 -66 21q-85 0 -147 -78q-25 -31 -46 -85q-17 -45 -27 -91l-47 -219h-61l112 518h60z
" />
    <glyph glyph-name="o" unicode="o" 
d="M125 410q74 120 210 120q91 0 145 -54q57 -58 57 -162q0 -115 -59 -208q-76 -118 -216 -118q-109 0 -160 78q-20 29 -29 68q-7 30 -7 61q0 120 59 215zM157 92q38 -57 112 -57q98 0 158 103q49 86 49 186q0 74 -43 119q-40 40 -98 40q-100 0 -159 -104q-49 -84 -49 -178
q0 -64 30 -109z" />
    <glyph glyph-name="p" unicode="p" horiz-adv-x="611" 
d="M153 518h61l-17 -74l2 -2q16 19 28 30q17 17 37 29q49 29 120 29q100 0 154 -67q48 -60 48 -152q0 -115 -64 -208q-80 -115 -219 -115q-79 0 -126 39q-17 14 -32 35l-11 19l-10 17l-64 -296h-61zM192 81q42 -48 111 -48q103 0 167 93q55 80 55 178q0 74 -34 123
q-41 56 -116 56q-114 0 -175 -110q-48 -86 -48 -184q0 -63 40 -108z" />
    <glyph glyph-name="q" unicode="q" horiz-adv-x="611" 
d="M463 437q-43 48 -111 48q-104 0 -168 -93q-55 -79 -55 -177q0 -74 35 -123q40 -57 115 -57q67 0 114 36q34 26 61 75q24 43 37 97q11 46 11 87q0 62 -39 107zM613 518l-155 -716h-61l59 273l-2 2l-15 -16l-16 -16q-18 -17 -36 -28q-48 -29 -120 -29q-92 0 -146 62
q-53 60 -53 158q0 112 62 204q80 118 223 118q77 0 127 -43q18 -16 33 -37q5 -7 10 -16l5 -8l3 -6l21 98h61z" />
    <glyph glyph-name="r" unicode="r" horiz-adv-x="333" 
d="M214 518l-20 -89l2 -2q3 7 6 13q5 9 9 16q12 20 27 34q38 40 89 40q32 0 54 -13q9 -5 17 -13l6 -7l6 -7l-34 -48q-33 29 -70 29q-54 0 -92 -63q-30 -48 -47 -129l-59 -279h-61l110 518h57z" />
    <glyph glyph-name="s" unicode="s" horiz-adv-x="500" 
d="M107 193v-16q0 -12 2 -22q3 -30 14 -52q31 -65 119 -65q57 0 96 27q41 27 41 68q0 39 -35 67q-28 23 -99 52q-67 27 -93 53q-33 32 -33 84q0 65 49 103t132 38q97 0 145 -56q20 -23 29 -51q4 -11 6 -24l2 -10l1 -9l-60 -6q-18 106 -124 106q-63 0 -95 -27
q-26 -21 -26 -54q0 -26 19 -45q22 -24 81 -49l30 -13l29 -14q32 -17 53 -34q54 -43 54 -103q0 -6 -1 -13q-2 -11 -4 -21q-9 -29 -26 -51q-52 -68 -168 -68q-207 0 -202 201z" />
    <glyph glyph-name="t" unicode="t" horiz-adv-x="278" 
d="M232 518h96l-12 -44h-94l-76 -355q-3 -12 -4 -26q-2 -12 -2 -20q0 -33 36 -33q13 0 26 3q19 3 40 11l-10 -54q-41 -12 -75 -12q-38 0 -59 21q-20 20 -20 51q0 28 6 53l77 361h-72l9 44h72l28 132l70 40z" />
    <glyph glyph-name="u" unicode="u" 
d="M388 0l20 93l-2 2q-6 -8 -12 -15q-7 -9 -14 -17q-19 -20 -40 -35q-56 -40 -123 -40q-81 0 -117 53q-14 19 -20 44q-4 19 -4 37t4 43q1 9 3 19l2 8l1 6l70 320h61l-70 -322q-7 -31 -7 -64q0 -48 33 -71q13 -9 30 -13q14 -4 29 -4q85 0 149 80q26 32 50 101q8 23 14 48
q3 9 5 17q1 6 2 9l47 219h61l-112 -518h-60z" />
    <glyph glyph-name="v" unicode="v" horiz-adv-x="500" 
d="M139 518l75 -446l273 446h63l-316 -518h-60l-93 518h58z" />
    <glyph glyph-name="w" unicode="w" horiz-adv-x="722" 
d="M133 518l67 -438h2l193 438h61l49 -438h2l215 438h64l-264 -518h-58l-52 416h-2l-187 -416h-61l-89 518h60z" />
    <glyph glyph-name="x" unicode="x" horiz-adv-x="500" 
d="M158 518l116 -208l187 208h72l-233 -256l145 -262h-68l-119 213l-192 -213h-71l236 262l-144 256h71z" />
    <glyph glyph-name="y" unicode="y" horiz-adv-x="500" 
d="M138 518l77 -458l271 458h64l-374 -626q-36 -60 -64 -82q-25 -20 -58 -20q-18 0 -38 6q-15 5 -34 13l7 56l4 -2l6 -2q8 -3 15 -4q20 -6 37 -6q18 0 35 15q12 10 23 29l62 105l-93 518h60z" />
    <glyph glyph-name="z" unicode="z" horiz-adv-x="500" 
d="M499 518l-12 -56l-373 -406h321l-12 -56h-401l12 56l376 406h-310l14 56h385z" />
    <glyph glyph-name="braceleft" unicode="{" horiz-adv-x="333" 
d="M348 673q-58 -2 -72 -27q-15 -26 -15 -135q0 -116 -12 -157q-19 -64 -85 -95q65 -30 85 -93q12 -38 12 -131q0 -135 11 -160q7 -17 26 -24q14 -4 50 -6v-55q-84 -2 -117 46q-26 38 -26 123q0 187 -16 220q-15 30 -38 41q-9 4 -20 6l-10 1h-10v64q61 2 83 62q8 21 10 52
q1 12 2 25v23q0 126 3 159q5 42 24 68q25 33 63 44q14 3 29 4h23v-55z" />
    <glyph glyph-name="bar" unicode="|" horiz-adv-x="222" 
d="M183 716v-914h-50v914h50z" />
    <glyph glyph-name="braceright" unicode="}" horiz-adv-x="333" 
d="M80 -155q58 2 72 27q15 26 15 135q0 117 12 158q19 63 85 94q-65 30 -85 93q-12 38 -12 131q0 135 -11 160q-7 17 -26 24q-14 4 -50 6v55q84 2 117 -46q26 -39 26 -123q0 -187 16 -220q15 -31 38 -41q8 -4 20 -6l10 -1h10v-64q-61 -2 -83 -61q-8 -22 -10 -53
q-1 -12 -2 -25v-23q0 -126 -3 -158q-5 -43 -25 -69q-25 -33 -62 -43q-14 -4 -29 -5h-23v55z" />
    <glyph glyph-name="asciitilde" unicode="~" horiz-adv-x="660" 
d="M607 345q-84 -56 -136 -56q-42 0 -130 41q-80 37 -117 37q-59 0 -139 -65v54q78 58 137 58q47 0 127 -39q50 -25 83 -33q12 -4 23 -5q7 -1 16 -1q36 0 81 27q16 9 33 22l12 10l10 8v-58z" />
    <glyph glyph-name="uni00A0" unicode="&#xa0;" horiz-adv-x="278" 
 />
    <glyph glyph-name="exclamdown" unicode="&#xa1;" horiz-adv-x="333" 
d="M58 -198l32 164l96 372h40l-55 -372l-37 -164h-76zM182 423l20 95h86l-22 -95h-84z" />
    <glyph glyph-name="cent" unicode="&#xa2;" 
d="M131 -192l-41 17l76 186q-48 31 -75 85q-24 50 -24 105q0 40 12 88q14 61 42 109q77 132 225 132q20 0 32 -2l77 188l42 -22l-73 -177q51 -20 81 -70q11 -19 19 -41q3 -8 6 -17l2 -8l2 -7l-59 -6l-4 12l-4 13q-5 15 -12 27q-18 31 -52 47l-175 -426q1 0 6 -1l4 -1l5 -1
q14 -3 29 -3q22 0 42 5q26 6 49 19q57 34 88 113l60 -5q-8 -17 -13 -28q-9 -17 -17 -30q-20 -35 -45 -58q-65 -63 -169 -63q-20 0 -38 3l-7 1l-6 1q-6 1 -8 1zM359 483q-114 11 -179 -95q-52 -85 -52 -191q0 -40 16 -78q16 -40 42 -59z" />
    <glyph glyph-name="sterling" unicode="&#xa3;" 
d="M394 378l-11 -47h-127q2 -83 -23 -136q-31 -64 -119 -124l2 -2q42 18 80 18q63 0 125 -27q47 -20 78 -20q38 0 99 29l20 -52l-9 -4l-10 -5q-13 -6 -26 -10q-33 -10 -72 -10q-37 0 -108 26q-56 21 -105 21q-45 0 -81 -15q-14 -6 -29 -15q-10 -6 -26 -17l-10 81
q74 45 109 97q46 67 43 165h-105l11 47h89q-2 12 -3 22q-2 14 -3 27q-4 34 -4 61q0 105 63 172q63 65 159 65q67 0 117 -35q67 -45 79 -140l-59 -9l-1 6l-2 8q-2 10 -4 18q-8 25 -20 45q-36 55 -107 55q-73 0 -118 -49q-47 -50 -47 -131q0 -33 12 -115h143z" />
    <glyph glyph-name="currency" unicode="&#xa4;" 
d="M543 551l-63 -63q48 -59 48 -136t-48 -136l63 -63l-31 -31l-63 63q-38 -29 -81 -41q-17 -5 -33 -7q-12 -1 -24 -1q-47 0 -88 19q-15 6 -29 16q-5 3 -10 7l-4 3l-4 3l-62 -62l-31 31l63 63l-8 10l-8 12q-10 14 -16 28q-17 38 -17 86q0 45 18 85q7 15 16 29l8 12l7 10
l-63 63l31 31l64 -64l12 8l13 9q15 9 30 16q37 16 81 16q45 0 83 -17q15 -7 29 -16l12 -8l10 -8l64 64zM192 472q-49 -49 -49 -120t49 -120q50 -50 120 -50q71 0 120 50q50 50 50 120t-50 120q-49 49 -120 49q-70 0 -120 -49z" />
    <glyph glyph-name="yen" unicode="&#xa5;" 
d="M177 716l124 -342l258 342h74l-280 -358h178l-9 -42h-201l-20 -100h200l-11 -42h-198l-39 -174h-60l37 174h-198l10 42h198l21 100h-197l8 42h181l-140 358h64z" />
    <glyph glyph-name="brokenbar" unicode="&#xa6;" horiz-adv-x="222" 
d="M183 716v-368h-50v368h50zM183 169v-367h-50v367h50z" />
    <glyph glyph-name="section" unicode="&#xa7;" 
d="M501 571q-19 107 -126 107q-64 0 -99 -30q-32 -26 -32 -66q0 -35 28 -69q32 -38 143 -130q70 -57 92 -83q29 -35 29 -71q0 -59 -54 -108q-20 -19 -48 -36q-11 -7 -23 -14l-10 -6l-10 -5q58 -68 58 -114q0 -68 -57 -112q-56 -44 -137 -44q-90 0 -149 49q-29 24 -45 56
q-6 11 -11 26l-4 12l-3 11l59 15q31 -119 152 -119q65 0 103 33q33 28 33 68q0 30 -20 56q-33 42 -140 127q-79 63 -105 93q-36 41 -36 83q0 62 53 111q19 18 47 35q11 6 24 14l11 6l10 5l-3 3l-3 4q-4 5 -7 9q-9 13 -15 25q-19 34 -19 69q0 54 42 96q51 51 147 51
q104 0 151 -62q17 -22 26 -50q3 -10 5 -22l2 -9l1 -7zM312 396q-7 5 -23 20l-15 13q-6 5 -14 12l-7 -3l-8 -4q-9 -5 -17 -10q-22 -12 -38 -26q-43 -38 -43 -85q0 -36 28 -67q18 -20 78 -66q67 -50 107 -92q118 60 118 126q0 37 -48 80l-22 20q-11 10 -27 24l-12 10l-4 4
l-3 2z" />
    <glyph glyph-name="dieresis" unicode="&#xa8;" horiz-adv-x="333" 
d="M211 677l-18 -85h-62l18 85h62zM380 677l-18 -85h-62l18 85h62z" />
    <glyph glyph-name="copyright" unicode="&#xa9;" horiz-adv-x="800" 
d="M550 437q-20 46 -53 66q-25 14 -57 14q-18 0 -37 -5q-25 -7 -45 -22q-55 -41 -55 -131q0 -82 41 -131q37 -44 91 -44t86 36q12 13 22 33l8 17l6 16l44 -16l-3 -7l-3 -8q-4 -10 -8 -19q-12 -24 -27 -42q-46 -52 -123 -52q-86 0 -139 68q-48 62 -48 146q0 79 46 136
q52 67 144 67q59 0 102 -35q31 -25 55 -73zM699 91q-109 -109 -264 -109q-154 0 -264 109q-109 110 -109 264q0 155 109 264q110 109 264 109q155 0 264 -109t109 -264q0 -154 -109 -264zM666 586q-95 96 -231 96t-231 -96q-96 -95 -96 -231t96 -231q95 -96 231 -96t231 96
q96 95 96 231t-96 231z" />
    <glyph glyph-name="ordfeminine" unicode="&#xaa;" horiz-adv-x="334" 
d="M98 626q17 44 45 68q41 34 110 34h12q9 -1 17 -2q25 -2 45 -10q58 -22 58 -81q0 -24 -18 -99l-6 -26q-4 -18 -7 -33q-8 -41 -8 -65q0 -17 8 -41h-48q-6 23 -5 44l-4 -3l-5 -4l-12 -8q-15 -10 -29 -17q-41 -21 -81 -21q-45 0 -75 29t-30 70q0 63 61 90q22 9 55 14
q12 2 27 4l13 1l12 1q63 6 99 20q7 32 7 46q0 51 -88 51q-51 0 -76 -19q-18 -14 -32 -49zM323 549q-23 -12 -98 -17q-56 -4 -79 -13q-35 -15 -35 -52q0 -27 20 -45q22 -20 56 -20q12 0 27 4q18 4 34 14q44 25 60 79z" />
    <glyph glyph-name="guillemotleft" unicode="&#xab;" 
d="M334 478l-174 -220l82 -223h-46l-100 232l192 211h46zM524 478l-169 -220l77 -223h-47l-95 233l187 210h47z" />
    <glyph glyph-name="logicalnot" unicode="&#xac;" horiz-adv-x="660" 
d="M627 492v-284h-46v238h-478v46h524z" />
    <glyph glyph-name="uni00AD" unicode="&#xad;" horiz-adv-x="333" 
d="M330 286l-12 -55h-266l11 55h267z" />
    <glyph glyph-name="registered" unicode="&#xae;" horiz-adv-x="800" 
d="M447 547q84 0 116 -48q11 -16 15 -35q1 -7 2 -13v-8q0 -60 -47 -89q-17 -10 -39 -16q-8 -2 -17 -3q-6 -1 -13 -2v-2q42 -15 62 -41q23 -30 69 -135h-59l-11 23q-46 96 -75 122q-29 25 -94 25h-23v-170h-49v392h163zM333 365h65q60 0 87 12q38 17 38 62q0 44 -34 58
q-23 10 -83 10h-73v-142zM699 91q-109 -109 -264 -109q-154 0 -264 109q-109 110 -109 264q0 155 109 264q110 109 264 109q155 0 264 -109t109 -264q0 -154 -109 -264zM666 586q-95 96 -231 96t-231 -96q-96 -95 -96 -231t96 -231q95 -96 231 -96t231 96q96 95 96 231
t-96 231z" />
    <glyph glyph-name="macron" unicode="&#xaf;" horiz-adv-x="333" 
d="M410 653l-12 -54h-293l12 54h293z" />
    <glyph glyph-name="degree" unicode="&#xb0;" horiz-adv-x="400" 
d="M373 489q-41 -41 -99 -41t-99 41t-41 99t41 99t99 41t99 -41t41 -99t-41 -99zM345 659q-30 29 -71 29t-71 -29q-29 -30 -29 -71t29 -71q30 -29 71 -29t71 29q29 30 29 71t-29 71z" />
    <glyph glyph-name="plusminus" unicode="&#xb1;" horiz-adv-x="660" 
d="M627 45v-45h-524v45h524zM388 614v-239h239v-46h-239v-239h-46v239h-239v46h239v239h46z" />
    <glyph glyph-name="uni00B2" unicode="&#xb2;" horiz-adv-x="333" 
d="M80 363q13 47 38 77q34 41 117 93q60 38 76 54q18 17 18 41t-23 41q-24 17 -56 17q-39 0 -61 -20q-14 -12 -29 -43l-49 4l2 5l2 7q3 8 7 15q10 19 24 33q39 41 109 41q61 0 96 -33q30 -28 30 -67q0 -41 -37 -76q-26 -26 -88 -62q-76 -44 -100 -85h193l-9 -42h-260z" />
    <glyph glyph-name="uni00B3" unicode="&#xb3;" horiz-adv-x="333" 
d="M120 637l2 4l2 5q3 7 6 13q10 17 23 31q40 38 105 38q56 0 90 -31q30 -27 30 -64t-28 -59q-11 -9 -26 -16l-13 -6l-13 -5l10 -4l10 -5q12 -6 20 -14q21 -20 21 -55q0 -58 -48 -90q-39 -25 -87 -25q-68 0 -107 42q-14 14 -24 34q-3 7 -7 14l-2 7l-2 5l55 6l4 -11l5 -12
q7 -13 15 -21q21 -22 63 -22q32 0 56 18q27 20 27 53q0 69 -99 62l9 39l27 -1q35 0 59 21q23 19 23 42v6l-2 8q-3 10 -9 19q-19 23 -60 23t-61 -18q-9 -8 -15 -19l-5 -10l-5 -11z" />
    <glyph glyph-name="acute" unicode="&#xb4;" horiz-adv-x="333" 
d="M386 716l-133 -128h-51l83 128h101z" />
    <glyph glyph-name="mu" unicode="&#xb5;" 
d="M213 518l-66 -307q-12 -55 -12 -76q0 -41 25 -66q24 -25 64 -25q43 0 84 21q43 23 68 62q54 86 70 163l49 228h61l-111 -518h-61l20 94l-2 2q-5 -7 -10 -13l-14 -16q-18 -20 -39 -36q-58 -43 -125 -43q-39 0 -67 20q-10 7 -20 18l-9 10l-7 9l-52 -243h-61l154 716h61z
" />
    <glyph glyph-name="paragraph" unicode="&#xb6;" horiz-adv-x="650" 
d="M637 648h-96v-846h-64v846h-128v-846h-64v503q-122 -1 -179 77q-22 30 -33 68q-8 31 -8 61q0 90 59 146q63 59 175 59h338v-68z" />
    <glyph glyph-name="periodcentered" unicode="&#xb7;" horiz-adv-x="278" 
d="M241 401l-20 -95h-86l21 95h85z" />
    <glyph glyph-name="cedilla" unicode="&#xb8;" horiz-adv-x="333" 
d="M198 9l-20 -51q46 -1 65 -29q6 -10 9 -22l2 -10v-8q0 -38 -37 -63q-40 -27 -109 -27q-29 0 -84 8l25 43q32 -6 51 -6h10q7 0 14 1q18 1 32 5q41 10 41 39q0 20 -24 31q-20 8 -53 9l32 80h46z" />
    <glyph glyph-name="uni00B9" unicode="&#xb9;" horiz-adv-x="333" 
d="M316 728l-78 -364h-51l62 286l-2 2q-40 -36 -120 -62l8 42q91 27 145 96h36z" />
    <glyph glyph-name="ordmasculine" unicode="&#xba;" horiz-adv-x="334" 
d="M79 566q10 40 28 72q50 90 145 90q61 0 99 -38q40 -40 40 -111q0 -82 -48 -146q-53 -71 -139 -71q-57 0 -93 37q-39 40 -39 113q0 23 7 54zM204 400q71 0 110 75q15 28 22 63q7 30 7 54q0 46 -24 72t-65 26q-71 0 -109 -80q-13 -28 -20 -63q-2 -13 -4 -25q-1 -11 -1 -18
q0 -104 84 -104z" />
    <glyph glyph-name="guillemotright" unicode="&#xbb;" 
d="M208 477l87 -233l-186 -209h-58l178 222l-70 220h49zM396 477l94 -233l-188 -209h-57l178 216l-74 226h47z" />
    <glyph glyph-name="onequarter" unicode="&#xbc;" horiz-adv-x="834" 
d="M506 69l8 38l254 241h39l-48 -241h56l-8 -38h-57l-17 -84h-52l18 84h-193zM707 107l30 151l-2 2l-162 -153h134zM356 728l-78 -364h-51l62 286l-2 2q-40 -36 -120 -62l8 42q91 27 145 96h36zM842 728l-687 -756h-58l687 756h58z" />
    <glyph glyph-name="onehalf" unicode="&#xbd;" horiz-adv-x="834" 
d="M512 -15q13 47 38 77q34 41 117 93q60 38 76 54q18 17 18 41t-23 41t-56 17q-39 0 -61 -19q-15 -13 -29 -44l-49 4l2 5l2 7q3 8 7 15q10 19 24 33q39 41 109 41q61 0 96 -33q30 -28 30 -67q0 -41 -36 -76q-26 -26 -88 -62q-78 -46 -101 -85h193l-9 -42h-260zM356 728
l-78 -364h-51l62 286l-2 2q-40 -36 -120 -62l8 42q91 27 145 96h36zM842 728l-687 -756h-58l687 756h58z" />
    <glyph glyph-name="threequarters" unicode="&#xbe;" horiz-adv-x="834" 
d="M506 69l8 38l254 241h39l-48 -241h56l-8 -38h-57l-17 -84h-52l18 84h-193zM707 107l30 151l-2 2l-162 -153h134zM141 638l2 4l2 5q3 7 6 13q10 17 23 31q40 38 105 38q56 0 90 -31q30 -27 30 -64t-28 -59q-11 -9 -26 -16l-13 -6l-13 -5l10 -4l10 -5q12 -6 20 -14
q21 -20 21 -55q0 -58 -48 -90q-39 -25 -87 -25q-68 0 -107 42q-14 14 -24 34q-3 7 -7 14l-2 7l-2 5l55 6l4 -11l5 -12q7 -13 15 -21q21 -22 63 -22q32 0 56 18q27 20 27 53q0 69 -99 62l9 39l27 -1q35 0 59 21q23 19 23 42v4q-1 4 -1 7q-3 11 -9 19q-17 26 -61 26
q-41 0 -61 -18q-9 -8 -15 -19l-5 -10l-5 -11zM898 728l-687 -756h-58l687 756h58z" />
    <glyph glyph-name="questiondown" unicode="&#xbf;" horiz-adv-x="500" 
d="M426 -17l-3 -10l-3 -12q-4 -16 -9 -29q-13 -37 -33 -64q-58 -78 -167 -78q-80 0 -133 49q-53 48 -53 118q0 56 37 107q32 44 103 99q83 63 109 105q16 26 20 70h62q-8 -59 -29 -95q-29 -50 -105 -111q-73 -58 -99 -89q-33 -41 -33 -84q0 -48 35 -82q36 -35 92 -35
q74 0 115 61q15 21 25 50q3 10 7 22l2 10l2 8zM296 421l20 97h84l-21 -97h-83z" />
    <glyph glyph-name="Agrave" unicode="&#xc0;" horiz-adv-x="667" 
d="M188 214l-129 -214h-69l430 716h72l131 -716h-73l-34 214h-328zM507 271l-61 374l-223 -374h284zM452 896l49 -128h-49l-90 128h90z" />
    <glyph glyph-name="Aacute" unicode="&#xc1;" horiz-adv-x="667" 
d="M188 214l-129 -214h-69l430 716h72l131 -716h-73l-34 214h-328zM507 271l-61 374l-223 -374h284zM583 896l-133 -128h-51l83 128h101z" />
    <glyph glyph-name="Acircumflex" unicode="&#xc2;" horiz-adv-x="667" 
d="M188 214l-129 -214h-69l430 716h72l131 -716h-73l-34 214h-328zM507 271l-61 374l-223 -374h284zM518 896l61 -128h-61l-43 90l-92 -90h-77l129 128h83z" />
    <glyph glyph-name="Atilde" unicode="&#xc3;" horiz-adv-x="667" 
d="M188 214l-129 -214h-69l430 716h72l131 -716h-73l-34 214h-328zM507 271l-61 374l-223 -374h284zM608 873q-15 -51 -43 -74q-11 -9 -24 -13q-10 -4 -20 -4q-15 0 -44 10l-46 15q-1 0 -6 1l-5 2l-6 2l-13 3q-7 1 -11 1q-12 0 -24 -11q-4 -5 -9 -11l-7 -11h-50l2 5l3 6
q3 7 6 13q8 17 18 30q27 36 62 36q14 0 31 -4q14 -4 24 -8l39 -13q24 -8 32 -8q24 0 38 33h53z" />
    <glyph glyph-name="Adieresis" unicode="&#xc4;" horiz-adv-x="667" 
d="M188 214l-129 -214h-69l430 716h72l131 -716h-73l-34 214h-328zM507 271l-61 374l-223 -374h284zM408 857l-18 -85h-62l18 85h62zM577 857l-18 -85h-62l18 85h62z" />
    <glyph glyph-name="Aring" unicode="&#xc5;" horiz-adv-x="667" 
d="M188 214l-129 -214h-69l430 716h72l131 -716h-73l-34 214h-328zM507 271l-61 374l-223 -374h284zM527 902q26 -25 26 -62t-26 -63q-25 -26 -62 -26t-63 26t-26 63t26 62q26 26 63 26t62 -26zM426 878q-16 -16 -16 -38t16 -39q17 -16 39 -16t38 16t16 39t-16 38
q-15 16 -38 16t-39 -16z" />
    <glyph glyph-name="AE" unicode="&#xc6;" horiz-adv-x="1000" 
d="M1038 716l-13 -57h-373l-57 -261h365l-11 -57h-366l-62 -284h412l-11 -57h-480l47 217h-287l-140 -217h-74l464 716h586zM490 659l-252 -385h263l84 385h-95z" />
    <glyph glyph-name="Ccedilla" unicode="&#xc7;" horiz-adv-x="722" 
d="M694 238q-49 -129 -141 -194q-77 -54 -172 -56l-14 -27q84 -15 84 -75q0 -28 -21 -51q-41 -46 -159 -46q-22 0 -42 2l-16 1l-15 2l24 43q21 -1 38 -1h21l23 1q25 1 43 5q45 10 45 42q0 29 -32 40q-12 4 -29 6q-12 2 -30 2l29 59q-121 15 -184 104q-57 78 -57 196
q0 166 90 292q105 145 283 145q12 0 25 -1q17 -1 34 -4q46 -8 84 -27q109 -56 124 -192l-66 -7q-15 92 -78 138q-50 36 -117 36q-141 0 -229 -117q-83 -110 -83 -265q0 -132 78 -196q58 -48 139 -48q78 0 145 47q78 56 109 158z" />
    <glyph glyph-name="Egrave" unicode="&#xc8;" horiz-adv-x="611" 
d="M648 716l-12 -57h-375l-56 -261h365l-10 -57h-367l-62 -284h410l-9 -57h-480l154 716h442zM424 896l49 -128h-49l-90 128h90z" />
    <glyph glyph-name="Eacute" unicode="&#xc9;" horiz-adv-x="611" 
d="M648 716l-12 -57h-375l-56 -261h365l-10 -57h-367l-62 -284h410l-9 -57h-480l154 716h442zM555 896l-133 -128h-51l83 128h101z" />
    <glyph glyph-name="Ecircumflex" unicode="&#xca;" horiz-adv-x="611" 
d="M648 716l-12 -57h-375l-56 -261h365l-10 -57h-367l-62 -284h410l-9 -57h-480l154 716h442zM500 896l61 -128h-61l-43 90l-92 -90h-77l129 128h83z" />
    <glyph glyph-name="Edieresis" unicode="&#xcb;" horiz-adv-x="611" 
d="M648 716l-12 -57h-375l-56 -261h365l-10 -57h-367l-62 -284h410l-9 -57h-480l154 716h442zM390 857l-18 -85h-62l18 85h62zM559 857l-18 -85h-62l18 85h62z" />
    <glyph glyph-name="Igrave" unicode="&#xcc;" horiz-adv-x="278" 
d="M292 716l-158 -716h-67l158 716h67zM258 896l49 -128h-49l-90 128h90z" />
    <glyph glyph-name="Iacute" unicode="&#xcd;" horiz-adv-x="278" 
d="M292 716l-158 -716h-67l158 716h67zM389 896l-133 -128h-51l83 128h101z" />
    <glyph glyph-name="Icircumflex" unicode="&#xce;" horiz-adv-x="278" 
d="M292 716l-158 -716h-67l158 716h67zM334 896l61 -128h-61l-43 90l-92 -90h-77l129 128h83z" />
    <glyph glyph-name="Idieresis" unicode="&#xcf;" horiz-adv-x="278" 
d="M292 716l-158 -716h-67l158 716h67zM224 857l-18 -85h-62l18 85h62zM393 857l-18 -85h-62l18 85h62z" />
    <glyph glyph-name="Eth" unicode="&#xd0;" horiz-adv-x="722" 
d="M417 716q105 0 156 -25q58 -28 96 -88q46 -75 46 -181q0 -118 -56 -223q-52 -98 -132 -148q-35 -22 -81 -34q-60 -17 -132 -17h-259l72 330h-81l14 57h80l70 329h207zM265 659l-58 -272h197l-12 -57h-198l-59 -273h190l20 1q23 1 43 4q54 9 98 34q65 37 111 124
q51 97 51 211q0 146 -96 198q-34 18 -80 26q-17 2 -37 3q-14 1 -32 1h-138z" />
    <glyph glyph-name="Ntilde" unicode="&#xd1;" horiz-adv-x="722" 
d="M278 716l273 -632h3l134 632h62l-152 -716h-75l-270 627h-2l-135 -627h-62l154 716h70zM636 873q-15 -51 -43 -74q-11 -9 -24 -13q-10 -4 -20 -4q-15 0 -44 10l-46 15q-1 0 -6 1l-5 2l-6 2l-13 3q-7 1 -11 1q-12 0 -24 -11q-4 -5 -9 -11l-7 -11h-50l2 5l3 6q3 7 6 13
q8 17 18 30q27 36 62 36q14 0 31 -4q14 -4 24 -8l39 -13q24 -8 32 -8q24 0 38 33h53z" />
    <glyph glyph-name="Ograve" unicode="&#xd2;" horiz-adv-x="778" 
d="M192 588q106 140 284 140q134 0 212 -83q80 -83 80 -227q0 -162 -90 -285q-106 -145 -285 -145q-163 0 -240 116q-30 44 -44 100q-11 46 -11 90q0 170 94 294zM239 98q61 -56 152 -56q156 0 242 143q68 113 68 249q0 100 -59 168q-63 72 -165 72q-165 0 -252 -160
q-31 -57 -47 -127q-13 -55 -13 -94q0 -128 74 -195zM508 896l49 -128h-49l-90 128h90z" />
    <glyph glyph-name="Oacute" unicode="&#xd3;" horiz-adv-x="778" 
d="M192 588q106 140 284 140q134 0 212 -83q80 -83 80 -227q0 -162 -90 -285q-106 -145 -285 -145q-163 0 -240 116q-30 44 -44 100q-11 46 -11 90q0 170 94 294zM239 98q61 -56 152 -56q156 0 242 143q68 113 68 249q0 100 -59 168q-63 72 -165 72q-165 0 -252 -160
q-31 -57 -47 -127q-13 -55 -13 -94q0 -128 74 -195zM639 896l-133 -128h-51l83 128h101z" />
    <glyph glyph-name="Ocircumflex" unicode="&#xd4;" horiz-adv-x="778" 
d="M192 588q106 140 284 140q134 0 212 -83q80 -83 80 -227q0 -162 -90 -285q-106 -145 -285 -145q-163 0 -240 116q-30 44 -44 100q-11 46 -11 90q0 170 94 294zM239 98q61 -56 152 -56q156 0 242 143q68 113 68 249q0 100 -59 168q-63 72 -165 72q-165 0 -252 -160
q-31 -57 -47 -127q-13 -55 -13 -94q0 -128 74 -195zM584 896l61 -128h-61l-43 90l-92 -90h-77l129 128h83z" />
    <glyph glyph-name="Otilde" unicode="&#xd5;" horiz-adv-x="778" 
d="M192 588q106 140 284 140q134 0 212 -83q80 -83 80 -227q0 -162 -90 -285q-106 -145 -285 -145q-163 0 -240 116q-30 44 -44 100q-11 46 -11 90q0 170 94 294zM239 98q61 -56 152 -56q156 0 242 143q68 113 68 249q0 100 -59 168q-63 72 -165 72q-165 0 -252 -160
q-31 -57 -47 -127q-13 -55 -13 -94q0 -128 74 -195zM664 873q-15 -51 -43 -74q-11 -9 -24 -13q-10 -4 -20 -4q-15 0 -44 10l-46 15q-1 0 -6 1l-5 2l-6 2l-13 3q-7 1 -11 1q-12 0 -24 -11q-4 -5 -9 -11l-7 -11h-50l2 5l3 6q3 7 6 13q8 17 18 30q27 36 62 36q14 0 31 -4
q14 -4 24 -8l39 -13q24 -8 32 -8q24 0 38 33h53z" />
    <glyph glyph-name="Odieresis" unicode="&#xd6;" horiz-adv-x="778" 
d="M192 588q106 140 284 140q134 0 212 -83q80 -83 80 -227q0 -162 -90 -285q-106 -145 -285 -145q-163 0 -240 116q-30 44 -44 100q-11 46 -11 90q0 170 94 294zM239 98q61 -56 152 -56q156 0 242 143q68 113 68 249q0 100 -59 168q-63 72 -165 72q-165 0 -252 -160
q-31 -57 -47 -127q-13 -55 -13 -94q0 -128 74 -195zM464 857l-18 -85h-62l18 85h62zM633 857l-18 -85h-62l18 85h62z" />
    <glyph glyph-name="multiply" unicode="&#xd7;" horiz-adv-x="660" 
d="M365 383l195 194l32 -32l-194 -194l194 -195l-32 -32l-195 195l-195 -195l-32 32l195 195l-195 194l32 32z" />
    <glyph glyph-name="Oslash" unicode="&#xd8;" horiz-adv-x="778" 
d="M143 -22l-33 29l61 73q-41 46 -59 117q-14 52 -14 107q0 156 91 279q107 145 287 145q68 0 121 -21q20 -8 39 -20q13 -8 28 -20l59 69l34 -30l-60 -71q44 -52 62 -133q6 -27 8 -55q1 -10 1 -20v-12q0 -161 -91 -284q-106 -143 -284 -143q-116 0 -190 60zM242 95
q37 -33 83 -45q18 -5 36 -7q13 -1 29 -1q155 0 243 143q68 113 68 247q0 94 -45 154zM625 620q-63 54 -148 54q-159 0 -246 -150q-33 -57 -51 -128q-15 -60 -15 -112v-10q0 -8 1 -15q1 -19 5 -38q11 -53 40 -93z" />
    <glyph glyph-name="Ugrave" unicode="&#xd9;" horiz-adv-x="722" 
d="M274 716l-86 -398q-19 -89 -19 -128q0 -86 79 -124q27 -14 62 -20q13 -2 26 -3q10 -1 19 -1q115 0 178 85q22 30 37 79q6 20 12 45l10 44l90 421h67l-94 -440q-31 -146 -93 -205q-86 -83 -218 -83q-114 0 -182 67q-60 59 -60 139v9q1 8 2 17q2 26 7 47l96 449h67z
M480 896l49 -128h-49l-90 128h90z" />
    <glyph glyph-name="Uacute" unicode="&#xda;" horiz-adv-x="722" 
d="M274 716l-86 -398q-19 -89 -19 -128q0 -86 79 -124q27 -14 62 -20q13 -2 26 -3q10 -1 19 -1q115 0 178 85q22 30 37 79q6 20 12 45l10 44l90 421h67l-94 -440q-31 -146 -93 -205q-86 -83 -218 -83q-114 0 -182 67q-60 59 -60 139v9q1 8 2 17q2 26 7 47l96 449h67z
M611 896l-133 -128h-51l83 128h101z" />
    <glyph glyph-name="Ucircumflex" unicode="&#xdb;" horiz-adv-x="722" 
d="M274 716l-86 -398q-19 -89 -19 -128q0 -86 79 -124q27 -14 62 -20q13 -2 26 -3q10 -1 19 -1q115 0 178 85q22 30 37 79q6 20 12 45l10 44l90 421h67l-94 -440q-31 -146 -93 -205q-86 -83 -218 -83q-114 0 -182 67q-60 59 -60 139v9q1 8 2 17q2 26 7 47l96 449h67z
M546 896l61 -128h-61l-43 90l-92 -90h-77l129 128h83z" />
    <glyph glyph-name="Udieresis" unicode="&#xdc;" horiz-adv-x="722" 
d="M274 716l-86 -398q-19 -89 -19 -128q0 -86 79 -124q27 -14 62 -20q13 -2 26 -3q10 -1 19 -1q115 0 178 85q22 30 37 79q6 20 12 45l10 44l90 421h67l-94 -440q-31 -146 -93 -205q-86 -83 -218 -83q-114 0 -182 67q-60 59 -60 139v9q1 8 2 17q2 26 7 47l96 449h67z
M436 857l-18 -85h-62l18 85h62zM605 857l-18 -85h-62l18 85h62z" />
    <glyph glyph-name="Yacute" unicode="&#xdd;" horiz-adv-x="611" 
d="M189 716l178 -384l298 384h82l-361 -444l-57 -272h-67l59 279l-203 437h71zM555 896l-133 -128h-51l83 128h101z" />
    <glyph glyph-name="Thorn" unicode="&#xde;" horiz-adv-x="611" 
d="M270 716l-31 -143h127q127 0 178 -39q62 -48 62 -139q0 -64 -36 -124q-40 -67 -105 -92q-43 -16 -160 -16h-154l-34 -163h-67l153 716h67zM227 516l-63 -296h164q19 1 36 2q48 3 74 12q52 17 80 74q21 43 21 91q0 79 -60 103q-36 14 -143 14h-109z" />
    <glyph glyph-name="germandbls" unicode="&#xdf;" horiz-adv-x="500" 
d="M137 504l4 15l4 17q5 20 10 36q13 43 29 70q24 39 70 63q46 23 96 23q67 0 105 -33q35 -31 35 -82q0 -35 -22 -71q-18 -28 -97 -128l-2 -3l-3 -4l-6 -9q-7 -13 -7 -21q0 -18 56 -74q76 -76 76 -150q0 -68 -46 -116q-48 -49 -119 -49q-57 0 -99 35q-15 12 -28 30
q-5 6 -10 13l-4 7l-3 5l50 35l6 -10l8 -12q10 -13 20 -23q28 -26 61 -26q42 0 73 33q30 33 30 77q0 10 -1 17q-2 12 -6 23q-13 30 -47 64q-48 48 -62 68q-18 26 -18 56q0 31 68 111q71 85 71 125q0 29 -26 46q-23 15 -59 15q-72 0 -110 -67q-14 -25 -25 -63l-9 -33l-4 -16
l-3 -16l-107 -482h-61z" />
    <glyph glyph-name="agrave" unicode="&#xe0;" 
d="M109 379l4 11l4 11q5 14 11 25q15 29 37 49q58 55 170 55q96 0 147 -42q45 -37 45 -94q0 -18 -7 -54l-43 -211l-1 -5l-1 -7q-2 -10 -4 -19q-4 -26 -4 -42q0 -21 10 -56h-66q-7 27 -7 67l-5 -5l-5 -5q-7 -7 -13 -12q-18 -16 -37 -26q-55 -31 -129 -31q-89 0 -131 54
q-15 21 -23 47q-6 21 -6 42q0 62 39 103q31 33 72 46q40 12 122 16q118 5 168 23l5 21q1 3 2 8q1 6 2 13q3 16 3 27q0 45 -40 71q-38 24 -101 24q-79 0 -120 -41q-15 -15 -26 -36q-4 -8 -7 -17l-5 -15zM445 270q-55 -13 -162 -21l-10 -1l-12 -1q-14 -1 -25 -3
q-32 -5 -55 -14q-65 -27 -65 -92q0 -45 33 -74t83 -29q24 0 51 7q31 8 58 26q70 44 90 137zM367 716l49 -128h-49l-90 128h90z" />
    <glyph glyph-name="aacute" unicode="&#xe1;" 
d="M109 379l4 11l4 11q5 14 11 25q15 29 37 49q58 55 170 55q96 0 147 -42q45 -37 45 -94q0 -18 -7 -54l-43 -211l-1 -5l-1 -7q-2 -10 -4 -19q-4 -26 -4 -42q0 -21 10 -56h-66q-7 27 -7 67l-5 -5l-5 -5q-7 -7 -13 -12q-18 -16 -37 -26q-55 -31 -129 -31q-89 0 -131 54
q-15 21 -23 47q-6 21 -6 42q0 62 39 103q31 33 72 46q40 12 122 16q118 5 168 23l5 21q1 3 2 8q1 6 2 13q3 16 3 27q0 45 -40 71q-38 24 -101 24q-79 0 -120 -41q-15 -15 -26 -36q-4 -8 -7 -17l-5 -15zM445 270q-55 -13 -162 -21l-10 -1l-12 -1q-14 -1 -25 -3
q-32 -5 -55 -14q-65 -27 -65 -92q0 -45 33 -74t83 -29q24 0 51 7q31 8 58 26q70 44 90 137zM498 716l-133 -128h-51l83 128h101z" />
    <glyph glyph-name="acircumflex" unicode="&#xe2;" 
d="M109 379l4 11l4 11q5 14 11 25q15 29 37 49q58 55 170 55q96 0 147 -42q45 -37 45 -94q0 -18 -7 -54l-43 -211l-1 -5l-1 -7q-2 -10 -4 -19q-4 -26 -4 -42q0 -21 10 -56h-66q-7 27 -7 67l-5 -5l-5 -5q-7 -7 -13 -12q-18 -16 -37 -26q-55 -31 -129 -31q-89 0 -131 54
q-15 21 -23 47q-6 21 -6 42q0 62 39 103q31 33 72 46q40 12 122 16q118 5 168 23l5 21q1 3 2 8q1 6 2 13q3 16 3 27q0 45 -40 71q-38 24 -101 24q-79 0 -120 -41q-15 -15 -26 -36q-4 -8 -7 -17l-5 -15zM445 270q-55 -13 -162 -21l-10 -1l-12 -1q-14 -1 -25 -3
q-32 -5 -55 -14q-65 -27 -65 -92q0 -45 33 -74t83 -29q24 0 51 7q31 8 58 26q70 44 90 137zM433 716l61 -128h-61l-43 90l-92 -90h-77l129 128h83z" />
    <glyph glyph-name="atilde" unicode="&#xe3;" 
d="M109 379l4 11l4 11q5 14 11 25q15 29 37 49q58 55 170 55q96 0 147 -42q45 -37 45 -94q0 -18 -7 -54l-43 -211l-1 -5l-1 -7q-2 -10 -4 -19q-4 -26 -4 -42q0 -21 10 -56h-66q-7 27 -7 67l-5 -5l-5 -5q-7 -7 -13 -12q-18 -16 -37 -26q-55 -31 -129 -31q-89 0 -131 54
q-15 21 -23 47q-6 21 -6 42q0 62 39 103q31 33 72 46q40 12 122 16q118 5 168 23l5 21q1 3 2 8q1 6 2 13q3 16 3 27q0 45 -40 71q-38 24 -101 24q-79 0 -120 -41q-15 -15 -26 -36q-4 -8 -7 -17l-5 -15zM445 270q-55 -13 -162 -21l-10 -1l-12 -1q-14 -1 -25 -3
q-32 -5 -55 -14q-65 -27 -65 -92q0 -45 33 -74t83 -29q24 0 51 7q31 8 58 26q70 44 90 137zM523 693q-15 -51 -43 -74q-11 -9 -24 -13q-10 -4 -20 -4q-15 0 -44 10l-46 15q-1 0 -6 1l-5 2l-6 2l-13 3q-7 1 -11 1q-12 0 -24 -11q-4 -5 -9 -11l-7 -11h-50l2 5l3 6q3 7 6 13
q8 17 18 30q27 36 62 36q14 0 31 -4q14 -4 24 -8l39 -13q24 -8 32 -8q24 0 38 33h53z" />
    <glyph glyph-name="adieresis" unicode="&#xe4;" 
d="M109 379l4 11l4 11q5 14 11 25q15 29 37 49q58 55 170 55q96 0 147 -42q45 -37 45 -94q0 -18 -7 -54l-43 -211l-1 -5l-1 -7q-2 -10 -4 -19q-4 -26 -4 -42q0 -21 10 -56h-66q-7 27 -7 67l-5 -5l-5 -5q-7 -7 -13 -12q-18 -16 -37 -26q-55 -31 -129 -31q-89 0 -131 54
q-15 21 -23 47q-6 21 -6 42q0 62 39 103q31 33 72 46q40 12 122 16q118 5 168 23l5 21q1 3 2 8q1 6 2 13q3 16 3 27q0 45 -40 71q-38 24 -101 24q-79 0 -120 -41q-15 -15 -26 -36q-4 -8 -7 -17l-5 -15zM445 270q-55 -13 -162 -21l-10 -1l-12 -1q-14 -1 -25 -3
q-32 -5 -55 -14q-65 -27 -65 -92q0 -45 33 -74t83 -29q24 0 51 7q31 8 58 26q70 44 90 137zM323 677l-18 -85h-62l18 85h62zM492 677l-18 -85h-62l18 85h62z" />
    <glyph glyph-name="aring" unicode="&#xe5;" 
d="M109 379l4 11l4 11q5 14 11 25q15 29 37 49q58 55 170 55q96 0 147 -42q45 -37 45 -94q0 -18 -7 -54l-43 -211l-1 -5l-1 -7q-2 -10 -4 -19q-4 -26 -4 -42q0 -21 10 -56h-66q-7 27 -7 67l-5 -5l-5 -5q-7 -7 -13 -12q-18 -16 -37 -26q-55 -31 -129 -31q-89 0 -131 54
q-15 21 -23 47q-6 21 -6 42q0 62 39 103q31 33 72 46q40 12 122 16q118 5 168 23l5 21q1 3 2 8q1 6 2 13q3 16 3 27q0 45 -40 71q-38 24 -101 24q-79 0 -120 -41q-15 -15 -26 -36q-4 -8 -7 -17l-5 -15zM445 270q-55 -13 -162 -21l-10 -1l-12 -1q-14 -1 -25 -3
q-32 -5 -55 -14q-65 -27 -65 -92q0 -45 33 -74t83 -29q24 0 51 7q31 8 58 26q70 44 90 137zM452 722q26 -25 26 -62t-26 -63q-25 -26 -62 -26t-63 26t-26 63t26 62q26 26 63 26t62 -26zM351 698q-16 -16 -16 -38t16 -39q17 -16 39 -16t38 16t16 39t-16 38q-15 16 -38 16
t-39 -16z" />
    <glyph glyph-name="ae" unicode="&#xe6;" horiz-adv-x="889" 
d="M486 251l-2 -18l-3 -19q-2 -23 -2 -37q0 -59 35 -99q36 -42 92 -42q65 0 116 51q18 18 33 41q6 9 11 18l4 7l3 6l60 -7q-45 -99 -110 -137q-45 -27 -107 -27q-136 0 -182 125q-70 -125 -215 -125q-78 0 -123 46q-40 40 -40 97q0 60 34 102q24 29 61 43q46 17 141 21
q97 4 146 18q6 19 8 32q4 19 4 36q0 40 -26 68q-32 34 -94 34q-85 0 -126 -42q-15 -15 -24 -36q-4 -8 -7 -16l-2 -8l-2 -6l-60 3l3 10l3 10q4 13 9 23q12 27 32 46q64 61 171 61h15q10 -1 19 -2q25 -3 47 -10q61 -20 95 -71l5 6l5 6q6 7 13 13q16 16 34 27q48 31 115 31
q84 0 133 -52q53 -57 53 -165q0 -13 -1 -35q-1 -19 -2 -27h-372zM804 298q7 105 -43 154q-19 18 -44 26q-19 7 -38 7q-54 0 -95 -32q-37 -29 -61 -78q-9 -18 -16 -41l-6 -19l-5 -17h308zM297 251l-11 -1h-12q-15 -1 -27 -3q-35 -5 -60 -14q-70 -26 -70 -93q0 -16 4 -31
q6 -20 18 -35q30 -39 93 -39q96 0 151 95q18 32 30 76q4 16 8 34l3 15l2 12q-69 -13 -129 -16z" />
    <glyph glyph-name="ccedilla" unicode="&#xe7;" 
d="M261 -49q77 -17 77 -67q0 -31 -26 -51q-32 -26 -99 -26q-43 0 -77 12l19 37q45 -9 62 -9h7q5 0 9 1q14 1 24 4q30 9 30 34q0 12 -11 24q-10 10 -24 14q-11 2 -38 2l24 64q-90 9 -136 82q-35 56 -35 129q0 42 12 91q15 61 44 109q76 129 221 129q95 0 145 -60
q18 -21 30 -51q5 -11 9 -24l3 -11l3 -10l-59 -6l-2 7l-2 7q-3 10 -6 18q-9 22 -23 38q-37 45 -105 45q-107 0 -165 -110q-22 -42 -34 -94q-10 -44 -10 -83v-10l2 -20q5 -30 16 -55q36 -76 128 -76q21 0 41 5q26 6 48 19q57 34 88 113l60 -5q-40 -86 -84 -125
q-57 -50 -151 -54z" />
    <glyph glyph-name="egrave" unicode="&#xe8;" 
d="M132 251l-1 -13l-1 -15q-2 -19 -2 -28q0 -61 33 -106q39 -54 109 -54q97 0 165 122l66 -4q-42 -80 -87 -117q-59 -48 -146 -48q-101 0 -151 60q-50 61 -50 151q0 117 61 212q76 119 212 119q91 0 142 -60q49 -58 49 -152q0 -16 -2 -35l-1 -17l-2 -15h-394zM470 298
q8 109 -48 156q-20 17 -47 24q-10 3 -21 4q-9 1 -17 1h-6l-8 -1q-10 0 -20 -2q-28 -6 -53 -21q-74 -46 -107 -161h327zM367 716l49 -128h-49l-90 128h90z" />
    <glyph glyph-name="eacute" unicode="&#xe9;" 
d="M132 251l-1 -13l-1 -15q-2 -19 -2 -28q0 -61 33 -106q39 -54 109 -54q97 0 165 122l66 -4q-42 -80 -87 -117q-59 -48 -146 -48q-101 0 -151 60q-50 61 -50 151q0 117 61 212q76 119 212 119q91 0 142 -60q49 -58 49 -152q0 -16 -2 -35l-1 -17l-2 -15h-394zM470 298
q8 109 -48 156q-20 17 -47 24q-10 3 -21 4q-9 1 -17 1h-6l-8 -1q-10 0 -20 -2q-28 -6 -53 -21q-74 -46 -107 -161h327zM498 716l-133 -128h-51l83 128h101z" />
    <glyph glyph-name="ecircumflex" unicode="&#xea;" 
d="M132 251l-1 -13l-1 -15q-2 -19 -2 -28q0 -61 33 -106q39 -54 109 -54q97 0 165 122l66 -4q-42 -80 -87 -117q-59 -48 -146 -48q-101 0 -151 60q-50 61 -50 151q0 117 61 212q76 119 212 119q91 0 142 -60q49 -58 49 -152q0 -16 -2 -35l-1 -17l-2 -15h-394zM470 298
q8 109 -48 156q-20 17 -47 24q-10 3 -21 4q-9 1 -17 1h-6l-8 -1q-10 0 -20 -2q-28 -6 -53 -21q-74 -46 -107 -161h327zM433 716l61 -128h-61l-43 90l-92 -90h-77l129 128h83z" />
    <glyph glyph-name="edieresis" unicode="&#xeb;" 
d="M132 251l-1 -13l-1 -15q-2 -19 -2 -28q0 -61 33 -106q39 -54 109 -54q97 0 165 122l66 -4q-42 -80 -87 -117q-59 -48 -146 -48q-101 0 -151 60q-50 61 -50 151q0 117 61 212q76 119 212 119q91 0 142 -60q49 -58 49 -152q0 -16 -2 -35l-1 -17l-2 -15h-394zM470 298
q8 109 -48 156q-20 17 -47 24q-10 3 -21 4q-9 1 -17 1h-6l-8 -1q-10 0 -20 -2q-28 -6 -53 -21q-74 -46 -107 -161h327zM323 677l-18 -85h-62l18 85h62zM492 677l-18 -85h-62l18 85h62z" />
    <glyph glyph-name="igrave" unicode="&#xec;" horiz-adv-x="222" 
d="M218 518l-110 -518h-61l110 518h61zM200 716l49 -128h-49l-90 128h90z" />
    <glyph glyph-name="iacute" unicode="&#xed;" horiz-adv-x="222" 
d="M218 518l-110 -518h-61l110 518h61zM331 716l-133 -128h-51l83 128h101z" />
    <glyph glyph-name="icircumflex" unicode="&#xee;" horiz-adv-x="222" 
d="M218 518l-110 -518h-61l110 518h61zM266 716l61 -128h-61l-43 90l-92 -90h-77l129 128h83z" />
    <glyph glyph-name="idieresis" unicode="&#xef;" horiz-adv-x="222" 
d="M218 518l-110 -518h-61l110 518h61zM156 677l-18 -85h-62l18 85h62zM325 677l-18 -85h-62l18 85h62z" />
    <glyph glyph-name="eth" unicode="&#xf0;" 
d="M378 716q19 -22 34 -43l117 43l14 -43l-106 -37q99 -153 99 -314q0 -122 -59 -216q-75 -118 -213 -118q-106 0 -154 62q-27 35 -38 83q-5 17 -7 36q-1 13 -1 26q0 120 64 217q73 111 190 111q44 0 82 -17q14 -7 27 -16l10 -7q4 -3 8 -7l2 2q-25 79 -58 139l-143 -51
l-14 40l132 49q-19 28 -47 61h61zM431 435q-39 41 -99 41q-94 0 -154 -89q-53 -80 -53 -181q0 -89 48 -134q39 -37 95 -37q95 0 155 98q52 83 52 178q0 78 -44 124z" />
    <glyph glyph-name="ntilde" unicode="&#xf1;" 
d="M216 518l-19 -93l2 -2q6 8 12 15q7 9 14 17q19 20 40 35q55 40 123 40q73 0 110 -43q29 -36 29 -91q0 -14 -3 -38q-3 -23 -6 -38l-69 -320h-61l70 323q8 39 8 63q0 42 -28 66q-25 21 -66 21q-85 0 -147 -78q-25 -31 -46 -85q-17 -45 -27 -91l-47 -219h-61l112 518h60z
M523 693q-15 -51 -43 -74q-11 -9 -24 -13q-10 -4 -20 -4q-15 0 -44 10l-46 15q-1 0 -6 1l-5 2l-6 2l-13 3q-7 1 -11 1q-12 0 -24 -11q-4 -5 -9 -11l-7 -11h-50l2 5l3 6q3 7 6 13q8 17 18 30q27 36 62 36q14 0 31 -4q14 -4 24 -8l39 -13q24 -8 32 -8q24 0 38 33h53z" />
    <glyph glyph-name="ograve" unicode="&#xf2;" 
d="M125 410q74 120 210 120q91 0 145 -54q57 -58 57 -162q0 -115 -59 -208q-76 -118 -216 -118q-109 0 -160 78q-20 29 -29 68q-7 30 -7 61q0 120 59 215zM157 92q38 -57 112 -57q98 0 158 103q49 86 49 186q0 74 -43 119q-40 40 -98 40q-100 0 -159 -104q-49 -84 -49 -178
q0 -64 30 -109zM367 716l49 -128h-49l-90 128h90z" />
    <glyph glyph-name="oacute" unicode="&#xf3;" 
d="M125 410q74 120 210 120q91 0 145 -54q57 -58 57 -162q0 -115 -59 -208q-76 -118 -216 -118q-109 0 -160 78q-20 29 -29 68q-7 30 -7 61q0 120 59 215zM157 92q38 -57 112 -57q98 0 158 103q49 86 49 186q0 74 -43 119q-40 40 -98 40q-100 0 -159 -104q-49 -84 -49 -178
q0 -64 30 -109zM498 716l-133 -128h-51l83 128h101z" />
    <glyph glyph-name="ocircumflex" unicode="&#xf4;" 
d="M125 410q74 120 210 120q91 0 145 -54q57 -58 57 -162q0 -115 -59 -208q-76 -118 -216 -118q-109 0 -160 78q-20 29 -29 68q-7 30 -7 61q0 120 59 215zM157 92q38 -57 112 -57q98 0 158 103q49 86 49 186q0 74 -43 119q-40 40 -98 40q-100 0 -159 -104q-49 -84 -49 -178
q0 -64 30 -109zM433 716l61 -128h-61l-43 90l-92 -90h-77l129 128h83z" />
    <glyph glyph-name="otilde" unicode="&#xf5;" 
d="M125 410q74 120 210 120q91 0 145 -54q57 -58 57 -162q0 -115 -59 -208q-76 -118 -216 -118q-109 0 -160 78q-20 29 -29 68q-7 30 -7 61q0 120 59 215zM157 92q38 -57 112 -57q98 0 158 103q49 86 49 186q0 74 -43 119q-40 40 -98 40q-100 0 -159 -104q-49 -84 -49 -178
q0 -64 30 -109zM523 693q-15 -51 -43 -74q-11 -9 -24 -13q-10 -4 -20 -4q-15 0 -44 10l-46 15q-1 0 -6 1l-5 2l-6 2l-13 3q-7 1 -11 1q-12 0 -24 -11q-4 -5 -9 -11l-7 -11h-50l2 5l3 6q3 7 6 13q8 17 18 30q27 36 62 36q14 0 31 -4q14 -4 24 -8l39 -13q24 -8 32 -8
q24 0 38 33h53z" />
    <glyph glyph-name="odieresis" unicode="&#xf6;" 
d="M125 410q74 120 210 120q91 0 145 -54q57 -58 57 -162q0 -115 -59 -208q-76 -118 -216 -118q-109 0 -160 78q-20 29 -29 68q-7 30 -7 61q0 120 59 215zM157 92q38 -57 112 -57q98 0 158 103q49 86 49 186q0 74 -43 119q-40 40 -98 40q-100 0 -159 -104q-49 -84 -49 -178
q0 -64 30 -109zM323 677l-18 -85h-62l18 85h62zM492 677l-18 -85h-62l18 85h62z" />
    <glyph glyph-name="divide" unicode="&#xf7;" horiz-adv-x="660" 
d="M627 375v-46h-524v46h524zM401 555v-72h-72v72h72zM401 221v-72h-72v72h72z" />
    <glyph glyph-name="oslash" unicode="&#xf8;" 
d="M542 530l28 -28l-62 -63q17 -29 24 -71q3 -15 4 -32q1 -12 1 -24q0 -112 -58 -204q-76 -120 -217 -120q-90 0 -142 55l-63 -63l-28 28l66 68q-16 28 -24 66q-7 31 -7 61q0 45 13 96q16 60 45 108q76 123 213 123q60 0 105 -24q15 -8 28 -19q5 -4 9 -8l4 -4l3 -3zM443 430
l-2 3l-3 3q-3 4 -7 8q-10 10 -21 17q-33 22 -75 22q-97 0 -159 -101q-51 -86 -51 -182q0 -24 6 -48q2 -10 5 -18q2 -7 4 -13zM160 85q25 -32 66 -44q13 -4 27 -5q5 -1 10 -1h6q98 0 158 104q49 85 49 184q0 18 -2 35q-3 22 -9 37z" />
    <glyph glyph-name="ugrave" unicode="&#xf9;" 
d="M388 0l20 93l-2 2q-6 -8 -12 -15q-7 -9 -14 -17q-19 -20 -40 -35q-56 -40 -123 -40q-81 0 -117 53q-14 19 -20 44q-4 19 -4 37t4 43q1 9 3 19l2 8l1 6l70 320h61l-70 -322q-7 -31 -7 -64q0 -48 33 -71q13 -9 30 -13q14 -4 29 -4q85 0 149 80q26 32 50 101q8 23 14 48
q3 9 5 17q1 6 2 9l47 219h61l-112 -518h-60zM367 716l49 -128h-49l-90 128h90z" />
    <glyph glyph-name="uacute" unicode="&#xfa;" 
d="M388 0l20 93l-2 2q-6 -8 -12 -15q-7 -9 -14 -17q-19 -20 -40 -35q-56 -40 -123 -40q-81 0 -117 53q-14 19 -20 44q-4 19 -4 37t4 43q1 9 3 19l2 8l1 6l70 320h61l-70 -322q-7 -31 -7 -64q0 -48 33 -71q13 -9 30 -13q14 -4 29 -4q85 0 149 80q26 32 50 101q8 23 14 48
q3 9 5 17q1 6 2 9l47 219h61l-112 -518h-60zM498 716l-133 -128h-51l83 128h101z" />
    <glyph glyph-name="ucircumflex" unicode="&#xfb;" 
d="M388 0l20 93l-2 2q-6 -8 -12 -15q-7 -9 -14 -17q-19 -20 -40 -35q-56 -40 -123 -40q-81 0 -117 53q-14 19 -20 44q-4 19 -4 37t4 43q1 9 3 19l2 8l1 6l70 320h61l-70 -322q-7 -31 -7 -64q0 -48 33 -71q13 -9 30 -13q14 -4 29 -4q85 0 149 80q26 32 50 101q8 23 14 48
q3 9 5 17q1 6 2 9l47 219h61l-112 -518h-60zM433 716l61 -128h-61l-43 90l-92 -90h-77l129 128h83z" />
    <glyph glyph-name="udieresis" unicode="&#xfc;" 
d="M388 0l20 93l-2 2q-6 -8 -12 -15q-7 -9 -14 -17q-19 -20 -40 -35q-56 -40 -123 -40q-81 0 -117 53q-14 19 -20 44q-4 19 -4 37t4 43q1 9 3 19l2 8l1 6l70 320h61l-70 -322q-7 -31 -7 -64q0 -48 33 -71q13 -9 30 -13q14 -4 29 -4q85 0 149 80q26 32 50 101q8 23 14 48
q3 9 5 17q1 6 2 9l47 219h61l-112 -518h-60zM323 677l-18 -85h-62l18 85h62zM492 677l-18 -85h-62l18 85h62z" />
    <glyph glyph-name="yacute" unicode="&#xfd;" horiz-adv-x="500" 
d="M138 518l77 -458l271 458h64l-374 -626q-36 -60 -64 -82q-25 -20 -58 -20q-18 0 -38 6q-15 5 -34 13l7 56l4 -2l6 -2q8 -3 15 -4q20 -6 37 -6q18 0 35 15q12 10 23 29l62 105l-93 518h60zM470 716l-133 -128h-51l83 128h101z" />
    <glyph glyph-name="thorn" unicode="&#xfe;" horiz-adv-x="611" 
d="M196 716h61l-60 -272l2 -2q15 18 26 29q18 17 37 29q50 30 122 30q101 0 155 -68q47 -59 47 -151q0 -115 -65 -208q-80 -115 -218 -115q-78 0 -129 44q-18 15 -32 36q-6 8 -11 17l-4 7l-3 6l-65 -296h-60zM192 81q42 -48 111 -48q103 0 167 93q55 80 55 178q0 74 -34 123
q-41 56 -116 56q-114 0 -175 -110q-48 -86 -48 -184q0 -63 40 -108z" />
    <glyph glyph-name="ydieresis" unicode="&#xff;" horiz-adv-x="500" 
d="M138 518l77 -458l271 458h64l-374 -626q-36 -60 -64 -82q-25 -20 -58 -20q-18 0 -38 6q-15 5 -34 13l7 56l4 -2l6 -2q8 -3 15 -4q20 -6 37 -6q18 0 35 15q12 10 23 29l62 105l-93 518h60zM295 677l-18 -85h-62l18 85h62zM464 677l-18 -85h-62l18 85h62z" />
    <glyph glyph-name="dotlessi" unicode="&#x131;" horiz-adv-x="222" 
d="M218 518l-110 -518h-61l110 518h61z" />
    <glyph glyph-name="Lslash" unicode="&#x141;" 
d="M271 716l-66 -306l197 108l-11 -54l-197 -108l-64 -299h375l-12 -57h-441l67 313l-90 -50l12 55l89 50l75 348h66z" />
    <glyph glyph-name="lslash" unicode="&#x142;" horiz-adv-x="222" 
d="M260 716l-63 -303l86 46l-11 -53l-87 -45l-77 -361h-61l70 326l-83 -42l13 52l81 41l71 339h61z" />
    <glyph glyph-name="OE" unicode="&#x152;" horiz-adv-x="1000" 
d="M1044 716l-12 -57h-309l-55 -261h303l-11 -57h-304l-61 -284h352l-12 -57h-421l16 71l-2 2q-14 -16 -26 -27q-18 -16 -38 -28q-53 -30 -125 -30q-132 0 -201 95q-58 81 -58 204q0 170 94 299q102 142 264 142h15q11 -1 21 -2q30 -4 57 -15q78 -31 111 -110h2l24 115h376z
M186 120q49 -78 153 -78q122 0 192 127q37 68 62 187q9 44 14 86q5 37 5 55q0 72 -47 122q-51 55 -133 55q-143 0 -222 -142q-63 -112 -63 -250q0 -100 39 -162z" />
    <glyph glyph-name="oe" unicode="&#x153;" horiz-adv-x="944" 
d="M527 250l-2 -12l-1 -13q-2 -16 -2 -27q0 -70 37 -116q38 -47 98 -47q58 0 108 45q18 17 35 40q6 8 13 19l6 8l5 8l66 -5q-6 -13 -12 -23q-8 -14 -16 -26q-20 -31 -45 -53q-66 -60 -161 -60q-81 0 -130 44q-18 16 -33 38q-6 9 -11 19l-5 9l-4 8q-33 -52 -86 -83
q-58 -35 -122 -35q-105 0 -157 79q-39 60 -39 145q0 109 60 201q77 117 212 117q124 0 177 -123l4 8l6 8q6 10 13 19q17 24 39 41q58 47 145 47q112 0 163 -83q19 -31 28 -70q6 -29 6 -56q0 -15 -2 -38q-1 -9 -2 -19l-2 -14h-389zM858 297q7 106 -47 154q-20 17 -47 26
q-20 6 -40 6q-88 0 -141 -77q-18 -27 -32 -62q-5 -12 -9 -27l-3 -11l-3 -9h322zM424 450q-36 33 -89 33q-97 0 -156 -98q-49 -81 -49 -177q0 -24 5 -49q7 -32 21 -57q36 -67 110 -67q90 0 147 82q57 80 57 203q0 88 -46 130z" />
    <glyph glyph-name="Scaron" unicode="&#x160;" horiz-adv-x="611" 
d="M125 220v-10l1 -11q1 -15 3 -27q6 -34 22 -59q45 -71 163 -71q83 0 140 40q59 42 59 107q0 51 -36 81q-34 28 -146 75q-91 38 -131 74q-55 50 -55 124t54 125q64 60 182 60q140 0 199 -75q22 -27 34 -66q4 -14 7 -32l3 -15l2 -13l-66 -9l-1 9l-1 9q-2 13 -4 24
q-8 29 -23 51q-44 63 -151 63q-82 0 -129 -43q-39 -37 -39 -87q0 -46 38 -80q33 -29 111 -60q116 -47 159 -82q60 -49 60 -126q0 -85 -69 -144q-74 -64 -198 -64q-108 0 -170 44q-80 56 -83 182zM382 896l42 -92l92 92h78l-130 -128h-82l-62 128h62z" />
    <glyph glyph-name="scaron" unicode="&#x161;" horiz-adv-x="500" 
d="M107 193v-16q0 -12 2 -22q3 -30 14 -52q31 -65 119 -65q57 0 96 27q41 27 41 68q0 39 -35 67q-28 23 -99 52q-67 27 -93 53q-33 32 -33 84q0 65 49 103t132 38q97 0 145 -56q20 -23 29 -51q4 -11 6 -24l2 -10l1 -9l-60 -6q-18 106 -124 106q-63 0 -95 -27
q-26 -21 -26 -54q0 -26 19 -45q22 -24 81 -49l30 -13l29 -14q32 -17 53 -34q54 -43 54 -103q0 -6 -1 -13q-2 -11 -4 -21q-9 -29 -26 -51q-52 -68 -168 -68q-207 0 -202 201zM297 716l42 -92l92 92h78l-130 -128h-82l-62 128h62z" />
    <glyph glyph-name="Ydieresis" unicode="&#x178;" horiz-adv-x="611" 
d="M189 716l178 -384l298 384h82l-361 -444l-57 -272h-67l59 279l-203 437h71zM390 857l-18 -85h-62l18 85h62zM559 857l-18 -85h-62l18 85h62z" />
    <glyph glyph-name="Zcaron" unicode="&#x17d;" horiz-adv-x="611" 
d="M645 716l-8 -63l-499 -596h433l-11 -57h-516l11 56l509 603h-416l12 57h485zM382 896l42 -92l92 92h78l-130 -128h-82l-62 128h62z" />
    <glyph glyph-name="zcaron" unicode="&#x17e;" horiz-adv-x="500" 
d="M499 518l-12 -56l-373 -406h321l-12 -56h-401l12 56l376 406h-310l14 56h385zM297 716l42 -92l92 92h78l-130 -128h-82l-62 128h62z" />
    <glyph glyph-name="florin" unicode="&#x192;" 
d="M482 518l-11 -44h-107l-121 -557q-13 -61 -36 -88q-33 -39 -99 -39q-24 0 -48 5q-16 3 -39 10l11 50q18 -5 31 -7q21 -4 40 -4h7l8 1q12 1 21 5q27 11 37 42l8 37q5 19 8 34q5 21 8 37l102 474h-82l9 44h82l13 52l6 28l2 10l3 10q3 11 6 21q8 25 21 42q34 47 102 47
q29 0 89 -16l-10 -48q-40 10 -75 10q-38 0 -55 -24q-15 -20 -28 -78l-12 -54h109z" />
    <glyph glyph-name="circumflex" unicode="&#x2c6;" horiz-adv-x="333" 
d="M321 716l61 -128h-61l-43 90l-92 -90h-77l129 128h83z" />
    <glyph glyph-name="caron" unicode="&#x2c7;" horiz-adv-x="333" 
d="M213 716l42 -92l92 92h78l-130 -128h-82l-62 128h62z" />
    <glyph glyph-name="uni02C9" unicode="&#x2c9;" horiz-adv-x="333" 
d="M410 653l-12 -54h-293l12 54h293z" />
    <glyph glyph-name="breve" unicode="&#x2d8;" horiz-adv-x="333" 
d="M169 706q3 -39 26 -57q18 -13 42 -13h7q5 0 10 1q14 2 26 8q36 16 58 61h58q-11 -23 -21 -40q-15 -23 -31 -39q-45 -41 -107 -41q-45 0 -76 24q-41 31 -44 96h52z" />
    <glyph glyph-name="dotaccent" unicode="&#x2d9;" horiz-adv-x="333" 
d="M295 687l-20 -94h-82l20 94h82z" />
    <glyph glyph-name="ring" unicode="&#x2da;" horiz-adv-x="333" 
d="M340 722q26 -25 26 -62t-26 -63q-25 -26 -62 -26t-63 26t-26 63t26 62q26 26 63 26t62 -26zM239 698q-16 -16 -16 -38t16 -39q17 -16 39 -16t38 16t16 39t-16 38q-15 16 -38 16t-39 -16z" />
    <glyph glyph-name="ogonek" unicode="&#x2db;" horiz-adv-x="333" 
d="M125 9q-24 -57 -24 -100q0 -58 57 -58q16 0 35 4q25 5 54 18l-10 -48q-64 -22 -102 -22q-34 0 -57 18q-29 23 -29 68q0 46 30 120h46z" />
    <glyph glyph-name="tilde" unicode="&#x2dc;" horiz-adv-x="333" 
d="M411 693q-15 -51 -43 -74q-11 -9 -24 -13q-10 -4 -20 -4q-15 0 -44 10l-46 15q-1 0 -6 1l-5 2l-6 2l-13 3q-7 1 -11 1q-12 0 -24 -11q-4 -5 -9 -11l-7 -11h-50l2 5l3 6q3 7 6 13q8 17 18 30q27 36 62 36q14 0 31 -4q14 -4 24 -8l39 -13q24 -8 32 -8q24 0 38 33h53z" />
    <glyph glyph-name="hungarumlaut" unicode="&#x2dd;" horiz-adv-x="333" 
d="M460 716l-133 -128h-51l83 128h101zM322 716l-133 -128h-51l83 128h101z" />
    <glyph glyph-name="uni03A9" unicode="&#x3a9;" horiz-adv-x="713" 
d="M436 0v54q29 25 51 48q30 33 51 68q55 91 55 207q0 123 -60 199q-64 80 -176 80q-108 0 -175 -78t-67 -201q0 -113 54 -203q37 -62 105 -120v-54h-224v54h156q-64 51 -103 119q-55 94 -55 212q0 141 86 234q87 93 223 93q141 0 223 -91q79 -88 79 -235q0 -109 -52 -203
q-41 -76 -106 -129h158v-54h-223z" />
    <glyph glyph-name="uni03BC" unicode="&#x3bc;" 
d="M213 518l-66 -307q-12 -55 -12 -76q0 -41 25 -66q24 -25 64 -25q43 0 84 21q43 23 68 62q54 86 70 163l49 228h61l-111 -518h-61l20 94l-2 2q-5 -7 -10 -13l-14 -16q-18 -20 -39 -36q-58 -43 -125 -43q-39 0 -67 20q-10 7 -20 18l-9 10l-7 9l-52 -243h-61l154 716h61z
" />
    <glyph glyph-name="pi" unicode="&#x3c0;" horiz-adv-x="658" 
d="M606 6q-24 -13 -61 -13q-114 0 -114 127v328h-205v-317q0 -81 -14 -131h-65q15 52 15 133v315q-55 0 -105 -23l-9 24l-10 24q22 11 56 18q40 9 83 9h428v-52h-110v-322q0 -81 65 -81q15 0 32 7z" />
    <glyph glyph-name="endash" unicode="&#x2013;" horiz-adv-x="500" 
d="M523 273v-46h-512v46h512z" />
    <glyph glyph-name="emdash" unicode="&#x2014;" horiz-adv-x="1000" 
d="M1023 273v-46h-1012v46h1012z" />
    <glyph glyph-name="quoteleft" unicode="&#x2018;" horiz-adv-x="222" 
d="M144 502l20 95q13 64 41 96q11 12 26 21l12 8l13 6l16 -35q-35 -17 -47 -35q-12 -16 -20 -61h45l-21 -95h-85z" />
    <glyph glyph-name="quoteright" unicode="&#x2019;" horiz-adv-x="222" 
d="M272 728l-20 -95q-14 -64 -41 -96q-11 -12 -26 -21l-12 -8l-13 -6l-16 36q35 17 47 34q11 16 19 61h-44l21 95h85z" />
    <glyph glyph-name="quotesinglbase" unicode="&#x201a;" horiz-adv-x="222" 
d="M176 95l-20 -95q-14 -64 -41 -96q-11 -12 -26 -21l-12 -8l-13 -6l-16 36q35 17 47 34q11 16 19 61h-44l21 95h85z" />
    <glyph glyph-name="quotedblleft" unicode="&#x201c;" horiz-adv-x="389" 
d="M144 502l20 95q13 64 41 96q11 12 26 21l12 8l13 6l16 -35q-35 -17 -47 -35q-12 -16 -20 -61h45l-21 -95h-85zM311 502l20 95q13 64 41 96q11 12 26 21l12 8l13 6l16 -35q-35 -17 -47 -35q-12 -16 -20 -61h45l-21 -95h-85z" />
    <glyph glyph-name="quotedblright" unicode="&#x201d;" horiz-adv-x="389" 
d="M272 728l-20 -95q-14 -64 -41 -96q-11 -12 -26 -21l-12 -8l-13 -6l-16 36q35 17 47 34q11 16 19 61h-44l21 95h85zM439 728l-20 -95q-14 -64 -41 -96q-11 -12 -26 -21l-12 -8l-13 -6l-16 36q35 17 47 34q11 16 19 61h-44l21 95h85z" />
    <glyph glyph-name="quotedblbase" unicode="&#x201e;" horiz-adv-x="389" 
d="M176 95l-20 -95q-14 -64 -41 -96q-11 -12 -26 -21l-12 -8l-13 -6l-16 36q35 17 47 34q11 16 19 61h-44l21 95h85zM343 95l-20 -95q-14 -64 -41 -96q-11 -12 -26 -21l-12 -8l-13 -6l-16 36q35 17 47 34q11 16 19 61h-44l21 95h85z" />
    <glyph glyph-name="dagger" unicode="&#x2020;" 
d="M427 706l-47 -217h203l-10 -54h-203l-131 -605h-62l130 605h-202l11 54h202l46 217h63z" />
    <glyph glyph-name="daggerdbl" unicode="&#x2021;" 
d="M427 706l-41 -194h202l-11 -54h-203l-81 -380h202l-12 -54h-202l-42 -194h-62l43 194h-201l12 54h201l80 380h-202l11 54h202l41 194h63z" />
    <glyph glyph-name="bullet" unicode="&#x2022;" horiz-adv-x="500" 
d="M371 264q-36 -36 -86 -36t-86 36q-36 35 -36 86q0 50 36 86t86 36t86 -36t36 -86q0 -51 -36 -86z" />
    <glyph glyph-name="ellipsis" unicode="&#x2026;" horiz-adv-x="1000" 
d="M209 95l-20 -95h-86l21 95h85zM877 95l-20 -95h-86l21 95h85zM543 95l-20 -95h-86l21 95h85z" />
    <glyph glyph-name="perthousand" unicode="&#x2030;" horiz-adv-x="1000" 
d="M299 598q-1 8 -2 15q-2 19 -7 33q-15 40 -53 40q-54 0 -85 -80q-12 -31 -18 -68q-6 -33 -6 -58q0 -39 15 -63q17 -27 45 -27q56 0 87 71q24 56 24 125v12zM347 583q0 -84 -37 -153q-46 -82 -122 -82q-54 0 -82 42q-26 38 -26 102q0 82 38 153q46 83 119 83q67 0 94 -57
q10 -21 13 -48q2 -11 3 -22v-18zM626 728l-466 -756h-49l466 756h49zM937 222q-1 8 -2 15q-2 19 -7 33q-15 40 -53 40q-54 0 -85 -80q-12 -31 -18 -68q-6 -33 -6 -58q0 -39 15 -63q17 -27 45 -27q56 0 87 71q24 56 24 125v12zM985 207q0 -84 -37 -153q-46 -82 -122 -82
q-54 0 -82 42q-26 38 -26 102q0 82 40 154q46 82 117 82q67 0 94 -57q10 -21 13 -48q2 -11 3 -22v-18zM600 222q-1 8 -2 15q-2 19 -7 33q-15 40 -53 40q-54 0 -85 -80q-12 -31 -18 -68q-6 -33 -6 -58q0 -39 15 -63q17 -27 45 -27q56 0 87 71q24 56 24 125v12zM648 207
q0 -84 -37 -153q-46 -82 -122 -82q-54 0 -82 42q-26 38 -26 102q0 82 40 154q46 82 117 82q67 0 94 -57q10 -21 13 -48q2 -11 3 -22v-18z" />
    <glyph glyph-name="guilsinglleft" unicode="&#x2039;" horiz-adv-x="389" 
d="M327 479l-175 -220l82 -224h-46l-99 233l192 211h46z" />
    <glyph glyph-name="guilsinglright" unicode="&#x203a;" horiz-adv-x="389" 
d="M208 476l87 -232l-185 -209h-58l177 222l-69 219h48z" />
    <glyph glyph-name="fraction" unicode="&#x2044;" horiz-adv-x="167" 
d="M520 728l-687 -756h-57l686 756h58z" />
    <glyph glyph-name="Euro" unicode="&#x20ac;" 
d="M566 646q-41 26 -98 26q-108 0 -190 -74q-74 -67 -108 -176h341l-9 -42h-342q-3 -11 -5 -26l-3 -26h343l-9 -42h-336v-2q0 -97 52 -169q57 -80 151 -80q76 0 152 48l-6 -58q-26 -16 -69 -27q-41 -10 -75 -10q-125 0 -198 88q-67 82 -68 210h-45l8 42h39q2 27 6 52h-53
l8 42h55q37 135 125 213q95 84 230 84q67 0 119 -27z" />
    <glyph glyph-name="uni2113" unicode="&#x2113;" horiz-adv-x="495" 
d="M384 33q-15 -13 -29 -22q-38 -24 -79 -24q-50 0 -79 31q-35 35 -35 114v123l-31 -33l-31 -34l-15 17l-16 17l47 51l46 52v235q0 82 31 126q30 42 83 42q48 0 73 -35q20 -28 20 -67q0 -116 -112 -264q-5 -6 -17 -22l-9 -11q-5 -6 -8 -10v-190q0 -90 65 -90q26 0 52 17
q19 13 39 36l27 -36q-11 -13 -22 -23zM278 677q-55 0 -55 -117v-167l6 7l6 8q7 10 10 16q72 106 72 195q0 58 -39 58z" />
    <glyph glyph-name="trademark" unicode="&#x2122;" horiz-adv-x="940" 
d="M421 716v-43h-131v-356h-49v356h-130v43h310zM542 716l99 -319h2l103 319h75v-399h-45v356h-2l-116 -356h-34l-110 356h-2v-356h-45v399h75z" />
    <glyph glyph-name="Omega" unicode="&#x2126;" horiz-adv-x="713" 
d="M436 0v54q29 25 51 48q30 33 51 68q55 91 55 207q0 123 -60 199q-64 80 -176 80q-108 0 -175 -78t-67 -201q0 -113 54 -203q37 -62 105 -120v-54h-224v54h156q-64 51 -103 119q-55 94 -55 212q0 141 86 234q87 93 223 93q141 0 223 -91q79 -88 79 -235q0 -109 -52 -203
q-41 -76 -106 -129h158v-54h-223z" />
    <glyph glyph-name="estimated" unicode="&#x212e;" horiz-adv-x="662" 
d="M166 296v-204q68 -66 162 -66q137 0 219 135q16 -11 37 -22q-50 -75 -104 -110q-64 -41 -152 -41q-130 0 -211 91q-78 87 -78 218q0 132 78 218q80 90 212 90q133 0 214 -90q76 -86 79 -219h-456zM492 500q-68 68 -163 68q-98 0 -163 -66v-168h326v166z" />
    <glyph glyph-name="partialdiff" unicode="&#x2202;" horiz-adv-x="579" 
d="M501 297q-32 -126 -97 -207q-78 -100 -181 -100q-77 0 -124 51q-48 50 -48 134q0 140 84 235q79 89 182 89q102 0 139 -77h2q5 35 5 73q0 179 -144 179q-52 0 -96 -27l-9 23l-10 24q20 12 53 22q36 10 70 10q92 0 145 -60q55 -62 55 -175q0 -90 -26 -194zM321 448
q-83 0 -144 -80q-62 -81 -62 -195q0 -60 30 -95q30 -36 80 -36q76 0 136 85q59 84 87 228q-26 93 -127 93z" />
    <glyph glyph-name="Delta" unicode="&#x2206;" horiz-adv-x="612" 
d="M28 0v35l123 333l123 332h75l122 -332l121 -333v-35h-564zM515 56q-63 173 -189 521q-4 13 -9 31l-4 12l-3 12h-2l-3 -12l-4 -13q-5 -17 -9 -29l-95 -261l-95 -261h413z" />
    <glyph glyph-name="product" unicode="&#x220f;" horiz-adv-x="722" 
d="M569 -230v874h-415v-874h-65v930h545v-930h-65z" />
    <glyph glyph-name="summation" unicode="&#x2211;" horiz-adv-x="634" 
d="M22 -230v28l172 221l172 220l-160 214l-159 213v34h528v-54h-441l152 -203l151 -203l-161 -208l-162 -208h487v-54h-579z" />
    <glyph glyph-name="minus" unicode="&#x2212;" horiz-adv-x="660" 
d="M627 375v-46h-524v46h524z" />
    <glyph glyph-name="uni2215" unicode="&#x2215;" horiz-adv-x="167" 
d="M520 728l-687 -756h-57l686 756h58z" />
    <glyph glyph-name="uni2219" unicode="&#x2219;" horiz-adv-x="278" 
d="M241 401l-20 -95h-86l21 95h85z" />
    <glyph glyph-name="radical" unicode="&#x221a;" horiz-adv-x="518" 
d="M521 728l-100 -370l-100 -370h-53l-72 175l-73 175l-27 -16l-27 -16q-12 21 -22 41l54 32l53 31l70 -167l69 -167l87 326l88 326h53z" />
    <glyph glyph-name="infinity" unicode="&#x221e;" horiz-adv-x="787" 
d="M692 181q-45 -48 -116 -48q-112 0 -183 114h-2q-77 -114 -179 -114q-74 0 -118 45q-43 43 -43 112q0 71 43 115q43 46 115 46q60 0 110 -36q40 -29 72 -78h2q32 47 70 76q52 38 109 38q71 0 116 -43q46 -43 46 -114q0 -68 -42 -113zM651 368q-28 32 -79 32
q-83 0 -153 -108q64 -108 152 -108q52 0 80 33q25 29 25 76t-25 75zM295 370q-42 30 -83 30q-51 0 -79 -33q-25 -29 -25 -77q0 -47 30 -77q29 -30 74 -30q83 0 153 109q-29 49 -70 78z" />
    <glyph glyph-name="integral" unicode="&#x222b;" horiz-adv-x="493" 
d="M390 692q-14 3 -27 3q-87 0 -87 -103v-659q0 -75 -39 -117t-106 -42q-41 0 -67 11l7 26l7 25q22 -9 48 -9q86 0 86 103v661q0 73 39 115t108 42q42 0 66 -12q-10 -34 -15 -50q-8 3 -20 6z" />
    <glyph glyph-name="approxequal" unicode="&#x2248;" horiz-adv-x="660" 
d="M429 339q-52 0 -106 34q-56 34 -93 34q-55 0 -97 -66l-32 32q56 80 130 80q55 0 106 -33q56 -35 93 -35q54 0 98 66l32 -31q-56 -81 -131 -81zM429 132q-52 0 -106 34q-56 34 -93 34q-55 0 -97 -67l-32 33q56 80 130 80q53 0 106 -34q54 -34 93 -34q55 0 98 66l32 -32
q-57 -80 -131 -80z" />
    <glyph glyph-name="notequal" unicode="&#x2260;" horiz-adv-x="660" 
d="M289 165l-68 -142h-48l69 142h-129v46h152l78 162h-230v46h252l68 142h48l-69 -142h136v-46h-158l-78 -162h236v-46h-259z" />
    <glyph glyph-name="lessequal" unicode="&#x2264;" horiz-adv-x="660" 
d="M113 0v46h435v-46h-435zM113 336v22l435 206v-52l-353 -164v-2l353 -165v-52z" />
    <glyph glyph-name="greaterequal" unicode="&#x2265;" horiz-adv-x="660" 
d="M113 0v46h435v-46h-435zM113 129v52l353 164v2l-353 165v52l435 -206v-22z" />
    <glyph glyph-name="lozenge" unicode="&#x25ca;" horiz-adv-x="563" 
d="M296 0h-36l-103 175l-104 174l207 351h36q97 -164 208 -350q-111 -186 -208 -350zM361 490l-83 140l-83 -140l-84 -140q56 -94 166 -280l84 140l83 140z" />
    </font>
</defs>
</svg>
