<?xml version="1.0" standalone="no"?>
<!DOCTYPE svg PUBLIC "-//W3C//DTD SVG 1.1//EN" "http://www.w3.org/Graphics/SVG/1.1/DTD/svg11.dtd" >
<svg xmlns="http://www.w3.org/2000/svg" xmlns:xlink="http://www.w3.org/1999/xlink" version="1.1">
<metadata>
Created by FontForge 20170731 at Thu Feb 11 17:52:06 2016
 By Aleksey,,,
Digitised data (c) The Monotype Corpration. All rights reserved.
</metadata>
<defs>
<font id="ArialMT-ExtraBold" horiz-adv-x="615" >
  <font-face 
    font-family="Arial MT Extra Bold"
    font-weight="400"
    font-stretch="normal"
    units-per-em="1000"
    panose-1="2 11 9 3 3 4 3 2 2 4"
    ascent="726"
    descent="-274"
    x-height="518"
    cap-height="716"
    bbox="-181 -239 1020 959"
    underline-thickness="50"
    underline-position="-150"
    unicode-range="U+0020-FB02"
  />
<missing-glyph horiz-adv-x="600" 
d="M62 665h475v-665h-475v665zM300 375l161 243h-323zM110 91q0 -1 161 242l-161 242v-484zM328 333l162 -243v485zM300 290l-162 -242h323z" />
    <glyph glyph-name="uniFB01" unicode="fi" horiz-adv-x="635" 
d="M335 518v-122h-95v-396h-159v396h-71v122h71v55q1 15 3 28q4 34 18 59q37 68 143 68q32 0 75 -5q15 -2 32 -5l12 -2l10 -2l-20 -108q-36 6 -58 6q-37 0 -49 -24q-5 -9 -6 -22l-1 -12v-36h95zM411 518h159v-518h-159v518zM411 716h159v-130h-159v130z" />
    <glyph glyph-name="uniFB02" unicode="fl" horiz-adv-x="635" 
d="M335 518v-122h-95v-396h-159v396h-71v122h71v56q1 15 3 27q4 34 17 59q37 68 142 68q59 0 131 -14l-20 -108l-12 2l-14 2q-17 2 -32 2q-37 0 -49 -23q-5 -9 -6 -23l-1 -11v-37h95zM411 716h159v-716h-159v716z" />
    <glyph glyph-name=".notdef" horiz-adv-x="600" 
d="M62 665h475v-665h-475v665zM300 375l161 243h-323zM110 91q0 -1 161 242l-161 242v-484zM328 333l162 -243v485zM300 290l-162 -242h323z" />
    <glyph glyph-name=".null" horiz-adv-x="0" 
 />
    <glyph glyph-name="nonmarkingreturn" unicode=" " horiz-adv-x="308" 
 />
    <glyph glyph-name="exclam" unicode="!" horiz-adv-x="333" 
d="M256 550l-38 -345h-104l-38 345v166h180v-166zM82 156h168v-156h-168v156z" />
    <glyph glyph-name="quotedbl" unicode="&#x22;" horiz-adv-x="490" 
d="M277 596v120h174v-120l-27 -139h-118zM39 596v120h174v-120l-27 -139h-118z" />
    <glyph glyph-name="numbersign" unicode="#" horiz-adv-x="604" 
d="M19 172v121h91l27 134h-118v121h143l36 183h125l-37 -183h107l36 183h126l-36 -183h67v-121h-92l-27 -134h119v-121h-143l-37 -181h-124l36 181h-108l-36 -181h-125l37 181h-67zM235 293h107l27 134h-107z" />
    <glyph glyph-name="dollar" unicode="$" 
d="M270 -12l-12 2l-14 2q-16 2 -31 6q-40 10 -72 30q-88 54 -108 176l162 16q13 -77 75 -106v188l-15 4l-17 5q-19 6 -34 12q-41 16 -70 37q-77 56 -77 159q0 73 41 125q55 70 172 80v55h72v-55l10 -1l12 -2q15 -2 27 -5q35 -8 63 -23q78 -43 100 -142l-153 -22
q-16 55 -59 76v-165q22 -6 37 -10l39 -13q45 -17 76 -39q81 -58 81 -162q0 -86 -59 -150q-65 -70 -174 -76v-92h-72v90zM270 607l-8 -3l-10 -4q-11 -6 -19 -13q-23 -19 -23 -52t24 -54q8 -7 20 -13l9 -4l4 -2l3 -1v146zM342 108q41 7 63 36q18 24 18 51q0 38 -30 61
q-11 8 -27 16l-13 5l-11 4v-173z" />
    <glyph glyph-name="percent" unicode="%" horiz-adv-x="948" 
d="M223 431q54 0 54 108q0 109 -54 109q-52 0 -52 -109q0 -108 52 -108zM226 -32l397 760h101l-396 -760h-102zM91 671q47 57 133 57q88 0 135 -59q41 -52 41 -130q0 -80 -43 -131q-47 -57 -133 -57q-85 0 -133 56q-43 51 -43 132t43 132zM591 289q47 56 133 56
q88 0 135 -59q41 -51 41 -129q0 -81 -43 -132q-47 -57 -133 -57q-85 0 -133 56q-43 52 -43 133q0 80 43 132zM724 48q53 0 53 109q0 108 -53 108t-53 -108q0 -109 53 -109z" />
    <glyph glyph-name="ampersand" unicode="&#x26;" horiz-adv-x="802" 
d="M724 314q-23 -81 -58 -138q63 -49 110 -76l-94 -115q-13 6 -28 14q-20 11 -32 20l-57 43l-6 -5l-7 -5q-9 -6 -17 -11q-22 -14 -47 -25q-69 -28 -162 -28q-151 0 -220 83q-26 30 -38 68q-9 29 -9 56q0 87 72 152q25 22 57 41l24 12q5 2 9 5q4 1 8 3q-71 83 -71 155
q0 70 51 114q57 51 167 51q118 0 175 -61q21 -23 32 -53q8 -24 8 -48q0 -59 -45 -107q-17 -18 -44 -38l-25 -17l-25 -16q76 -89 104 -115q16 31 28 73zM309 314q-16 -10 -26 -18q-16 -11 -26 -23q-29 -31 -29 -69q0 -40 30 -68t77 -28q41 0 76 17q13 6 27 15l12 8l10 8
q-55 45 -151 158zM371 475l35 26q44 32 44 69q0 19 -16 36q-20 20 -53 20q-31 0 -51 -18q-18 -16 -18 -39q0 -14 10 -32q9 -16 22 -30z" />
    <glyph glyph-name="quotesingle" unicode="'" horiz-adv-x="260" 
d="M43 596v120h174v-120l-27 -139h-118z" />
    <glyph glyph-name="parenleft" unicode="(" horiz-adv-x="365" 
d="M218 -210q-12 18 -23 34l-26 42q-30 53 -53 107q-60 144 -60 291q0 142 56 277q22 53 53 105q24 40 54 82h109q-117 -263 -117 -470q0 -132 38 -265q27 -96 79 -203h-110z" />
    <glyph glyph-name="parenright" unicode=")" horiz-adv-x="365" 
d="M147 728q12 -18 23 -34l26 -42q30 -53 53 -107q60 -144 60 -291q0 -142 -56 -277q-22 -53 -53 -105q-24 -40 -54 -82h-109q117 263 117 470q0 132 -38 265q-27 96 -79 203h110z" />
    <glyph glyph-name="asterisk" unicode="*" horiz-adv-x="469" 
d="M85 440q66 70 96 94q-25 3 -74 13l-34 8q-15 3 -22 5l32 95q19 -8 53 -24q41 -21 65 -36l-2 11l-3 11q-3 15 -5 29q-5 36 -7 82h98v-3l-1 -4v-11q-2 -17 -3 -32q-5 -47 -13 -83q18 10 41 21q34 16 82 36l30 -96l-32 -6l-33 -6q-37 -7 -66 -10q19 -16 51 -50
q29 -31 39 -46l-81 -58q-51 86 -64 115l-3 -8l-4 -8q-5 -10 -11 -21q-16 -30 -47 -80z" />
    <glyph glyph-name="plus" unicode="+" horiz-adv-x="625" 
d="M241 284h-187v143h187v187h143v-187h187v-143h-187v-187h-143v187z" />
    <glyph glyph-name="comma" unicode="," horiz-adv-x="302" 
d="M237 168v-132q0 -88 -34 -137q-32 -48 -110 -79l-36 71q48 20 68 46q18 23 21 63h-84v168h175z" />
    <glyph glyph-name="hyphen" unicode="-" horiz-adv-x="333" 
d="M27 333h279v-145h-279v145z" />
    <glyph glyph-name="period" unicode="." horiz-adv-x="302" 
d="M64 168h175v-168h-175v168z" />
    <glyph glyph-name="slash" unicode="/" horiz-adv-x="281" 
d="M178 716h103l-180 -740h-101z" />
    <glyph glyph-name="zero" unicode="0" 
d="M45 377q0 13 1 24q1 30 4 56q8 69 29 121q61 145 224 145q170 0 234 -159q21 -54 29 -124q3 -25 3 -52q1 -10 1 -20v-16q0 -158 -48 -240q-72 -124 -213 -124q-116 0 -188 91q-76 95 -76 277v21zM234 175q21 -63 73 -63q56 0 77 70q16 55 16 182q0 125 -20 179
q-22 57 -73 57q-52 0 -73 -60q-19 -54 -19 -180q0 -129 19 -185z" />
    <glyph glyph-name="one" unicode="1" 
d="M446 0h-170v497q-80 -67 -193 -104v144q28 9 55 21q34 16 63 36q74 53 107 129h138v-723z" />
    <glyph glyph-name="two" unicode="2" 
d="M44 503q12 98 58 149q64 71 204 71q61 0 104 -11q30 -8 57 -23q98 -56 98 -172q0 -83 -58 -154q-36 -45 -143 -131q-8 -6 -19 -16q-14 -12 -26 -24q-34 -31 -43 -47h291v-145h-539q10 87 60 158q50 72 177 178q72 60 95 88q37 43 37 88q0 40 -26 64q-25 22 -63 22
q-55 0 -79 -44q-9 -16 -13 -37q-2 -7 -3 -16q-1 -6 -1 -13z" />
    <glyph glyph-name="three" unicode="3" 
d="M205 211l1 -5l1 -7q2 -8 4 -15q5 -20 14 -35q27 -43 80 -43q49 0 76 39q21 31 21 73q0 44 -23 75q-26 34 -69 34q-17 0 -38 -4q-9 -2 -17 -4q-6 -1 -12 -3l13 127q48 -5 81 18q34 25 34 69q0 31 -18 52q-20 23 -57 23q-49 0 -72 -39q-8 -13 -13 -31l-2 -14l-1 -6l-1 -5
l-157 27l2 10l3 11l8 26q13 33 34 59q65 80 205 80q129 0 192 -69q23 -26 35 -60q9 -27 9 -53q0 -60 -41 -105q-14 -16 -34 -29q-7 -5 -15 -10l-6 -4l-6 -3q80 -18 114 -77q13 -23 19 -50q4 -21 4 -43q0 -90 -61 -155q-73 -77 -202 -77q-103 0 -173 45q-80 52 -98 156z" />
    <glyph glyph-name="four" unicode="4" 
d="M350 139h-328v142l337 442h144v-446h89v-138h-89v-139h-153v139zM350 277v234h-2l-176 -234h178z" />
    <glyph glyph-name="five" unicode="5" horiz-adv-x="614" 
d="M210 203q9 -56 44 -81q14 -10 30 -14q13 -4 25 -4q51 0 78 44q21 36 21 86v15q-1 10 -2 19q-4 24 -13 43q-25 53 -88 53q-55 0 -103 -52l-140 20l67 384h417v-143h-289l-20 -120q11 5 19 9q12 5 25 9q32 9 69 9q97 0 163 -65q66 -66 66 -168q0 -99 -61 -171
q-73 -88 -208 -88q-233 0 -268 197z" />
    <glyph glyph-name="six" unicode="6" 
d="M400 528q-14 78 -77 78q-59 0 -85 -71q-9 -27 -15 -65q-2 -14 -3 -32l-2 -16l-1 -14l2 -2q3 4 7 8l10 10q13 12 29 21q42 26 96 26q94 0 156 -68t62 -170q0 -104 -66 -172q-71 -73 -190 -73q-150 0 -221 115q-57 93 -57 245q0 29 2 55q3 35 9 67q15 82 53 138
q80 116 226 116q77 0 133 -33q75 -45 97 -143zM252 324q-25 -34 -25 -86q0 -51 25 -88q28 -44 75 -44q41 0 65 34q26 34 26 93q0 47 -19 81q-26 45 -77 45q-44 0 -70 -35z" />
    <glyph glyph-name="seven" unicode="7" 
d="M46 568v148h525v-117q-32 -30 -64 -70q-43 -56 -78 -122q-95 -181 -109 -407h-165q4 34 6 54q4 32 9 59q13 72 33 135q54 169 176 320h-333z" />
    <glyph glyph-name="eight" unicode="8" 
d="M158 388l-6 3l-14 8q-19 12 -33 27q-41 43 -41 110q0 72 51 124q63 63 185 63q138 0 200 -66q48 -51 48 -122q0 -62 -40 -107q-13 -15 -31 -28l-14 -8l-5 -4l-5 -2l5 -2l7 -4q9 -4 17 -9q22 -14 39 -31q50 -52 50 -132q0 -31 -9 -62q-12 -41 -36 -73q-68 -85 -217 -85
q-143 0 -212 75q-53 57 -53 143q0 82 48 133q17 17 39 31q9 5 18 9l8 4l6 3zM249 459q24 -20 57 -20q34 0 57 20q26 23 26 65q0 37 -22 60q-22 25 -61 25q-38 0 -61 -23q-23 -24 -23 -62q0 -42 27 -65zM242 132q28 -28 66 -28q40 0 68 31t28 81q0 51 -30 82q-28 29 -68 29
q-39 0 -66 -28q-30 -31 -30 -83t32 -84z" />
    <glyph glyph-name="nine" unicode="9" 
d="M215 183q14 -78 77 -78q59 0 85 72q9 26 15 64q2 15 3 33l2 15l1 14l-2 2q-3 -4 -7 -8l-10 -10q-13 -12 -28 -21q-43 -26 -97 -26q-94 0 -156 68t-62 169q0 105 67 174q70 72 189 72q152 0 223 -118q55 -93 55 -242q0 -156 -59 -253q-74 -123 -233 -123q-191 0 -228 176z
M359 382q29 32 29 90q0 56 -28 94q-28 39 -72 39q-39 0 -64 -32q-27 -34 -27 -96q0 -56 26 -91q27 -34 70 -34q40 0 66 30z" />
    <glyph glyph-name="colon" unicode=":" horiz-adv-x="333" 
d="M79 518h175v-168h-175v168zM79 168h175v-168h-175v168z" />
    <glyph glyph-name="semicolon" unicode=";" horiz-adv-x="333" 
d="M254 168v-132q0 -88 -34 -137q-32 -48 -110 -79l-36 71q48 20 68 46q18 23 21 63h-84v168h175zM79 518h175v-168h-175v168z" />
    <glyph glyph-name="less" unicode="&#x3c;" horiz-adv-x="625" 
d="M51 288v131l523 222v-156l-340 -131l340 -133v-155z" />
    <glyph glyph-name="equal" unicode="=" horiz-adv-x="625" 
d="M54 542h517v-143h-517v143zM54 314h517v-143h-517v143z" />
    <glyph glyph-name="greater" unicode="&#x3e;" horiz-adv-x="625" 
d="M574 419v-131l-523 -222v156l340 131l-340 133v155z" />
    <glyph glyph-name="question" unicode="?" 
d="M542 433q-27 -40 -103 -102q-43 -35 -55 -61q-9 -20 -9 -65h-155q0 80 16 117q17 39 76 87q60 49 75 67q17 20 17 46q0 33 -25 54q-26 21 -65 21q-96 0 -113 -112l-157 20q9 104 83 163q72 58 187 58q118 0 190 -63q66 -58 66 -141q0 -49 -28 -89zM217 156h168v-156h-168
v156z" />
    <glyph glyph-name="at" unicode="@" horiz-adv-x="854" 
d="M541 538h112l-67 -368q-3 -16 -4 -23v-8q0 -20 19 -20q45 0 97 63q62 77 62 185q0 119 -75 195q-82 84 -227 84q-177 0 -277 -120q-88 -106 -88 -262q0 -153 97 -247q100 -98 270 -98q193 0 292 110h102l-3 -5l-4 -6l-10 -14q-12 -17 -27 -33q-41 -44 -98 -75
q-109 -59 -249 -59q-211 0 -334 124q-118 118 -118 306q0 182 106 310q123 151 344 151q178 0 283 -109q98 -102 98 -254q0 -146 -97 -247q-87 -91 -190 -91q-30 0 -50 11q-27 14 -34 46l-4 -4l-4 -4l-11 -9q-13 -11 -27 -19q-37 -21 -80 -21q-78 0 -126 60q-46 57 -46 146
q0 116 61 212q68 107 172 107q52 0 88 -27q13 -10 24 -23q4 -4 8 -10l3 -4l2 -4zM309 138q22 -31 59 -31q70 0 108 109q14 39 21 87q6 37 6 63v11q-1 8 -2 15q-4 19 -11 35q-21 43 -67 43q-66 0 -104 -89q-32 -73 -32 -162q0 -50 22 -81z" />
    <glyph glyph-name="A" unicode="A" horiz-adv-x="750" 
d="M555 0l-49 140h-269l-47 -140h-189l273 716h198l277 -716h-194zM460 278l-88 262h-2l-87 -262h177z" />
    <glyph glyph-name="B" unicode="B" horiz-adv-x="750" 
d="M75 716h364l27 -1q31 -1 55 -6q62 -12 98 -49q52 -52 52 -124q0 -112 -109 -154v-2l6 -2l8 -2q11 -3 21 -7q27 -11 47 -28q61 -48 61 -135q0 -65 -35 -116q-34 -50 -90 -71q-34 -13 -91 -17q-23 -1 -52 -2h-362v716zM258 433h120l24 1q27 2 45 9q45 16 45 67q0 49 -45 64
q-17 6 -46 8l-26 1h-117v-150zM258 137h145l24 1q26 3 44 10q48 18 48 73q0 56 -50 74q-20 7 -48 10l-24 1h-139v-169z" />
    <glyph glyph-name="C" unicode="C" horiz-adv-x="750" 
d="M707 226q-60 -238 -310 -238q-180 0 -272 115q-78 98 -78 253q0 183 104 282q94 90 244 90q243 0 308 -216l-169 -39l-2 6l-2 6q-3 9 -7 17q-10 20 -23 36q-39 45 -105 45q-100 0 -139 -92q-14 -33 -20 -75q-2 -16 -2 -32q-1 -12 -1 -25v-27q1 -18 3 -34q4 -43 17 -75
q37 -90 137 -90q75 0 115 58q14 20 24 47q4 11 7 22l2 10l2 8z" />
    <glyph glyph-name="D" unicode="D" horiz-adv-x="750" 
d="M75 716h297q134 0 207 -55q126 -96 126 -301v-29q-1 -18 -2 -34q-4 -41 -14 -76q-27 -96 -99 -158q-73 -63 -214 -63h-301v716zM258 141h81q42 0 64 4q35 6 58 24q58 46 58 187q0 144 -61 190q-39 29 -140 29h-60v-434z" />
    <glyph glyph-name="E" unicode="E" horiz-adv-x="698" 
d="M75 716h562v-137h-379v-137h352v-133h-352v-168h391v-141h-574v716z" />
    <glyph glyph-name="F" unicode="F" horiz-adv-x="635" 
d="M71 716h519v-137h-336v-148h289v-133h-289v-298h-183v716z" />
    <glyph glyph-name="G" unicode="G" horiz-adv-x="802" 
d="M417 396h327v-295l-10 -8l-11 -8q-14 -10 -27 -18q-33 -22 -68 -37q-96 -42 -213 -42q-182 0 -280 107q-91 98 -91 262q0 196 128 298q91 73 249 73q21 0 37 -1q23 -1 43 -3q52 -7 93 -24q111 -49 140 -179l-178 -32l-2 6l-3 7q-4 8 -8 15q-10 19 -24 33q-38 37 -106 37
q-107 0 -152 -81q-18 -31 -25 -72q-6 -31 -6 -66q0 -239 185 -239q75 0 159 53v79h-157v135z" />
    <glyph glyph-name="H" unicode="H" horiz-adv-x="781" 
d="M76 716h183v-267h263v267h183v-716h-183v301h-263v-301h-183v716z" />
    <glyph glyph-name="I" unicode="I" horiz-adv-x="333" 
d="M75 716h183v-716h-183v716z" />
    <glyph glyph-name="J" unicode="J" 
d="M537 716v-452l-1 -32q-2 -37 -9 -66q-17 -76 -68 -120q-30 -26 -66 -39q-49 -19 -114 -19q-250 0 -259 244l174 22v-8l1 -9l1 -19q3 -23 10 -40q18 -45 68 -45q53 0 70 44q7 17 9 42l1 23v474h183z" />
    <glyph glyph-name="K" unicode="K" horiz-adv-x="781" 
d="M258 716v-304h2l235 304h237l-241 -260l286 -456h-230l-178 323l-111 -119v-204h-183v716h183z" />
    <glyph glyph-name="L" unicode="L" horiz-adv-x="635" 
d="M72 716h183v-568h352v-148h-535v716z" />
    <glyph glyph-name="M" unicode="M" horiz-adv-x="885" 
d="M69 716h253l120 -462h2l119 462h253v-716h-157v555h-2l-139 -555h-152l-138 555h-2v-555h-157v716z" />
    <glyph glyph-name="N" unicode="N" horiz-adv-x="781" 
d="M77 716h173l280 -437h2v437h171v-716h-177l-276 430h-2v-430h-171v716z" />
    <glyph glyph-name="O" unicode="O" horiz-adv-x="802" 
d="M131 624q95 104 266 104q183 0 278 -107q85 -97 85 -261q0 -166 -86 -264q-94 -108 -272 -108q-181 0 -276 110q-84 97 -84 259q0 168 89 267zM285 180q45 -47 115 -47q31 0 58 10q35 12 61 38q55 55 55 180v22q-1 16 -3 30q-4 42 -18 75q-41 95 -153 95q-105 0 -147 -88
q-15 -32 -21 -75q-2 -16 -3 -34q-1 -13 -1 -28q0 -119 57 -178z" />
    <glyph glyph-name="P" unicode="P" horiz-adv-x="698" 
d="M75 716h294q86 0 127 -9q54 -11 92 -45q65 -57 65 -166v-16l-2 -22q-4 -28 -13 -53q-26 -71 -94 -108q-36 -19 -94 -25q-21 -3 -46 -4h-146v-268h-183v716zM258 401h87q13 0 23 1q28 3 48 10q55 21 55 80q0 39 -27 64q-27 27 -119 27h-67v-182z" />
    <glyph glyph-name="Q" unicode="Q" horiz-adv-x="802" 
d="M730 -76q-58 22 -158 95l-6 -2l-6 -2q-7 -3 -14 -5q-19 -6 -37 -10q-52 -12 -111 -12q-168 0 -263 101q-93 98 -93 268q0 172 93 271q95 100 266 100q170 0 265 -98q94 -97 94 -272q0 -162 -84 -260q44 -33 111 -61zM399 267l11 -3l12 -4l30 -12q38 -19 83 -53l6 10l6 12
q8 14 13 31q14 44 14 113q0 222 -173 222q-107 0 -149 -94q-15 -33 -20 -75q-3 -16 -3 -32l-1 -13v-11q0 -73 22 -125q22 -53 70 -80q38 -20 79 -20q26 0 48 6q-8 8 -31 21q-27 14 -55 26z" />
    <glyph glyph-name="R" unicode="R" horiz-adv-x="750" 
d="M75 716h375q23 -1 42 -3q49 -4 83 -17q61 -23 91 -79q25 -46 25 -101q0 -105 -77 -159q-27 -18 -61 -29q-12 -4 -25 -7l-10 -3q-4 0 -8 -1v-2q8 -4 13 -6q8 -4 15 -8q17 -11 34 -25q42 -36 79 -102l97 -174h-211l-111 187q-42 71 -72 91q-24 16 -72 16h-24v-294h-183v716
zM258 420h100q32 0 51 2q28 2 47 9q49 18 49 72q0 53 -46 70q-18 7 -46 9l-25 1h-130v-163z" />
    <glyph glyph-name="S" unicode="S" horiz-adv-x="698" 
d="M214 248l1 -8l2 -9q3 -11 6 -20q7 -24 20 -41q36 -49 111 -49q53 0 86 23q34 23 34 62q0 41 -40 61q-27 14 -136 40l-14 3l-15 4q-19 6 -35 11q-45 16 -78 37q-92 60 -92 163t91 157q76 46 188 46q170 0 239 -82q26 -29 38 -70q5 -16 8 -34l2 -15l2 -14l-177 -9l-3 15
l-4 16q-7 18 -17 32q-29 35 -92 35q-43 0 -71 -15q-32 -17 -32 -48q0 -32 41 -51q27 -12 118 -33l18 -4l20 -5q23 -6 42 -12q50 -16 85 -38q94 -61 94 -174q0 -11 -1 -23q-2 -16 -6 -32q-11 -44 -37 -78q-75 -101 -255 -101q-81 0 -143 19q-84 26 -128 87q-25 35 -35 74
q-5 16 -7 35q-2 11 -4 32z" />
    <glyph glyph-name="T" unicode="T" horiz-adv-x="667" 
d="M242 568h-219v148h621v-148h-219v-568h-183v568z" />
    <glyph glyph-name="U" unicode="U" horiz-adv-x="781" 
d="M259 716v-438q1 -16 2 -28q4 -33 15 -56q29 -61 117 -61q84 0 113 59q10 22 14 54q1 12 2 27v443h183v-422l-1 -23q-1 -28 -4 -51q-8 -63 -33 -108q-68 -124 -263 -124q-102 0 -162 21q-84 29 -128 104q-24 40 -33 113q-3 25 -4 52q-1 10 -1 20v418h183z" />
    <glyph glyph-name="V" unicode="V" horiz-adv-x="719" 
d="M-1 716h194l170 -523h2l166 523h189l-261 -716h-197z" />
    <glyph glyph-name="W" unicode="W" horiz-adv-x="969" 
d="M-1 716h180l90 -446h2l123 446h191l114 -450h2l92 450h177l-166 -716h-185l-133 493h-2l-132 -493h-187z" />
    <glyph glyph-name="X" unicode="X" horiz-adv-x="719" 
d="M244 373l-223 343h206l136 -225l132 225h204l-223 -347l244 -369h-211l-150 239l-150 -239h-211z" />
    <glyph glyph-name="Y" unicode="Y" horiz-adv-x="719" 
d="M268 301l-270 415h207l156 -262l155 262h206l-271 -416v-300h-183v301z" />
    <glyph glyph-name="Z" unicode="Z" horiz-adv-x="667" 
d="M18 144l386 435h-346v137h575v-128l-397 -451h412v-137h-630v144z" />
    <glyph glyph-name="bracketleft" unicode="[" horiz-adv-x="365" 
d="M71 716h272v-131h-116v-654h116v-131h-272v916z" />
    <glyph glyph-name="backslash" unicode="\" horiz-adv-x="281" 
d="M101 716l180 -740h-103l-178 740h101z" />
    <glyph glyph-name="bracketright" unicode="]" horiz-adv-x="365" 
d="M294 -200h-272v131h116v654h-116v131h272v-916z" />
    <glyph glyph-name="asciicircum" unicode="^" horiz-adv-x="625" 
d="M253 716h122l189 -394h-156l-95 240l-96 -240h-156z" />
    <glyph glyph-name="underscore" unicode="_" horiz-adv-x="500" 
d="M-6 -75h512v-50h-512v50z" />
    <glyph glyph-name="grave" unicode="`" horiz-adv-x="333" 
d="M157 582l-147 146h163l75 -146h-91z" />
    <glyph glyph-name="a" unicode="a" 
d="M52 377q21 86 84 121q57 32 174 32q147 0 201 -56q44 -46 44 -158v-176q0 -80 27 -140h-164q-18 38 -19 60q-33 -32 -67 -48q-50 -24 -115 -24q-90 0 -138 48q-43 41 -43 104q0 79 64 119q23 15 58 25q13 4 29 8q10 3 27 6q54 11 96 21q54 13 77 23v14l-1 14q-2 15 -9 25
q-16 25 -68 25q-50 0 -73 -22q-10 -8 -16 -21l-6 -11l-4 -11zM387 248q-27 -10 -105 -29q-33 -7 -51 -21q-25 -17 -25 -45q0 -9 3 -18q4 -12 11 -20q19 -23 57 -23q63 0 95 51q7 12 10 27q5 22 5 62v16z" />
    <glyph glyph-name="b" unicode="b" horiz-adv-x="635" 
d="M231 716v-253q11 12 21 21q15 13 32 22q43 24 98 24q104 0 162 -76q56 -71 56 -190q0 -124 -60 -200t-156 -76q-62 0 -109 32q-17 12 -33 29q-6 6 -12 14q-4 5 -10 13h-2v-76h-155v716h168zM229 259q0 -88 45 -123q15 -13 35 -18q7 -2 14 -2l6 -1h4q62 0 85 64
q8 22 10 49q1 10 2 19v13q0 22 -3 43q-4 27 -13 48q-25 54 -81 54q-66 0 -91 -65q-8 -21 -11 -49q-1 -9 -2 -19v-13z" />
    <glyph glyph-name="c" unicode="c" 
d="M582 179q-21 -82 -70 -127q-68 -64 -193 -64q-148 0 -220 82q-26 29 -41 67q-21 52 -21 121q0 115 61 187q73 85 215 85q120 0 186 -53q53 -43 78 -130l-161 -23q-13 50 -50 69q-13 7 -28 10q-6 1 -11 2h-9q-66 0 -94 -60q-10 -22 -14 -49q-2 -11 -2 -22q-1 -8 -1 -16
v-15q1 -11 2 -21q4 -27 13 -48q26 -61 95 -61q50 0 78 35q10 12 17 29q2 6 5 13l2 6l1 5z" />
    <glyph glyph-name="d" unicode="d" horiz-adv-x="635" 
d="M575 0h-156v76h-2q-11 -16 -23 -28q-15 -17 -33 -29q-47 -31 -110 -31q-95 0 -155 79q-59 77 -59 198q0 136 70 206q59 59 148 59q55 0 99 -24q16 -9 31 -22q11 -9 22 -21v253h168v-716zM207 258q0 -87 43 -122q14 -12 33 -18q7 -2 15 -2q5 -1 10 -1q15 0 29 5
q19 7 33 21q38 37 38 119q0 62 -26 103q-27 42 -73 42q-65 0 -89 -66q-8 -22 -11 -50q-1 -9 -2 -19v-12z" />
    <glyph glyph-name="e" unicode="e" 
d="M206 215q7 -116 109 -116q61 0 88 60l167 -20q-11 -29 -24 -49q-19 -29 -44 -49q-66 -53 -186 -53q-42 0 -77 7q-47 9 -82 29q-70 41 -100 121q-11 30 -16 63q-4 25 -4 49q0 112 62 187q72 86 203 86q282 0 277 -315h-373zM410 305l-1 6l-1 7q-1 9 -2 16q-5 22 -14 39
q-25 47 -81 47q-46 0 -76 -34q-29 -33 -28 -81h203z" />
    <glyph glyph-name="f" unicode="f" horiz-adv-x="365" 
d="M355 518v-122h-99v-396h-168v396h-75v122h75v32q0 80 26 119q39 59 144 59q33 0 135 -15l-20 -108q-11 3 -25 5q-19 2 -37 2q-36 0 -48 -23q-4 -9 -6 -22q-1 -9 -1 -24v-25h99z" />
    <glyph glyph-name="g" unicode="g" horiz-adv-x="635" 
d="M227 -43l2 -7l3 -9q4 -10 12 -17q20 -21 64 -21q66 0 88 37q8 14 10 36l2 18v96h-2q-9 -14 -19 -25q-13 -15 -29 -26q-43 -30 -103 -30q-113 0 -172 94q-46 74 -46 175q0 123 66 191q58 61 149 61q66 0 116 -36q18 -12 32 -29q6 -6 10 -12q4 -5 7 -10h2v75h157v-489
q0 -142 -85 -199q-61 -40 -179 -40h-18q-12 1 -24 1q-31 2 -59 7q-78 15 -115 50q-30 29 -39 73q-3 15 -3 32q-1 7 0 14v10zM207 258q1 -9 2 -17q2 -26 10 -46q24 -61 87 -61q5 0 11 1q8 1 15 3q19 5 35 17q43 34 43 112q0 68 -30 104q-28 34 -75 34q-58 0 -82 -54
q-9 -19 -13 -45q-2 -10 -2 -20q-1 -9 -1 -17v-11z" />
    <glyph glyph-name="h" unicode="h" horiz-adv-x="635" 
d="M63 716h168v-264q5 6 9 10l12 12q16 15 34 26q49 30 109 30q115 0 156 -84q14 -29 19 -70q2 -15 3 -32v-344h-168v300l-1 21q-2 23 -9 39q-16 40 -67 40q-63 0 -85 -55q-8 -20 -10 -48q-1 -10 -2 -23v-274h-168v716z" />
    <glyph glyph-name="i" unicode="i" horiz-adv-x="302" 
d="M67 518h168v-518h-168v518zM67 716h168v-130h-168v130z" />
    <glyph glyph-name="j" unicode="j" horiz-adv-x="302" 
d="M-23 -64l9 -1l9 -2q10 -1 18 -1q36 0 46 29q7 17 7 67v490h168v-541q-1 -22 -2 -39q-5 -44 -18 -73q-34 -76 -140 -76q-31 0 -71 7q-15 2 -31 5l-12 3l-5 1l-5 1zM66 716h168v-132h-168v132z" />
    <glyph glyph-name="k" unicode="k" 
d="M68 716h168v-375l154 177h207l-182 -185l194 -333h-186l-118 220l-69 -70v-150h-168v716z" />
    <glyph glyph-name="l" unicode="l" horiz-adv-x="302" 
d="M67 716h168v-716h-168v716z" />
    <glyph glyph-name="m" unicode="m" horiz-adv-x="948" 
d="M63 518h156v-72q71 84 170 84q68 0 111 -33q16 -12 28 -28q4 -6 8 -13l3 -5l3 -5q73 84 170 84q124 0 161 -101q7 -20 10 -59q1 -13 2 -27v-343h-168v310l-1 17q-2 19 -8 34q-16 39 -61 39q-57 0 -78 -57q-7 -20 -10 -47q-1 -10 -1 -21v-275h-168v284q0 55 -11 81
q-15 35 -56 35q-60 0 -80 -55q-8 -19 -11 -47q-1 -10 -1 -22v-276h-168v518z" />
    <glyph glyph-name="n" unicode="n" horiz-adv-x="635" 
d="M63 518h156v-80h2q67 92 175 92q115 0 155 -86q14 -31 19 -73q2 -16 3 -35v-336h-168v295l-1 21q-2 24 -9 41q-17 43 -68 43q-27 0 -50 -15q-28 -18 -39 -53q-4 -12 -6 -44q0 -12 -1 -25v-263h-168v518z" />
    <glyph glyph-name="o" unicode="o" horiz-adv-x="635" 
d="M105 448q77 82 211 82q140 0 217 -87q67 -74 67 -183q0 -108 -67 -184q-78 -88 -216 -88q-133 0 -210 81q-72 74 -72 188q0 116 70 191zM234 154q30 -41 84 -41q48 0 78 34q34 39 34 111q0 63 -26 102q-30 45 -86 45q-49 0 -79 -35q-34 -39 -34 -113q0 -65 29 -103z" />
    <glyph glyph-name="p" unicode="p" horiz-adv-x="635" 
d="M63 518h155v-76h2q3 5 7 10q4 6 10 12q14 17 31 30q50 36 114 36q92 0 153 -69q66 -75 66 -202q0 -122 -64 -198q-61 -73 -157 -73q-53 0 -96 25q-16 10 -31 23q-11 9 -22 21v-254h-168v715zM264 376q-35 -37 -35 -114q0 -88 45 -125q16 -13 35 -18q7 -2 14 -3
q6 -1 10 -1q16 0 31 6q18 7 32 22q35 37 35 118q0 78 -34 116q-27 28 -65 28q-40 0 -68 -29z" />
    <glyph glyph-name="q" unicode="q" horiz-adv-x="635" 
d="M405 -197v254q-60 -69 -151 -69q-97 0 -157 73q-60 74 -60 196q0 128 63 202q60 71 156 71q61 0 104 -29q16 -12 32 -29q10 -11 24 -30h2v76h155v-715h-168zM207 260q0 -145 97 -145h7q6 1 13 3q20 5 35 17q49 38 49 128q0 75 -33 112q-27 30 -68 30q-63 0 -87 -65
q-9 -21 -11 -48l-2 -20v-12z" />
    <glyph glyph-name="r" unicode="r" horiz-adv-x="417" 
d="M64 0v518h157v-79h2q45 91 120 91q42 0 93 -26l-52 -131l-5 3l-7 3q-7 4 -14 6q-20 7 -38 7q-57 0 -76 -77q-7 -30 -9 -73l-2 -38v-204h-169z" />
    <glyph glyph-name="s" unicode="s" horiz-adv-x="563" 
d="M347 371l-3 9l-5 9q-5 12 -13 19q-22 21 -63 21q-24 0 -41 -8q-24 -11 -24 -32t29 -33q21 -9 121 -33q37 -9 61 -17q33 -12 56 -28q58 -40 58 -115q0 -88 -80 -135q-67 -40 -165 -40q-217 0 -251 158l166 20l4 -11l6 -12q6 -14 16 -23q24 -26 69 -26q34 0 55 15
q22 14 22 36q0 25 -57 44q-11 4 -68 21l-21 6q-11 3 -19 6q-20 6 -26 8q-51 17 -83 45q-45 39 -45 93q0 66 46 109q57 53 179 53q137 0 200 -69q22 -25 33 -69z" />
    <glyph glyph-name="t" unicode="t" horiz-adv-x="385" 
d="M255 518h102v-122h-102v-201q0 -43 5 -58q7 -22 33 -22q20 0 60 14l13 -122q-75 -19 -120 -19q-105 0 -138 60q-21 37 -21 139v209h-68v122h68v100l168 91v-191z" />
    <glyph glyph-name="u" unicode="u" horiz-adv-x="635" 
d="M415 0v81h-2q-4 -6 -8 -11q-6 -7 -12 -13q-16 -17 -36 -30q-54 -36 -128 -36q-52 0 -93 25q-37 23 -52 56q-13 30 -18 63q-4 23 -4 55v328h168v-261q0 -30 1 -48q3 -27 9 -45q17 -46 67 -46q55 0 82 48q15 25 15 118v234h168v-518h-157z" />
    <glyph glyph-name="v" unicode="v" horiz-adv-x="583" 
d="M4 518h176l99 -296q7 -18 13 -44h2l13 44l102 296h170l-213 -518h-150z" />
    <glyph glyph-name="w" unicode="w" horiz-adv-x="865" 
d="M3 518h163l90 -333h2l96 333h156l97 -333h2l90 333h163l-179 -518h-154l-96 323h-2l-94 -323h-155z" />
    <glyph glyph-name="x" unicode="x" 
d="M196 269l-178 249h201l87 -143l96 143h191l-177 -246l191 -272h-200l-101 164l-110 -164h-187z" />
    <glyph glyph-name="y" unicode="y" horiz-adv-x="583" 
d="M183 518l115 -356h2l109 356h169l-195 -526q-40 -109 -71 -145q-50 -57 -149 -57q-27 0 -62 4q-27 2 -51 6l-14 123q24 -6 50 -9q9 -1 18 -1h11q68 0 98 86l-208 519h178z" />
    <glyph glyph-name="z" unicode="z" horiz-adv-x="531" 
d="M20 118l221 239q26 29 35 38q-18 -1 -31 -1h-206v124h455v-106l-229 -247q-28 -29 -37 -37l2 -2q6 1 18 1q12 1 17 1h245v-128h-490v118z" />
    <glyph glyph-name="braceleft" unicode="{" horiz-adv-x="385" 
d="M21 330q57 2 79 32q22 31 22 115q0 142 25 185q39 66 178 66h45v-137q-61 -1 -77 -16q-20 -18 -20 -87q0 -102 -13 -143q-18 -58 -75 -86q57 -30 72 -79q11 -34 17 -161q3 -61 17 -75q16 -17 79 -17v-137h-44q-122 0 -166 48q-37 41 -39 152q-2 122 -14 152
q-17 42 -86 45v143z" />
    <glyph glyph-name="bar" unicode="|" horiz-adv-x="281" 
d="M82 716h117v-913h-117v913z" />
    <glyph glyph-name="braceright" unicode="}" horiz-adv-x="385" 
d="M364 188q-57 -2 -79 -32q-22 -31 -22 -115q0 -142 -25 -185q-39 -66 -178 -66h-45v137q61 1 77 15q20 18 20 87q0 102 13 144q18 58 75 86q-57 30 -72 79q-11 34 -17 161q-3 61 -17 75q-16 17 -79 17v137h44q122 0 166 -48q37 -41 39 -152q2 -122 14 -152q17 -42 86 -45
v-143z" />
    <glyph glyph-name="asciitilde" unicode="~" horiz-adv-x="625" 
d="M43 389q35 32 65 48q44 23 92 23q20 0 42 -5q31 -7 72 -24q101 -43 128 -43h8l10 2q15 2 31 9q44 17 91 62v-146l-5 -4l-5 -4q-7 -6 -13 -11q-18 -13 -35 -23q-49 -28 -94 -28q-51 0 -132 39q-69 33 -110 33q-31 0 -62 -14q-41 -18 -83 -59v145z" />
    <glyph glyph-name="uni00A0" unicode="&#xa0;" horiz-adv-x="308" 
 />
    <glyph glyph-name="exclamdown" unicode="&#xa1;" horiz-adv-x="333" 
d="M77 -32l38 345h104l38 -345v-166h-180v166zM251 362h-168v156h168v-156z" />
    <glyph glyph-name="cent" unicode="&#xa2;" 
d="M300 108q14 -3 26 -3q52 0 80 41q9 14 16 32q2 6 4 13l1 5l1 4l158 -22q-28 -114 -119 -160q-34 -18 -77 -25q-31 -5 -67 -5q-18 0 -62 4l-60 -186l-61 20l58 180q-72 24 -113 88q-44 68 -44 166q0 125 75 199q73 71 194 71q32 0 57 -3l60 182l61 -20l-56 -174
q69 -25 106 -77q15 -20 26 -46q8 -17 17 -45l-154 -22q-13 43 -36 66zM330 413q-73 5 -104 -55q-12 -22 -17 -53q-4 -23 -4 -50q0 -48 13 -80q5 -11 12 -22l6 -7l5 -7z" />
    <glyph glyph-name="sterling" unicode="&#xa3;" 
d="M428 412v-112h-130q-1 -87 -61 -151l2 -2l12 2l14 3q17 2 32 2q28 0 63 -8q57 -13 84 -13q32 0 61 9q11 3 22 8l10 4l8 4l59 -131q-75 -39 -148 -39q-42 0 -171 35q-4 1 -10 2q-8 2 -16 3q-22 3 -37 3q-37 0 -78 -16q-14 -6 -30 -14l-13 -7l-5 -3l-5 -3l-57 128
q69 50 91 104q9 21 11 44q1 16 -1 36h-101v112h75q-23 73 -23 109q0 92 63 149q64 58 175 58q217 0 250 -188l-160 -24l-3 14l-5 15q-6 18 -14 30q-22 35 -62 35q-36 0 -57 -25q-20 -24 -20 -60q0 -38 25 -113h150z" />
    <glyph glyph-name="currency" unicode="&#xa4;" horiz-adv-x="604" 
d="M102 211l-4 7l-4 8q-5 11 -9 23q-10 32 -10 68q0 35 10 69q4 11 9 23l4 8l3 7l-66 67l91 94l68 -68q4 2 7 4l9 4q12 5 24 9q34 11 68 11t68 -11q12 -4 24 -9l9 -4l6 -4l68 68l92 -93l-67 -67q27 -54 27 -106q0 -34 -11 -68q-4 -12 -9 -24l-4 -9l-2 -4l-1 -3l67 -67
l-92 -94l-68 68l-7 -3l-9 -5q-12 -5 -23 -8q-33 -11 -67 -11q-33 0 -67 11q-12 3 -24 8l-10 5l-7 3l-65 -67l-94 93zM234 386q-28 -28 -28 -68t28 -68t68 -28t68 28t28 68t-28 68t-68 28t-68 -28z" />
    <glyph glyph-name="yen" unicode="&#xa5;" 
d="M28 131v107h195v62h-195v107h138l-163 309h186l105 -226q11 -25 12 -34h2q4 18 13 34l104 226h187l-162 -309h137v-107h-194v-62h194v-107h-194v-131h-170v131h-195z" />
    <glyph glyph-name="brokenbar" unicode="&#xa6;" horiz-adv-x="281" 
d="M82 175h117v-372h-117v372zM82 716h117v-372h-117v372z" />
    <glyph glyph-name="section" unicode="&#xa7;" 
d="M381 547l-1 3v4l-3 10q-4 12 -10 21q-18 25 -57 25h-7l-9 -1q-12 -2 -22 -6q-27 -12 -27 -39q0 -24 26 -44q21 -16 78 -42q126 -58 179 -110q52 -52 52 -122q0 -51 -27 -92q-20 -30 -58 -59l8 -8l9 -10q10 -13 18 -26q20 -37 20 -81q0 -71 -48 -119q-61 -61 -181 -61
t-184 48q-57 43 -76 132l159 18q7 -16 12 -27q9 -16 19 -26q25 -27 66 -27q34 0 52 20q16 16 16 37q0 24 -22 44q-23 21 -94 60l-3 1q-2 2 -6 4q-10 5 -21 12q-34 20 -64 39q-95 61 -115 91q-25 38 -25 83q0 91 93 151l-7 8l-7 9q-9 12 -16 24q-18 33 -18 71q0 64 46 109
q60 57 180 57q101 0 156 -37q57 -39 79 -126zM178 325v-3l1 -4q0 -5 2 -10q6 -13 21 -27q17 -16 210 -123q33 36 33 62q0 16 -13 31q-10 11 -26 22q-9 6 -38 22q-11 7 -28 16l-30 18q-83 47 -99 57q-33 -29 -33 -61z" />
    <glyph glyph-name="dieresis" unicode="&#xa8;" horiz-adv-x="333" 
d="M1 717h123v-121h-123v121zM209 717h123v-121h-123v121z" />
    <glyph glyph-name="copyright" unicode="&#xa9;" horiz-adv-x="771" 
d="M564 279q-43 -134 -176 -134q-86 0 -140 56q-55 58 -55 152q0 93 53 151q54 59 144 59q64 0 110 -33q47 -33 62 -94l-88 -16q-11 42 -41 61q-11 6 -25 10q-10 2 -21 2q-59 0 -82 -55q-8 -20 -12 -45l-2 -20v-29q1 -10 1 -20q3 -26 11 -47q22 -61 81 -61q43 0 68 36
q9 12 15 29q2 6 4 13l2 5l1 5zM172 568q-88 -88 -88 -213q0 -124 88 -213q89 -88 213 -88q125 0 213 88q89 89 89 213t-89 213q-88 88 -213 88q-124 0 -213 -88zM649 619q110 -110 110 -264t-110 -264q-109 -109 -264 -109q-154 0 -264 109q-109 110 -109 264q0 155 109 264
q110 109 264 109q155 0 264 -109z" />
    <glyph glyph-name="ordfeminine" unicode="&#xaa;" horiz-adv-x="385" 
d="M31 632q13 49 43 71q35 25 106 25h26q20 -1 37 -4q48 -7 68 -26q23 -21 28 -50q4 -23 4 -108q0 -140 15 -168h-99q-7 14 -12 33l-2 -2l-3 -3q-4 -3 -7 -6q-11 -8 -22 -14q-33 -17 -76 -17q-66 0 -97 37q-23 28 -23 68q0 49 32 76q13 10 31 17q13 6 31 10q95 20 127 30
q-1 27 -7 36q-9 14 -41 14q-30 0 -42 -10q-8 -7 -17 -29zM238 535q-27 -9 -56 -15q-58 -12 -58 -44q0 -14 11 -26q14 -14 37 -14q43 0 58 38q5 13 7 32l1 16v13z" />
    <glyph glyph-name="guillemotleft" unicode="&#xab;" 
d="M557 483l-131 -223l131 -226h-130l-155 226l155 223h130zM334 483l-131 -223l131 -226h-130l-155 226l155 223h130z" />
    <glyph glyph-name="logicalnot" unicode="&#xac;" horiz-adv-x="625" 
d="M429 399h-375v143h517v-371h-142v228z" />
    <glyph glyph-name="uni00AD" unicode="&#xad;" horiz-adv-x="333" 
d="M27 333h279v-145h-279v145z" />
    <glyph glyph-name="registered" unicode="&#xae;" horiz-adv-x="771" 
d="M216 553h160l32 -2q38 -3 63 -12q67 -24 67 -98q0 -56 -44 -87q-16 -10 -36 -17q-7 -2 -16 -4l-6 -2l-5 -1v-2q27 -10 44 -31q16 -20 63 -102l23 -40h-108l-17 32q-47 89 -66 108q-22 24 -64 20v-160h-90v398zM306 383h38q47 0 68 8q33 11 33 44q0 34 -35 46q-13 4 -32 5
l-17 1h-55v-104zM172 568q-88 -88 -88 -213q0 -124 88 -213q89 -88 213 -88q125 0 213 88q89 89 89 213t-89 213q-88 88 -213 88q-124 0 -213 -88zM649 619q110 -110 110 -264t-110 -264q-109 -109 -264 -109q-154 0 -264 109q-109 110 -109 264q0 155 109 264
q110 109 264 109q155 0 264 -109z" />
    <glyph glyph-name="macron" unicode="&#xaf;" horiz-adv-x="333" 
d="M9 705h315v-98h-315v98z" />
    <glyph glyph-name="degree" unicode="&#xb0;" horiz-adv-x="396" 
d="M154 624q-18 -18 -18 -43t18 -44q19 -18 44 -18q26 0 44 18q18 19 18 44t-18 43t-44 18t-44 -18zM302 685q44 -43 44 -104t-44 -104q-44 -44 -105 -44t-104 44q-43 43 -43 104t43 104t104 43t105 -43z" />
    <glyph glyph-name="plusminus" unicode="&#xb1;" horiz-adv-x="625" 
d="M241 365h-187v141h187v180h143v-180h187v-141h-187v-180h-143v180zM54 139h517v-139h-517v139z" />
    <glyph glyph-name="uni00B2" unicode="&#xb2;" horiz-adv-x="365" 
d="M348 359h-336q9 46 36 79q27 32 104 88q48 35 63 50q20 21 20 41q0 21 -18 30q-6 3 -15 5q-6 1 -13 1q-31 0 -45 -19q-6 -7 -9 -18l-3 -10l-2 -9l-106 9l2 8l2 9q2 10 6 19q8 23 23 39q42 45 135 45q81 0 122 -36q33 -29 33 -72q0 -38 -27 -72q-10 -12 -23 -23
q-5 -4 -10 -9q-4 -3 -9 -6q-9 -7 -47 -33q-13 -10 -28 -19q-12 -9 -17 -12v-2h162v-83z" />
    <glyph glyph-name="uni00B3" unicode="&#xb3;" horiz-adv-x="365" 
d="M125 471l2 -7l2 -8q3 -10 9 -16q14 -18 44 -18q25 0 41 14q15 14 15 34q0 27 -25 40q-10 5 -23 7q-11 2 -22 2q-8 0 -16 -1l-6 -1l-6 -1l13 70h9l10 1q13 1 23 5q26 9 26 32q0 17 -14 25q-6 3 -13 5q-6 1 -12 1q-26 0 -39 -15q-5 -6 -8 -14l-3 -8l-2 -7l-107 16l3 6l3 7
q3 9 7 16q11 19 26 33q42 37 122 37q77 0 117 -34q31 -26 31 -61q0 -29 -19 -49q-7 -8 -18 -15l-9 -6l-8 -5l3 -1l4 -2l10 -4q13 -7 24 -16q30 -26 30 -68q0 -57 -54 -88q-45 -26 -110 -26q-60 0 -101 20q-55 27 -66 88z" />
    <glyph glyph-name="acute" unicode="&#xb4;" horiz-adv-x="333" 
d="M160 728h163l-147 -146h-91z" />
    <glyph glyph-name="mu" unicode="&#xb5;" horiz-adv-x="635" 
d="M231 518v-269q0 -13 1 -23q3 -29 10 -48q19 -54 76 -54q56 0 76 58q7 21 10 49q1 11 1 23v264h168v-518h-156v52h-2q-4 -10 -10 -18q-8 -12 -18 -21q-28 -25 -65 -25q-36 0 -62 24q-10 9 -18 21q-5 8 -9 17h-2v-247h-168v715h168z" />
    <glyph glyph-name="paragraph" unicode="&#xb6;" horiz-adv-x="698" 
d="M270 -197v504h-17q-127 0 -184 77q-21 29 -31 67q-8 30 -8 61q0 25 5 49q6 30 20 55q33 64 108 87q41 13 122 13h383v-141h-60v-772h-130v772h-78v-772h-130z" />
    <glyph glyph-name="periodcentered" unicode="&#xb7;" horiz-adv-x="302" 
d="M64 440h175v-168h-175v168z" />
    <glyph glyph-name="cedilla" unicode="&#xb8;" horiz-adv-x="333" 
d="M14 -138q42 -8 90 -8h10l13 1q16 1 29 4q34 10 34 38q0 15 -12 25q-15 13 -45 13q-22 0 -43 -3q-8 -2 -17 -3l-6 -2l-6 -1l14 53l8 2l8 2q11 2 20 4q25 4 51 4q55 0 91 -23q41 -25 41 -71q0 -17 -7 -33q-9 -19 -26 -34q-45 -38 -140 -38q-32 0 -64 4q-11 1 -24 4l-10 1
l-9 2v59z" />
    <glyph glyph-name="uni00B9" unicode="&#xb9;" horiz-adv-x="365" 
d="M164 359v234q-51 -31 -107 -44v89q38 10 68 28q42 24 63 60h86v-367h-110z" />
    <glyph glyph-name="ordmasculine" unicode="&#xba;" horiz-adv-x="385" 
d="M62 678q49 50 132 50q97 0 143 -67q18 -26 27 -59q7 -28 7 -55q0 -82 -46 -132q-47 -52 -129 -52q-101 0 -148 68q-18 26 -27 60q-7 27 -7 55q0 82 48 132zM126 545q0 -40 12 -65q17 -33 55 -33t54 33q12 24 12 65q0 99 -66 99q-43 0 -59 -40q-5 -14 -7 -33q-1 -6 -1 -14
v-12z" />
    <glyph glyph-name="guillemotright" unicode="&#xbb;" 
d="M58 34l131 223l-131 226h130l155 -226l-155 -223h-130zM281 34l131 223l-131 226h130l155 -226l-155 -223h-130z" />
    <glyph glyph-name="onequarter" unicode="&#xbc;" horiz-adv-x="917" 
d="M745 43h-188v80l196 228h90v-232h51v-76h-51v-66h-98v66zM745 119v108l-94 -108h94zM168 359v234q-51 -31 -107 -44v89q38 10 68 28q42 24 63 60h86v-367h-110zM199 -26l438 752h91l-437 -752h-92z" />
    <glyph glyph-name="onehalf" unicode="&#xbd;" horiz-adv-x="917" 
d="M890 -17h-336q9 46 36 79q27 32 104 88q48 35 63 50q20 21 20 41q0 21 -18 30q-6 3 -15 5q-6 1 -13 1q-31 0 -45 -19q-6 -7 -9 -18l-3 -10l-2 -9l-106 9l2 8l2 9q2 10 6 19q8 23 23 39q42 45 135 45q81 0 122 -36q33 -29 33 -72q0 -38 -27 -72q-10 -12 -23 -23
q-5 -4 -10 -9q-4 -3 -9 -6q-9 -7 -47 -33q-13 -10 -28 -19q-12 -9 -17 -12v-2h162v-83zM168 359v234q-51 -31 -107 -44v89q38 10 68 28q42 24 63 60h86v-367h-110zM192 -26l438 752h91l-437 -752h-92z" />
    <glyph glyph-name="threequarters" unicode="&#xbe;" horiz-adv-x="917" 
d="M134 471l2 -7l2 -8q3 -10 9 -16q14 -18 44 -18q25 0 41 14q15 14 15 34q0 27 -25 40q-10 5 -23 7q-11 2 -22 2q-8 0 -16 -1l-6 -1l-6 -1l13 70h9l10 1q13 1 23 5q26 9 26 32q0 17 -14 25q-6 3 -13 5q-6 1 -12 1q-26 0 -39 -15q-5 -6 -8 -14l-3 -8l-2 -7l-107 16l3 6l3 7
q3 9 7 16q11 19 26 33q42 37 122 37q77 0 117 -34q31 -26 31 -61q0 -29 -19 -49q-7 -8 -18 -15l-9 -6l-8 -5l3 -1l4 -2l10 -4q13 -7 24 -16q30 -26 30 -68q0 -57 -54 -88q-45 -26 -110 -26q-60 0 -101 20q-55 27 -66 88zM211 -26l438 752h91l-437 -752h-92zM745 43h-188v80
l196 228h90v-232h51v-76h-51v-66h-98v66zM745 119v108l-94 -108h94z" />
    <glyph glyph-name="questiondown" unicode="&#xbf;" 
d="M73 86q27 39 103 101q43 35 55 61q9 20 9 65h155q0 -80 -16 -117q-17 -39 -76 -87q-60 -49 -75 -67q-17 -20 -17 -46q0 -33 26 -54q25 -21 64 -21q96 0 113 112l157 -20q-9 -104 -82 -163q-73 -58 -188 -58q-118 0 -190 63q-66 58 -66 141q0 49 28 90zM398 362h-168v156
h168v-156z" />
    <glyph glyph-name="Agrave" unicode="&#xc0;" horiz-adv-x="750" 
d="M555 0l-49 140h-269l-47 -140h-189l273 716h198l277 -716h-194zM460 278l-88 262h-2l-87 -262h177zM386 764l-147 146h163l75 -146h-91z" />
    <glyph glyph-name="Aacute" unicode="&#xc1;" horiz-adv-x="750" 
d="M555 0l-49 140h-269l-47 -140h-189l273 716h198l277 -716h-194zM460 278l-88 262h-2l-87 -262h177zM349 910h163l-147 -146h-91z" />
    <glyph glyph-name="Acircumflex" unicode="&#xc2;" horiz-adv-x="750" 
d="M555 0l-49 140h-269l-47 -140h-189l273 716h198l277 -716h-194zM460 278l-88 262h-2l-87 -262h177zM310 910h134l104 -142h-115l-58 74l-56 -74h-116z" />
    <glyph glyph-name="Atilde" unicode="&#xc3;" horiz-adv-x="750" 
d="M555 0l-49 140h-269l-47 -140h-189l273 716h198l277 -716h-194zM460 278l-88 262h-2l-87 -262h177zM203 774q-3 63 22 96q24 33 74 33q17 0 86 -24q44 -16 56 -16q22 0 31 15q3 5 5 13l1 6v6h70v-13q0 -10 -1 -18q-3 -24 -10 -42q-21 -53 -82 -53q-15 0 -34 5q-8 1 -15 3
q-6 2 -11 4q-74 27 -89 27q-19 0 -27 -17q-3 -6 -4 -14l-1 -6l-1 -5h-70z" />
    <glyph glyph-name="Adieresis" unicode="&#xc4;" horiz-adv-x="750" 
d="M555 0l-49 140h-269l-47 -140h-189l273 716h198l277 -716h-194zM460 278l-88 262h-2l-87 -262h177zM210 899h123v-121h-123v121zM418 899h123v-121h-123v121z" />
    <glyph glyph-name="Aring" unicode="&#xc5;" horiz-adv-x="750" 
d="M555 0l-49 140h-269l-47 -140h-189l273 716h198l277 -716h-194zM460 278l-88 262h-2l-87 -262h177zM343 886q-14 -14 -14 -33t14 -33t33 -14t33 14q13 13 13 33t-13 33t-33 13t-33 -13zM451 928q31 -31 31 -75t-31 -76q-32 -31 -76 -31t-75 31q-31 32 -31 76t31 75t75 31
t76 -31z" />
    <glyph glyph-name="AE" unicode="&#xc6;" horiz-adv-x="1000" 
d="M282 716h665v-137h-328v-137h300v-133h-300v-168h339v-141h-516v148h-230l-60 -148h-192zM269 293h174v297h-52z" />
    <glyph glyph-name="Ccedilla" unicode="&#xc7;" horiz-adv-x="750" 
d="M533 473l-2 7l-3 7q-3 9 -7 17q-10 21 -24 36q-38 43 -103 43q-94 0 -134 -83q-15 -31 -22 -73q-5 -32 -5 -68v-28q1 -18 3 -33q4 -43 17 -75q37 -90 137 -90q74 0 114 56q14 20 24 48q4 10 7 22l3 10l2 9l167 -52q-40 -152 -153 -207q-40 -19 -89 -26q-18 -2 -38 -3
l-15 -1h-14v-2h5l6 -1l16 -2q22 -4 39 -12q51 -24 51 -77q0 -16 -7 -32q-8 -20 -26 -35q-44 -38 -138 -38q-34 0 -66 4q-12 1 -24 3q-9 1 -19 3v59l6 -1l8 -1q11 -2 22 -3q30 -3 58 -3h11l13 1q15 2 27 6q31 10 31 36q0 20 -20 30q-15 8 -38 8q-35 0 -71 -9l13 53
q48 12 80 12v2q-112 3 -181 51q-84 58 -120 154q-27 71 -27 161q0 182 103 282q93 90 242 90q245 0 311 -216z" />
    <glyph glyph-name="Egrave" unicode="&#xc8;" horiz-adv-x="698" 
d="M75 716h562v-137h-379v-137h352v-133h-352v-168h391v-141h-574v716zM340 764l-147 146h163l75 -146h-91z" />
    <glyph glyph-name="Eacute" unicode="&#xc9;" horiz-adv-x="698" 
d="M75 716h562v-137h-379v-137h352v-133h-352v-168h391v-141h-574v716zM343 910h163l-147 -146h-91z" />
    <glyph glyph-name="Ecircumflex" unicode="&#xca;" horiz-adv-x="698" 
d="M75 716h562v-137h-379v-137h352v-133h-352v-168h391v-141h-574v716zM284 910h134l104 -142h-115l-58 74l-56 -74h-116z" />
    <glyph glyph-name="Edieresis" unicode="&#xcb;" horiz-adv-x="698" 
d="M75 716h562v-137h-379v-137h352v-133h-352v-168h391v-141h-574v716zM184 899h123v-121h-123v121zM392 899h123v-121h-123v121z" />
    <glyph glyph-name="Igrave" unicode="&#xcc;" horiz-adv-x="333" 
d="M75 716h183v-716h-183v716zM157 764l-147 146h163l75 -146h-91z" />
    <glyph glyph-name="Iacute" unicode="&#xcd;" horiz-adv-x="333" 
d="M75 716h183v-716h-183v716zM160 910h163l-147 -146h-91z" />
    <glyph glyph-name="Icircumflex" unicode="&#xce;" horiz-adv-x="333" 
d="M75 716h183v-716h-183v716zM101 910h134l104 -142h-115l-58 74l-56 -74h-116z" />
    <glyph glyph-name="Idieresis" unicode="&#xcf;" horiz-adv-x="333" 
d="M75 716h183v-716h-183v716zM1 899h123v-121h-123v121zM209 899h123v-121h-123v121z" />
    <glyph glyph-name="Eth" unicode="&#xd0;" horiz-adv-x="750" 
d="M372 716q36 0 61 -2q35 -4 65 -12q75 -22 127 -83q80 -95 80 -260v-27q-1 -17 -2 -33q-4 -41 -13 -76q-27 -97 -100 -160t-214 -63h-301v303h-74v110h74v303h297zM258 575v-162h131v-110h-131v-162h81q42 0 64 4q35 6 58 24q58 45 58 187q0 144 -61 190q-38 29 -140 29
h-60z" />
    <glyph glyph-name="Ntilde" unicode="&#xd1;" horiz-adv-x="781" 
d="M77 716h173l280 -437h2v437h171v-716h-177l-276 430h-2v-430h-171v716zM218 774q-3 63 22 96q24 33 74 33q17 0 86 -24q44 -16 56 -16q22 0 31 15q3 5 5 13l1 6v6h70v-13q0 -10 -1 -18q-3 -24 -10 -42q-21 -53 -82 -53q-15 0 -34 5q-8 1 -15 3q-6 2 -11 4q-74 27 -89 27
q-19 0 -27 -17q-3 -6 -4 -14l-1 -6l-1 -5h-70z" />
    <glyph glyph-name="Ograve" unicode="&#xd2;" horiz-adv-x="802" 
d="M131 624q95 104 266 104q183 0 278 -107q85 -97 85 -261q0 -166 -86 -264q-94 -108 -272 -108q-181 0 -276 110q-84 97 -84 259q0 168 89 267zM285 180q45 -47 115 -47q31 0 58 10q35 12 61 38q55 55 55 180v22q-1 16 -3 30q-4 42 -18 75q-41 95 -153 95q-105 0 -147 -88
q-15 -32 -21 -75q-2 -16 -3 -34q-1 -13 -1 -28q0 -119 57 -178zM392 764l-147 146h163l75 -146h-91z" />
    <glyph glyph-name="Oacute" unicode="&#xd3;" horiz-adv-x="802" 
d="M131 624q95 104 266 104q183 0 278 -107q85 -97 85 -261q0 -166 -86 -264q-94 -108 -272 -108q-181 0 -276 110q-84 97 -84 259q0 168 89 267zM285 180q45 -47 115 -47q31 0 58 10q35 12 61 38q55 55 55 180v22q-1 16 -3 30q-4 42 -18 75q-41 95 -153 95q-105 0 -147 -88
q-15 -32 -21 -75q-2 -16 -3 -34q-1 -13 -1 -28q0 -119 57 -178zM395 910h163l-147 -146h-91z" />
    <glyph glyph-name="Ocircumflex" unicode="&#xd4;" horiz-adv-x="802" 
d="M131 624q95 104 266 104q183 0 278 -107q85 -97 85 -261q0 -166 -86 -264q-94 -108 -272 -108q-181 0 -276 110q-84 97 -84 259q0 168 89 267zM285 180q45 -47 115 -47q31 0 58 10q35 12 61 38q55 55 55 180v22q-1 16 -3 30q-4 42 -18 75q-41 95 -153 95q-105 0 -147 -88
q-15 -32 -21 -75q-2 -16 -3 -34q-1 -13 -1 -28q0 -119 57 -178zM336 910h134l104 -142h-115l-58 74l-56 -74h-116z" />
    <glyph glyph-name="Otilde" unicode="&#xd5;" horiz-adv-x="802" 
d="M131 624q95 104 266 104q183 0 278 -107q85 -97 85 -261q0 -166 -86 -264q-94 -108 -272 -108q-181 0 -276 110q-84 97 -84 259q0 168 89 267zM285 180q45 -47 115 -47q31 0 58 10q35 12 61 38q55 55 55 180v22q-1 16 -3 30q-4 42 -18 75q-41 95 -153 95q-105 0 -147 -88
q-15 -32 -21 -75q-2 -16 -3 -34q-1 -13 -1 -28q0 -119 57 -178zM229 774q-3 63 22 96q24 33 74 33q17 0 86 -24q44 -16 56 -16q22 0 31 15q3 5 5 13l1 6v6h70v-13q0 -10 -1 -18q-3 -24 -10 -42q-21 -53 -82 -53q-15 0 -34 5q-8 1 -15 3q-6 2 -11 4q-74 27 -89 27
q-19 0 -27 -17q-3 -6 -4 -14l-1 -6l-1 -5h-70z" />
    <glyph glyph-name="Odieresis" unicode="&#xd6;" horiz-adv-x="802" 
d="M131 624q95 104 266 104q183 0 278 -107q85 -97 85 -261q0 -166 -86 -264q-94 -108 -272 -108q-181 0 -276 110q-84 97 -84 259q0 168 89 267zM285 180q45 -47 115 -47q31 0 58 10q35 12 61 38q55 55 55 180v22q-1 16 -3 30q-4 42 -18 75q-41 95 -153 95q-105 0 -147 -88
q-15 -32 -21 -75q-2 -16 -3 -34q-1 -13 -1 -28q0 -119 57 -178zM236 899h123v-121h-123v121zM444 899h123v-121h-123v121z" />
    <glyph glyph-name="multiply" unicode="&#xd7;" horiz-adv-x="625" 
d="M211 356l-151 151l102 102l151 -151l151 151l100 -101l-151 -151l152 -152l-101 -101l-152 152l-151 -152l-101 101z" />
    <glyph glyph-name="Oslash" unicode="&#xd8;" horiz-adv-x="802" 
d="M21 37l85 87q-12 18 -21 34q-12 23 -20 48q-23 66 -23 152q0 171 94 270q95 100 264 100q59 0 110 -12q68 -16 119 -54l80 83l71 -69l-83 -86q63 -89 63 -235q0 -155 -81 -253q-94 -114 -276 -114q-57 0 -111 13q-68 16 -117 51l-82 -85zM512 544q-27 25 -67 34
q-13 3 -27 4q-5 1 -10 1h-7q-100 0 -143 -80q-17 -31 -24 -73q-6 -33 -6 -71q0 -55 12 -99zM293 172q45 -39 107 -39q52 0 88 22q12 7 22 16q3 3 6 7l2 2l2 2l4 4l3 5q5 5 9 11q10 14 18 32q20 49 20 124q0 35 -4 59q-1 9 -4 19l-4 17z" />
    <glyph glyph-name="Ugrave" unicode="&#xd9;" horiz-adv-x="781" 
d="M259 716v-438q1 -16 2 -28q4 -33 15 -56q29 -61 117 -61q84 0 113 59q10 22 14 54q1 12 2 27v443h183v-422l-1 -23q-1 -28 -4 -51q-8 -63 -33 -108q-68 -124 -263 -124q-102 0 -162 21q-84 29 -128 104q-24 40 -33 113q-3 25 -4 52q-1 10 -1 20v418h183zM381 764
l-147 146h163l75 -146h-91z" />
    <glyph glyph-name="Uacute" unicode="&#xda;" horiz-adv-x="781" 
d="M259 716v-438q1 -16 2 -28q4 -33 15 -56q29 -61 117 -61q84 0 113 59q10 22 14 54q1 12 2 27v443h183v-422l-1 -23q-1 -28 -4 -51q-8 -63 -33 -108q-68 -124 -263 -124q-102 0 -162 21q-84 29 -128 104q-24 40 -33 113q-3 25 -4 52q-1 10 -1 20v418h183zM384 910h163
l-147 -146h-91z" />
    <glyph glyph-name="Ucircumflex" unicode="&#xdb;" horiz-adv-x="781" 
d="M259 716v-438q1 -16 2 -28q4 -33 15 -56q29 -61 117 -61q84 0 113 59q10 22 14 54q1 12 2 27v443h183v-422l-1 -23q-1 -28 -4 -51q-8 -63 -33 -108q-68 -124 -263 -124q-102 0 -162 21q-84 29 -128 104q-24 40 -33 113q-3 25 -4 52q-1 10 -1 20v418h183zM325 910h134
l104 -142h-115l-58 74l-56 -74h-116z" />
    <glyph glyph-name="Udieresis" unicode="&#xdc;" horiz-adv-x="781" 
d="M259 716v-438q1 -16 2 -28q4 -33 15 -56q29 -61 117 -61q84 0 113 59q10 22 14 54q1 12 2 27v443h183v-422l-1 -23q-1 -28 -4 -51q-8 -63 -33 -108q-68 -124 -263 -124q-102 0 -162 21q-84 29 -128 104q-24 40 -33 113q-3 25 -4 52q-1 10 -1 20v418h183zM225 899h123
v-121h-123v121zM433 899h123v-121h-123v121z" />
    <glyph glyph-name="Yacute" unicode="&#xdd;" horiz-adv-x="719" 
d="M268 301l-270 415h207l156 -262l155 262h206l-271 -416v-300h-183v301zM353 910h163l-147 -146h-91z" />
    <glyph glyph-name="Thorn" unicode="&#xde;" horiz-adv-x="698" 
d="M75 716h183v-131h111q86 0 127 -9q54 -11 92 -45q65 -57 65 -166v-16l-2 -22q-4 -28 -13 -53q-26 -71 -94 -108q-36 -19 -94 -26q-21 -2 -46 -3h-146v-137h-183v716zM258 270h87q13 0 23 1q28 3 48 10q55 21 55 80q0 39 -27 64q-30 27 -119 27h-67v-182z" />
    <glyph glyph-name="germandbls" unicode="&#xdf;" horiz-adv-x="635" 
d="M60 500q1 24 4 43q6 52 26 88q53 97 209 97q117 0 172 -52q40 -39 40 -97q0 -19 -5 -38q-7 -25 -25 -56l-5 -9l-5 -9q-7 -12 -11 -21q-12 -24 -12 -34q0 -17 19 -40q13 -17 37 -38q40 -34 65 -77q32 -53 32 -107q0 -69 -46 -114q-49 -48 -130 -48q-65 0 -113 33
q-17 11 -31 27q-6 6 -11 13q-4 4 -8 10l102 59q19 -30 46 -30q18 0 31 13q12 13 12 32q0 31 -57 86q-61 60 -79 83q-28 36 -28 65q0 31 31 94q30 61 30 88q0 22 -15 36q-16 15 -41 15q-46 0 -61 -45q-6 -17 -8 -41l-1 -22v-504h-164v500z" />
    <glyph glyph-name="agrave" unicode="&#xe0;" 
d="M52 377q21 86 84 121q57 32 174 32q147 0 201 -56q44 -46 44 -158v-176q0 -80 27 -140h-164q-18 38 -19 60q-33 -32 -67 -48q-50 -24 -115 -24q-90 0 -138 48q-43 41 -43 104q0 79 64 119q23 15 58 25q13 4 29 8q10 3 27 6q54 11 96 21q54 13 77 23v14l-1 14q-2 15 -9 25
q-16 25 -68 25q-50 0 -73 -22q-10 -8 -16 -21l-6 -11l-4 -11zM387 248q-27 -10 -105 -29q-33 -7 -51 -21q-25 -17 -25 -45q0 -9 3 -18q4 -12 11 -20q19 -23 57 -23q63 0 95 51q7 12 10 27q5 22 5 62v16zM298 584l-147 146h163l75 -146h-91z" />
    <glyph glyph-name="aacute" unicode="&#xe1;" 
d="M52 377q21 86 84 121q57 32 174 32q147 0 201 -56q44 -46 44 -158v-176q0 -80 27 -140h-164q-18 38 -19 60q-33 -32 -67 -48q-50 -24 -115 -24q-90 0 -138 48q-43 41 -43 104q0 79 64 119q23 15 58 25q13 4 29 8q10 3 27 6q54 11 96 21q54 13 77 23v14l-1 14q-2 15 -9 25
q-16 25 -68 25q-50 0 -73 -22q-10 -8 -16 -21l-6 -11l-4 -11zM387 248q-27 -10 -105 -29q-33 -7 -51 -21q-25 -17 -25 -45q0 -9 3 -18q4 -12 11 -20q19 -23 57 -23q63 0 95 51q7 12 10 27q5 22 5 62v16zM301 730h163l-147 -146h-91z" />
    <glyph glyph-name="acircumflex" unicode="&#xe2;" 
d="M52 377q21 86 84 121q57 32 174 32q147 0 201 -56q44 -46 44 -158v-176q0 -80 27 -140h-164q-18 38 -19 60q-33 -32 -67 -48q-50 -24 -115 -24q-90 0 -138 48q-43 41 -43 104q0 79 64 119q23 15 58 25q13 4 29 8q10 3 27 6q54 11 96 21q54 13 77 23v14l-1 14q-2 15 -9 25
q-16 25 -68 25q-50 0 -73 -22q-10 -8 -16 -21l-6 -11l-4 -11zM387 248q-27 -10 -105 -29q-33 -7 -51 -21q-25 -17 -25 -45q0 -9 3 -18q4 -12 11 -20q19 -23 57 -23q63 0 95 51q7 12 10 27q5 22 5 62v16zM242 730h134l104 -142h-115l-58 74l-56 -74h-116z" />
    <glyph glyph-name="atilde" unicode="&#xe3;" 
d="M52 377q21 86 84 121q57 32 174 32q147 0 201 -56q44 -46 44 -158v-176q0 -80 27 -140h-164q-18 38 -19 60q-33 -32 -67 -48q-50 -24 -115 -24q-90 0 -138 48q-43 41 -43 104q0 79 64 119q23 15 58 25q13 4 29 8q10 3 27 6q54 11 96 21q54 13 77 23v14l-1 14q-2 15 -9 25
q-16 25 -68 25q-50 0 -73 -22q-10 -8 -16 -21l-6 -11l-4 -11zM387 248q-27 -10 -105 -29q-33 -7 -51 -21q-25 -17 -25 -45q0 -9 3 -18q4 -12 11 -20q19 -23 57 -23q63 0 95 51q7 12 10 27q5 22 5 62v16zM135 594q-3 63 22 96q24 33 74 33q17 0 86 -24q44 -16 56 -16
q22 0 31 15q3 5 5 13l1 6v6h70v-13q0 -10 -1 -18q-3 -24 -10 -42q-21 -53 -82 -53q-15 0 -34 5q-8 1 -15 3q-6 2 -11 4q-74 27 -89 27q-19 0 -27 -17q-3 -6 -4 -14l-1 -6l-1 -5h-70z" />
    <glyph glyph-name="adieresis" unicode="&#xe4;" 
d="M52 377q21 86 84 121q57 32 174 32q147 0 201 -56q44 -46 44 -158v-176q0 -80 27 -140h-164q-18 38 -19 60q-33 -32 -67 -48q-50 -24 -115 -24q-90 0 -138 48q-43 41 -43 104q0 79 64 119q23 15 58 25q13 4 29 8q10 3 27 6q54 11 96 21q54 13 77 23v14l-1 14q-2 15 -9 25
q-16 25 -68 25q-50 0 -73 -22q-10 -8 -16 -21l-6 -11l-4 -11zM387 248q-27 -10 -105 -29q-33 -7 -51 -21q-25 -17 -25 -45q0 -9 3 -18q4 -12 11 -20q19 -23 57 -23q63 0 95 51q7 12 10 27q5 22 5 62v16zM142 719h123v-121h-123v121zM350 719h123v-121h-123v121z" />
    <glyph glyph-name="aring" unicode="&#xe5;" 
d="M52 377q21 86 84 121q57 32 174 32q147 0 201 -56q44 -46 44 -158v-176q0 -80 27 -140h-164q-18 38 -19 60q-33 -32 -67 -48q-50 -24 -115 -24q-90 0 -138 48q-43 41 -43 104q0 79 64 119q23 15 58 25q13 4 29 8q10 3 27 6q54 11 96 21q54 13 77 23v14l-1 14q-2 15 -9 25
q-16 25 -68 25q-50 0 -73 -22q-10 -8 -16 -21l-6 -11l-4 -11zM387 248q-27 -10 -105 -29q-33 -7 -51 -21q-25 -17 -25 -45q0 -9 3 -18q4 -12 11 -20q19 -23 57 -23q63 0 95 51q7 12 10 27q5 22 5 62v16zM275 706q-14 -14 -14 -33t14 -33t33 -14t33 14q13 13 13 33t-13 33
t-33 13t-33 -13zM383 748q31 -31 31 -75t-31 -76q-32 -31 -76 -31t-75 31q-31 32 -31 76t31 75t75 31t76 -31z" />
    <glyph glyph-name="ae" unicode="&#xe6;" horiz-adv-x="948" 
d="M900 140q-65 -152 -248 -152q-82 0 -141 29q-21 11 -40 25q-7 6 -14 13l-6 5l-5 5q-17 -14 -33 -24q-23 -14 -47 -25q-65 -28 -142 -28q-105 0 -152 60q-18 22 -26 51q-6 21 -6 41q0 69 53 111q39 32 101 45q157 34 191 45v12l-1 13q-2 16 -8 26q-17 28 -67 28t-74 -25
q-9 -9 -14 -21l-4 -10l-3 -9l-157 23q21 71 62 104q59 48 180 48q76 0 127 -17q19 -6 37 -16l13 -8l12 -8l5 3l5 4l13 8q17 9 34 16q46 18 101 18q72 0 130 -29q70 -35 105 -105q27 -55 28 -181h-360q9 -115 98 -115q37 0 61 21q9 8 17 20l6 10l5 9zM743 305l-2 14l-2 15
q-3 18 -8 30q-23 56 -85 56q-86 0 -97 -115h194zM378 246l-6 -2q-8 -2 -15 -4q-21 -6 -39 -11q-52 -15 -65 -21l-5 -2l-7 -3q-8 -4 -14 -10q-17 -16 -17 -39q0 -8 3 -17q3 -11 11 -20q18 -23 55 -23q46 0 75 32q31 33 31 88v13q-1 9 -3 20z" />
    <glyph glyph-name="ccedilla" unicode="&#xe7;" 
d="M375 71l-2 2l-83 -22l2 -2zM303 -10q-136 0 -200 80q-12 16 -21 29q-11 19 -20 39q-21 52 -21 120q0 115 61 187q73 85 215 85q120 0 186 -53q53 -43 78 -130l-161 -23q-13 50 -50 69q-13 7 -28 10q-6 1 -11 2h-9q-66 0 -94 -60q-10 -22 -14 -49q-2 -11 -2 -22
q-1 -8 -1 -16v-15q1 -11 2 -21q4 -27 13 -48q26 -61 95 -61q50 0 78 35q10 12 17 29q2 6 5 13l2 6l1 5l162 -22q-48 -190 -251 -190v-2q108 -12 108 -89q0 -47 -45 -74q-43 -27 -114 -27q-32 0 -64 3q-12 2 -25 3l-10 2l-9 1v55q35 -7 78 -7h12l14 1q18 1 30 4q35 10 35 37
q0 37 -56 37q-19 0 -38 -2l-17 -3l-15 -2l15 53q18 4 35 6q21 3 34 3v2z" />
    <glyph glyph-name="egrave" unicode="&#xe8;" 
d="M206 215q7 -116 109 -116q61 0 88 60l167 -20q-11 -29 -24 -49q-19 -29 -44 -49q-66 -53 -186 -53q-42 0 -77 7q-47 9 -82 29q-70 41 -100 121q-11 30 -16 63q-4 25 -4 49q0 112 62 187q72 86 203 86q282 0 277 -315h-373zM410 305l-1 6l-1 7q-1 9 -2 16q-5 22 -14 39
q-25 47 -81 47q-46 0 -76 -34q-29 -33 -28 -81h203zM298 584l-147 146h163l75 -146h-91z" />
    <glyph glyph-name="eacute" unicode="&#xe9;" 
d="M206 215q7 -116 109 -116q61 0 88 60l167 -20q-11 -29 -24 -49q-19 -29 -44 -49q-66 -53 -186 -53q-42 0 -77 7q-47 9 -82 29q-70 41 -100 121q-11 30 -16 63q-4 25 -4 49q0 112 62 187q72 86 203 86q282 0 277 -315h-373zM410 305l-1 6l-1 7q-1 9 -2 16q-5 22 -14 39
q-25 47 -81 47q-46 0 -76 -34q-29 -33 -28 -81h203zM301 730h163l-147 -146h-91z" />
    <glyph glyph-name="ecircumflex" unicode="&#xea;" 
d="M206 215q7 -116 109 -116q61 0 88 60l167 -20q-11 -29 -24 -49q-19 -29 -44 -49q-66 -53 -186 -53q-42 0 -77 7q-47 9 -82 29q-70 41 -100 121q-11 30 -16 63q-4 25 -4 49q0 112 62 187q72 86 203 86q282 0 277 -315h-373zM410 305l-1 6l-1 7q-1 9 -2 16q-5 22 -14 39
q-25 47 -81 47q-46 0 -76 -34q-29 -33 -28 -81h203zM242 730h134l104 -142h-115l-58 74l-56 -74h-116z" />
    <glyph glyph-name="edieresis" unicode="&#xeb;" 
d="M206 215q7 -116 109 -116q61 0 88 60l167 -20q-11 -29 -24 -49q-19 -29 -44 -49q-66 -53 -186 -53q-42 0 -77 7q-47 9 -82 29q-70 41 -100 121q-11 30 -16 63q-4 25 -4 49q0 112 62 187q72 86 203 86q282 0 277 -315h-373zM410 305l-1 6l-1 7q-1 9 -2 16q-5 22 -14 39
q-25 47 -81 47q-46 0 -76 -34q-29 -33 -28 -81h203zM142 719h123v-121h-123v121zM350 719h123v-121h-123v121z" />
    <glyph glyph-name="igrave" unicode="&#xec;" horiz-adv-x="302" 
d="M67 518h168v-518h-168v518zM142 584l-147 146h163l75 -146h-91z" />
    <glyph glyph-name="iacute" unicode="&#xed;" horiz-adv-x="302" 
d="M67 518h168v-518h-168v518zM145 730h163l-147 -146h-91z" />
    <glyph glyph-name="icircumflex" unicode="&#xee;" horiz-adv-x="302" 
d="M67 518h168v-518h-168v518zM86 730h134l104 -142h-115l-58 74l-56 -74h-116z" />
    <glyph glyph-name="idieresis" unicode="&#xef;" horiz-adv-x="302" 
d="M67 518h168v-518h-168v518zM-14 719h123v-121h-123v121zM194 719h123v-121h-123v121z" />
    <glyph glyph-name="eth" unicode="&#xf0;" horiz-adv-x="635" 
d="M333 716q30 -20 54 -39l94 39l20 -49l-71 -29q169 -171 169 -367q0 -131 -79 -208q-77 -75 -200 -75q-146 0 -222 92q-62 74 -62 179q0 115 73 190q69 69 163 69q52 0 102 -32l2 2q-26 45 -67 100l-133 -55l-19 50l115 47q-34 33 -64 55q-12 9 -25 17l-22 14h172z
M284 397q-21 -7 -38 -23l-6 -6l-7 -7q-7 -10 -13 -22q-14 -33 -14 -87q0 -65 31 -104q30 -38 78 -38q17 0 34 6q21 8 38 23q42 40 42 120q0 74 -38 112q-31 31 -76 31q-16 0 -31 -5z" />
    <glyph glyph-name="ntilde" unicode="&#xf1;" horiz-adv-x="635" 
d="M63 518h156v-80h2q67 92 175 92q115 0 155 -86q14 -31 19 -73q2 -16 3 -35v-336h-168v295l-1 21q-2 24 -9 41q-17 43 -68 43q-27 0 -50 -15q-28 -18 -39 -53q-4 -12 -6 -44q0 -12 -1 -25v-263h-168v518zM145 594q-3 63 22 96q24 33 74 33q17 0 86 -24q44 -16 56 -16
q22 0 31 15q3 5 5 13l1 6v6h70v-13q0 -10 -1 -18q-3 -24 -10 -42q-21 -53 -82 -53q-15 0 -34 5q-8 1 -15 3q-6 2 -11 4q-74 27 -89 27q-19 0 -27 -17q-3 -6 -4 -14l-1 -6l-1 -5h-70z" />
    <glyph glyph-name="ograve" unicode="&#xf2;" horiz-adv-x="635" 
d="M105 448q77 82 211 82q140 0 217 -87q67 -74 67 -183q0 -108 -67 -184q-78 -88 -216 -88q-133 0 -210 81q-72 74 -72 188q0 116 70 191zM234 154q30 -41 84 -41q48 0 78 34q34 39 34 111q0 63 -26 102q-30 45 -86 45q-49 0 -79 -35q-34 -39 -34 -113q0 -65 29 -103z
M308 584l-147 146h163l75 -146h-91z" />
    <glyph glyph-name="oacute" unicode="&#xf3;" horiz-adv-x="635" 
d="M105 448q77 82 211 82q140 0 217 -87q67 -74 67 -183q0 -108 -67 -184q-78 -88 -216 -88q-133 0 -210 81q-72 74 -72 188q0 116 70 191zM234 154q30 -41 84 -41q48 0 78 34q34 39 34 111q0 63 -26 102q-30 45 -86 45q-49 0 -79 -35q-34 -39 -34 -113q0 -65 29 -103z
M311 730h163l-147 -146h-91z" />
    <glyph glyph-name="ocircumflex" unicode="&#xf4;" horiz-adv-x="635" 
d="M105 448q77 82 211 82q140 0 217 -87q67 -74 67 -183q0 -108 -67 -184q-78 -88 -216 -88q-133 0 -210 81q-72 74 -72 188q0 116 70 191zM234 154q30 -41 84 -41q48 0 78 34q34 39 34 111q0 63 -26 102q-30 45 -86 45q-49 0 -79 -35q-34 -39 -34 -113q0 -65 29 -103z
M252 730h134l104 -142h-115l-58 74l-56 -74h-116z" />
    <glyph glyph-name="otilde" unicode="&#xf5;" horiz-adv-x="635" 
d="M105 448q77 82 211 82q140 0 217 -87q67 -74 67 -183q0 -108 -67 -184q-78 -88 -216 -88q-133 0 -210 81q-72 74 -72 188q0 116 70 191zM234 154q30 -41 84 -41q48 0 78 34q34 39 34 111q0 63 -26 102q-30 45 -86 45q-49 0 -79 -35q-34 -39 -34 -113q0 -65 29 -103z
M145 594q-3 63 22 96q24 33 74 33q17 0 86 -24q44 -16 56 -16q22 0 31 15q3 5 5 13l1 6v6h70v-13q0 -10 -1 -18q-3 -24 -10 -42q-21 -53 -82 -53q-15 0 -34 5q-8 1 -15 3q-6 2 -11 4q-74 27 -89 27q-19 0 -27 -17q-3 -6 -4 -14l-1 -6l-1 -5h-70z" />
    <glyph glyph-name="odieresis" unicode="&#xf6;" horiz-adv-x="635" 
d="M105 448q77 82 211 82q140 0 217 -87q67 -74 67 -183q0 -108 -67 -184q-78 -88 -216 -88q-133 0 -210 81q-72 74 -72 188q0 116 70 191zM234 154q30 -41 84 -41q48 0 78 34q34 39 34 111q0 63 -26 102q-30 45 -86 45q-49 0 -79 -35q-34 -39 -34 -113q0 -65 29 -103z
M152 719h123v-121h-123v121zM360 719h123v-121h-123v121z" />
    <glyph glyph-name="divide" unicode="&#xf7;" horiz-adv-x="625" 
d="M396 640v-159h-167v159h167zM229 230h167v-159h-167v159zM54 427h517v-143h-517v143z" />
    <glyph glyph-name="oslash" unicode="&#xf8;" horiz-adv-x="635" 
d="M535 555l53 -45l-57 -64q10 -12 20 -25q13 -19 22 -40q27 -57 27 -121q0 -110 -69 -186q-78 -86 -209 -86q-52 0 -99 14q-17 5 -35 13l-14 6l-13 6l-61 -68l-52 46l58 64l-4 5l-5 5q-5 7 -11 14q-13 19 -23 39q-28 57 -28 125q0 117 70 191q77 82 213 82q55 0 99 -14
q17 -5 34 -13q11 -5 26 -13zM390 391l-4 3l-5 4q-7 5 -14 9q-20 10 -46 10q-64 0 -97 -53q-27 -42 -27 -101q0 -22 4 -44l3 -18l4 -16zM248 125l4 -3l6 -4q7 -4 15 -8q22 -9 48 -9q60 0 93 53q27 42 27 100q0 21 -4 43l-4 18l-4 16z" />
    <glyph glyph-name="ugrave" unicode="&#xf9;" horiz-adv-x="635" 
d="M415 0v81h-2q-4 -6 -8 -11q-6 -7 -12 -13q-16 -17 -36 -30q-54 -36 -128 -36q-52 0 -93 25q-37 23 -52 56q-13 30 -18 63q-4 23 -4 55v328h168v-261q0 -30 1 -48q3 -27 9 -45q17 -46 67 -46q55 0 82 48q15 25 15 118v234h168v-518h-157zM308 584l-147 146h163l75 -146
h-91z" />
    <glyph glyph-name="uacute" unicode="&#xfa;" horiz-adv-x="635" 
d="M415 0v81h-2q-4 -6 -8 -11q-6 -7 -12 -13q-16 -17 -36 -30q-54 -36 -128 -36q-52 0 -93 25q-37 23 -52 56q-13 30 -18 63q-4 23 -4 55v328h168v-261q0 -30 1 -48q3 -27 9 -45q17 -46 67 -46q55 0 82 48q15 25 15 118v234h168v-518h-157zM311 730h163l-147 -146h-91z" />
    <glyph glyph-name="ucircumflex" unicode="&#xfb;" horiz-adv-x="635" 
d="M415 0v81h-2q-4 -6 -8 -11q-6 -7 -12 -13q-16 -17 -36 -30q-54 -36 -128 -36q-52 0 -93 25q-37 23 -52 56q-13 30 -18 63q-4 23 -4 55v328h168v-261q0 -30 1 -48q3 -27 9 -45q17 -46 67 -46q55 0 82 48q15 25 15 118v234h168v-518h-157zM252 730h134l104 -142h-115
l-58 74l-56 -74h-116z" />
    <glyph glyph-name="udieresis" unicode="&#xfc;" horiz-adv-x="635" 
d="M415 0v81h-2q-4 -6 -8 -11q-6 -7 -12 -13q-16 -17 -36 -30q-54 -36 -128 -36q-52 0 -93 25q-37 23 -52 56q-13 30 -18 63q-4 23 -4 55v328h168v-261q0 -30 1 -48q3 -27 9 -45q17 -46 67 -46q55 0 82 48q15 25 15 118v234h168v-518h-157zM152 719h123v-121h-123v121z
M360 719h123v-121h-123v121z" />
    <glyph glyph-name="yacute" unicode="&#xfd;" horiz-adv-x="583" 
d="M183 518l115 -356h2l109 356h169l-195 -526q-40 -109 -71 -145q-50 -57 -149 -57q-27 0 -62 4q-27 2 -51 6l-14 123q24 -6 50 -9q9 -1 18 -1h11q68 0 98 86l-208 519h178zM285 730h163l-147 -146h-91z" />
    <glyph glyph-name="thorn" unicode="&#xfe;" horiz-adv-x="635" 
d="M63 716h168v-252h2q4 5 8 9l11 11q14 12 30 21q43 25 100 25q92 0 153 -69q66 -75 66 -202q0 -122 -64 -198q-61 -73 -157 -73q-53 0 -96 25q-16 10 -31 23q-11 9 -22 21v-254h-168v913zM264 376q-35 -37 -35 -114q0 -88 45 -125q16 -13 35 -18q7 -2 14 -3q6 -1 10 -1
q16 0 31 6q18 7 32 22q35 37 35 118q0 78 -34 116q-27 28 -65 28q-40 0 -68 -29z" />
    <glyph glyph-name="ydieresis" unicode="&#xff;" horiz-adv-x="583" 
d="M183 518l115 -356h2l109 356h169l-195 -526q-40 -109 -71 -145q-50 -57 -149 -57q-27 0 -62 4q-27 2 -51 6l-14 123q24 -6 50 -9q9 -1 18 -1h11q68 0 98 86l-208 519h178zM126 719h123v-121h-123v121zM334 719h123v-121h-123v121z" />
    <glyph glyph-name="dotlessi" unicode="&#x131;" horiz-adv-x="302" 
d="M67 518h168v-518h-168v518z" />
    <glyph glyph-name="Lslash" unicode="&#x141;" horiz-adv-x="635" 
d="M74 716h183v-217l158 126v-128l-158 -126v-223h352v-148h-535v228l-75 -60v126l75 60v362z" />
    <glyph glyph-name="lslash" unicode="&#x142;" horiz-adv-x="302" 
d="M67 716h168v-240l67 52v-95l-67 -51v-382h-168v258l-67 -50v94l67 51v363z" />
    <glyph glyph-name="OE" unicode="&#x152;" horiz-adv-x="1052" 
d="M1005 571h-319v-123h292v-143h-292v-162h334v-143h-495v83h-2q-5 -8 -9 -14q-6 -8 -12 -15q-15 -18 -35 -31q-53 -35 -140 -35q-150 0 -227 117q-66 99 -66 254q0 154 66 254q76 115 222 115q81 0 136 -31q21 -12 40 -29q7 -6 14 -14l7 -7l6 -7v76h480v-145zM216 329
q1 -18 3 -35q5 -43 18 -75q36 -87 126 -87q26 0 47 8q30 12 53 40q22 26 33 59q15 49 15 128v21q-1 15 -2 29q-5 41 -17 73q-36 94 -132 94q-31 0 -57 -12q-21 -10 -36 -27q-32 -35 -44 -92q-5 -22 -7 -49q-1 -19 -1 -45q0 -16 1 -30z" />
    <glyph glyph-name="oe" unicode="&#x153;" horiz-adv-x="969" 
d="M576 216v-7l1 -7q1 -10 2 -18q4 -22 13 -38q23 -46 84 -46q38 0 60 21q8 8 16 20l5 10l5 10l162 -20q-35 -91 -120 -129q-31 -14 -69 -20q-26 -4 -55 -4q-73 0 -132 27q-21 9 -39 22q-6 4 -13 9l-5 4l-4 3q-16 -12 -29 -21q-19 -13 -39 -21q-52 -23 -113 -23
q-122 0 -199 80q-74 77 -74 193q0 112 69 187q75 82 203 82q64 0 116 -22q35 -15 70 -44q14 12 28 21q18 13 39 22q52 23 117 23q75 0 133 -30q71 -38 104 -117q18 -42 23 -92q1 -19 1 -41v-34h-360zM768 306q-3 67 -39 95q-13 11 -30 16q-13 3 -26 3q-56 0 -80 -47
q-8 -16 -13 -38q-1 -8 -3 -17v-6l-1 -6h192zM203 260q0 -74 33 -111q27 -31 70 -31q102 0 102 145v13q0 10 -1 19q-3 27 -11 49q-24 62 -88 62q-67 0 -92 -65q-8 -22 -11 -49l-2 -20v-12z" />
    <glyph glyph-name="Scaron" unicode="&#x160;" horiz-adv-x="698" 
d="M214 248l1 -8l2 -9q3 -11 6 -20q7 -24 20 -41q36 -49 111 -49q53 0 86 23q34 23 34 62q0 41 -40 61q-27 14 -136 40l-14 3l-15 4q-19 6 -35 11q-45 16 -78 37q-92 60 -92 163t91 157q76 46 188 46q170 0 239 -82q26 -29 38 -70q5 -16 8 -34l2 -15l2 -14l-177 -9l-3 15
l-4 16q-7 18 -17 32q-29 35 -92 35q-43 0 -71 -15q-32 -17 -32 -48q0 -32 41 -51q27 -12 118 -33l18 -4l20 -5q23 -6 42 -12q50 -16 85 -38q94 -61 94 -174q0 -11 -1 -23q-2 -16 -6 -32q-11 -44 -37 -78q-75 -101 -255 -101q-81 0 -143 19q-84 26 -128 87q-25 35 -35 74
q-5 16 -7 35q-2 11 -4 32zM282 768l-105 142h116l56 -74l58 74h115l-106 -142h-134z" />
    <glyph glyph-name="scaron" unicode="&#x161;" horiz-adv-x="563" 
d="M347 371l-3 9l-5 9q-5 12 -13 19q-22 21 -63 21q-24 0 -41 -8q-24 -11 -24 -32t29 -33q21 -9 121 -33q37 -9 61 -17q33 -12 56 -28q58 -40 58 -115q0 -88 -80 -135q-67 -40 -165 -40q-217 0 -251 158l166 20l4 -11l6 -12q6 -14 16 -23q24 -26 69 -26q34 0 55 15
q22 14 22 36q0 25 -57 44q-11 4 -68 21l-21 6q-11 3 -19 6q-20 6 -26 8q-51 17 -83 45q-45 39 -45 93q0 66 46 109q57 53 179 53q137 0 200 -69q22 -25 33 -69zM214 588l-105 142h116l56 -74l58 74h115l-106 -142h-134z" />
    <glyph glyph-name="Ydieresis" unicode="&#x178;" horiz-adv-x="719" 
d="M268 301l-270 415h207l156 -262l155 262h206l-271 -416v-300h-183v301zM194 899h123v-121h-123v121zM402 899h123v-121h-123v121z" />
    <glyph glyph-name="Zcaron" unicode="&#x17d;" horiz-adv-x="667" 
d="M18 144l386 435h-346v137h575v-128l-397 -451h412v-137h-630v144zM266 768l-105 142h116l56 -74l58 74h115l-106 -142h-134z" />
    <glyph glyph-name="zcaron" unicode="&#x17e;" horiz-adv-x="531" 
d="M20 118l221 239q26 29 35 38q-18 -1 -31 -1h-206v124h455v-106l-229 -247q-28 -29 -37 -37l2 -2q6 1 18 1q12 1 17 1h245v-128h-490v118zM198 588l-105 142h116l56 -74l58 74h115l-106 -142h-134z" />
    <glyph glyph-name="florin" unicode="&#x192;" 
d="M246 376h-95l23 122h97l15 74l5 25q4 15 7 26q10 30 25 49q40 51 131 51q77 0 154 -25l-31 -119l-16 5q-9 4 -18 6q-21 5 -43 5q-26 0 -39 -18q-8 -12 -16 -48l-7 -31h99l-24 -122h-98l-88 -454q-2 -13 -4 -21q-3 -13 -7 -23q-9 -26 -25 -45q-41 -48 -133 -48
q-47 0 -90 8q-17 3 -34 8q-13 3 -27 8l32 117l17 -5l18 -4q22 -5 43 -5q28 0 40 19q7 12 15 53z" />
    <glyph glyph-name="circumflex" unicode="&#x2c6;" horiz-adv-x="333" 
d="M101 728h134l104 -142h-115l-58 74l-56 -74h-116z" />
    <glyph glyph-name="caron" unicode="&#x2c7;" horiz-adv-x="333" 
d="M99 586l-105 142h116l56 -74l58 74h115l-106 -142h-134z" />
    <glyph glyph-name="uni02C9" unicode="&#x2c9;" horiz-adv-x="333" 
d="M9 705h315v-98h-315v98z" />
    <glyph glyph-name="breve" unicode="&#x2d8;" horiz-adv-x="333" 
d="M326 729q-7 -91 -75 -126q-23 -12 -51 -16q-10 -2 -20 -3h-12q-60 0 -102 31q-53 38 -59 114h76l2 -8l3 -10q4 -12 12 -20q20 -23 65 -23q48 0 70 22q8 8 13 20l3 10l2 9h73z" />
    <glyph glyph-name="dotaccent" unicode="&#x2d9;" horiz-adv-x="333" 
d="M88 733h158v-152h-158v152z" />
    <glyph glyph-name="ring" unicode="&#x2da;" horiz-adv-x="333" 
d="M134 704q-14 -14 -14 -33t14 -33t33 -14t33 14q13 13 13 33t-13 33t-33 13t-33 -13zM242 746q31 -31 31 -75t-31 -76q-32 -31 -76 -31t-75 31q-31 32 -31 76t31 75t75 31t76 -31z" />
    <glyph glyph-name="ogonek" unicode="&#x2db;" horiz-adv-x="333" 
d="M175 13q-2 -8 -3 -14q-2 -8 -3 -16q-4 -21 -4 -40q0 -33 14 -53q17 -24 53 -24q18 0 37 4l16 4l13 4v-71l-10 -3l-10 -4q-13 -4 -23 -7q-29 -7 -59 -7q-51 0 -84 29q-36 30 -36 83q0 31 8 66q2 13 6 27l4 12l3 10h78z" />
    <glyph glyph-name="tilde" unicode="&#x2dc;" horiz-adv-x="333" 
d="M-7 592q-3 63 22 96q24 33 74 33q17 0 86 -24q44 -16 56 -16q22 0 31 15q3 5 5 13l1 6v6h70v-13q0 -10 -1 -18q-3 -24 -10 -42q-21 -53 -82 -53q-15 0 -34 5q-8 1 -15 3q-6 2 -11 4q-74 27 -89 27q-19 0 -27 -17q-3 -6 -4 -14l-1 -6l-1 -5h-70z" />
    <glyph glyph-name="hungarumlaut" unicode="&#x2dd;" horiz-adv-x="333" 
d="M110 729h150l-134 -145h-91zM299 729h150l-134 -145h-91z" />
    <glyph glyph-name="uni03A9" unicode="&#x3a9;" horiz-adv-x="758" 
d="M416 0v137q103 99 103 237q0 84 -37 135q-39 53 -106 53t-108 -52q-43 -53 -43 -142q0 -77 34 -141q24 -47 69 -90v-137h-288v137h155q-68 45 -105 99q-51 75 -51 173q0 132 93 217q94 86 245 86q160 0 248 -89q81 -81 81 -211q0 -171 -160 -275h157v-137h-287z" />
    <glyph glyph-name="uni03BC" unicode="&#x3bc;" horiz-adv-x="635" 
d="M231 518v-269q0 -13 1 -23q3 -29 10 -48q19 -54 76 -54q56 0 76 58q7 21 10 49q1 11 1 23v264h168v-518h-156v52h-2q-4 -10 -10 -18q-8 -12 -18 -21q-28 -25 -65 -25q-36 0 -62 24q-10 9 -18 21q-5 8 -9 17h-2v-247h-168v715h168z" />
    <glyph glyph-name="pi" unicode="&#x3c0;" horiz-adv-x="731" 
d="M690 15q-42 -26 -116 -26q-164 0 -164 176v214h-74v-219q0 -102 -22 -160h-175q24 68 24 175v204q-52 0 -91 -25q-12 27 -23 52q-15 34 -22 52q26 17 69 29q51 13 108 13h477v-121h-99v-189q0 -80 45 -80q11 0 21 4l8 3l7 4z" />
    <glyph glyph-name="endash" unicode="&#x2013;" horiz-adv-x="500" 
d="M-6 313h512v-106h-512v106z" />
    <glyph glyph-name="emdash" unicode="&#x2014;" horiz-adv-x="1000" 
d="M-6 313h1012v-106h-1012v106z" />
    <glyph glyph-name="quoteleft" unicode="&#x2018;" horiz-adv-x="281" 
d="M54 380v131q0 86 32 134q32 50 112 83l36 -72q-48 -20 -68 -45q-19 -24 -21 -64h84v-167h-175z" />
    <glyph glyph-name="quoteright" unicode="&#x2019;" horiz-adv-x="281" 
d="M227 716v-131q0 -86 -31 -134q-33 -50 -113 -83l-36 72q48 20 68 46q19 23 21 63h-84v167h175z" />
    <glyph glyph-name="quotesinglbase" unicode="&#x201a;" horiz-adv-x="281" 
d="M226 168v-132q0 -88 -34 -137q-32 -48 -110 -79l-36 71q48 20 68 46q18 23 21 63h-84v168h175z" />
    <glyph glyph-name="quotedblleft" unicode="&#x201c;" horiz-adv-x="500" 
d="M285 380v132q0 91 35 140q29 41 105 76l37 -71q-48 -20 -68 -45q-19 -24 -22 -64h80v-168h-167zM46 380v132q0 91 35 140q29 41 105 76l37 -71q-48 -20 -68 -45q-19 -24 -22 -64h80v-168h-167z" />
    <glyph glyph-name="quotedblright" unicode="&#x201d;" horiz-adv-x="500" 
d="M215 716v-132q0 -91 -35 -140q-29 -41 -105 -76l-37 71q48 20 68 46q19 23 22 63h-80v168h167zM454 716v-132q0 -91 -35 -140q-29 -41 -105 -76l-37 71q48 20 68 46q19 23 22 63h-80v168h167z" />
    <glyph glyph-name="quotedblbase" unicode="&#x201e;" horiz-adv-x="500" 
d="M214 168v-132q0 -91 -35 -140q-29 -41 -105 -76l-37 71q48 20 68 46q19 23 22 63h-80v168h167zM453 168v-132q0 -91 -35 -140q-29 -41 -105 -76l-37 71q48 20 68 46q19 23 22 63h-80v168h167z" />
    <glyph glyph-name="dagger" unicode="&#x2020;" 
d="M232 396h-179v129h179v186h150v-186h180v-129h-180v-581h-150v581z" />
    <glyph glyph-name="daggerdbl" unicode="&#x2021;" 
d="M233 -22h-180v129h180v310h-180v129h180v165h150v-165h179v-129h-179v-310h179v-129h-179v-163h-150v163z" />
    <glyph glyph-name="bullet" unicode="&#x2022;" horiz-adv-x="427" 
d="M321 461q45 -44 45 -108q0 -63 -45 -108q-44 -45 -108 -45t-108 45q-45 45 -45 108q0 64 45 108q45 45 108 45t108 -45z" />
    <glyph glyph-name="ellipsis" unicode="&#x2026;" horiz-adv-x="1000" 
d="M413 168h175v-168h-175v168zM79 168h175v-168h-175v168zM747 168h175v-168h-175v168z" />
    <glyph glyph-name="perthousand" unicode="&#x2030;" horiz-adv-x="1000" 
d="M99 540q0 -111 45 -111q28 0 38 35q7 24 7 76t-7 76q-10 35 -38 35q-30 0 -39 -38q-4 -15 -5 -36l-1 -19v-18zM0 539q0 64 15 100q37 89 130 89q92 0 126 -83q12 -28 16 -63l2 -26v-34q-1 -13 -2 -25q-4 -35 -16 -62q-35 -83 -126 -83q-92 0 -127 81q-12 28 -16 63
q-1 12 -2 25v18zM431 728h92l-289 -759h-91zM376 155q0 64 15 100q37 89 130 89q92 0 127 -83q12 -28 16 -63l2 -26v-34q-1 -13 -2 -25q-4 -35 -16 -63q-35 -82 -127 -82t-127 81q-12 27 -16 62l-2 26v18zM475 156q0 -111 45 -111q28 0 39 35q7 24 7 76q0 51 -7 75
q-11 36 -39 36q-30 0 -39 -39q-4 -14 -5 -36l-1 -18v-18zM711 155q0 64 14 100q35 89 131 89q92 0 126 -83q12 -28 16 -63l2 -26v-34q-1 -13 -2 -25q-4 -35 -16 -63q-35 -82 -127 -82t-126 81q-12 27 -16 62l-2 26v18zM810 156q0 -54 7 -78q10 -33 38 -33t38 35q7 24 7 76
q0 51 -7 75q-10 36 -38 36q-30 0 -39 -39q-4 -14 -5 -36l-1 -18v-18z" />
    <glyph glyph-name="guilsinglleft" unicode="&#x2039;" horiz-adv-x="333" 
d="M309 483l-131 -223l131 -226h-130l-155 226l155 223h130z" />
    <glyph glyph-name="guilsinglright" unicode="&#x203a;" horiz-adv-x="333" 
d="M24 34l131 223l-131 226h130l155 -226l-155 -223h-130z" />
    <glyph glyph-name="fraction" unicode="&#x2044;" horiz-adv-x="167" 
d="M-181 -26l438 752h91l-437 -752h-92z" />
    <glyph glyph-name="Euro" unicode="&#x20ac;" 
d="M558 550q-66 50 -150 50q-93 0 -145 -95q-7 -14 -13 -29h292l-18 -92h-291v-24q0 -23 1 -34h281l-18 -92h-248q14 -42 42 -73q46 -49 114 -49q86 0 152 42v-138q-33 -15 -80 -22q-37 -6 -74 -6q-155 0 -238 85q-70 71 -90 161h-74l18 92h45q-1 11 -1 33v13l1 12h-63
l18 92h62q34 117 122 183q85 64 203 64q94 0 177 -47z" />
    <glyph glyph-name="uni2113" unicode="&#x2113;" horiz-adv-x="529" 
d="M383 2q-46 -19 -91 -19q-74 0 -116 43q-23 23 -36 66q-11 37 -11 76v35l-26 -24l-26 -23l-20 37l-20 36q46 43 92 83v183q0 108 47 170q47 63 132 63q66 0 102 -43q30 -37 30 -91q0 -120 -126 -253q-19 -19 -33 -35v-111q0 -98 59 -98q20 0 40 11q16 9 30 23
q14 -30 42 -88q-31 -25 -69 -41zM321 613q-40 0 -40 -80v-112l3 3l4 4l7 9q56 66 56 136q0 40 -30 40z" />
    <glyph glyph-name="trademark" unicode="&#x2122;" horiz-adv-x="979" 
d="M195 634h-131v82h358v-82h-129v-317h-98v317zM469 716h150l63 -247h2l65 247h148v-399h-93v300h-2l-78 -300h-82l-78 300h-2v-300h-93v399z" />
    <glyph glyph-name="Omega" unicode="&#x2126;" horiz-adv-x="758" 
d="M416 0v137q103 99 103 237q0 84 -37 135q-39 53 -106 53t-108 -52q-43 -53 -43 -142q0 -77 34 -141q24 -47 69 -90v-137h-288v137h155q-68 45 -105 99q-51 75 -51 173q0 132 93 217q94 86 245 86q160 0 248 -89q81 -81 81 -211q0 -171 -160 -275h157v-137h-287z" />
    <glyph glyph-name="estimated" unicode="&#x212e;" horiz-adv-x="689" 
d="M166 298v-206q68 -66 163 -66q137 0 220 135l18 -11l19 -11q-50 -75 -104 -110q-64 -41 -153 -41q-130 0 -211 91q-79 87 -79 219q0 133 78 220q81 90 213 90q133 0 215 -91q76 -86 80 -219h-459zM494 503q-70 67 -164 67q-98 0 -164 -66v-168h328v167z" />
    <glyph glyph-name="partialdiff" unicode="&#x2202;" horiz-adv-x="624" 
d="M569 263q-37 -128 -112 -200q-79 -75 -188 -75q-101 0 -165 61q-63 59 -63 151q0 140 83 220q72 69 172 69q89 0 127 -56h2q3 23 3 42q0 62 -31 98q-32 37 -90 37q-53 0 -101 -29l-16 55l-17 54q62 44 164 44q122 0 190 -79q66 -76 66 -207q0 -98 -24 -185zM334 376
q-49 0 -86 -55q-36 -55 -36 -129q0 -77 63 -77q50 0 87 66q32 57 44 139q-20 56 -72 56z" />
    <glyph glyph-name="Delta" unicode="&#x2206;" horiz-adv-x="711" 
d="M21 0v69q146 420 219 631h237l107 -316l107 -315v-69h-670zM486 138l-117 366q-6 18 -11 41q-1 7 -3 15l-1 6l-1 5h-5l-1 -4l-1 -6q-2 -8 -3 -14q-5 -21 -10 -40l-59 -184l-59 -185h271z" />
    <glyph glyph-name="product" unicode="&#x220f;" horiz-adv-x="780" 
d="M535 -230v781h-290v-781h-175v930h640v-930h-175z" />
    <glyph glyph-name="summation" unicode="&#x2211;" horiz-adv-x="682" 
d="M21 -230v95l141 187l141 188l-133 180l-134 179v101h569v-137h-351l117 -160l116 -159l-123 -168l-124 -169h383v-137h-602z" />
    <glyph glyph-name="minus" unicode="&#x2212;" horiz-adv-x="625" 
d="M54 427h517v-143h-517v143z" />
    <glyph glyph-name="uni2215" unicode="&#x2215;" horiz-adv-x="167" 
d="M-181 -26l438 752h91l-437 -752h-92z" />
    <glyph glyph-name="uni2219" unicode="&#x2219;" horiz-adv-x="302" 
d="M64 440h175v-168h-175v168z" />
    <glyph glyph-name="radical" unicode="&#x221a;" horiz-adv-x="578" 
d="M579 729l-201 -741h-124q-64 150 -124 287l-29 -19l-30 -19l-23 39l-24 39l88 57l87 58l59 -141l58 -141q51 193 155 581h108z" />
    <glyph glyph-name="infinity" unicode="&#x221e;" horiz-adv-x="855" 
d="M750 154q-54 -54 -137 -54q-120 0 -189 103h-2q-77 -103 -190 -103q-82 0 -136 49q-59 53 -59 142q0 88 60 141q55 49 134 49q117 0 190 -103h2q28 42 72 69q54 34 116 34q85 0 140 -53t55 -134q0 -86 -56 -140zM662 347q-23 24 -63 24q-62 0 -115 -80q50 -81 117 -81
q37 0 60 25q21 23 21 57t-20 55zM242 371q-36 0 -58 -23q-23 -23 -23 -57t23 -57q24 -24 61 -24q62 0 114 81q-55 80 -117 80z" />
    <glyph glyph-name="integral" unicode="&#x222b;" horiz-adv-x="525" 
d="M425 621q-14 3 -27 3q-62 0 -62 -77v-562q0 -105 -49 -162q-53 -62 -156 -62q-69 0 -105 18l15 59l15 59q20 -9 45 -9q63 0 63 77v559q0 227 204 227q72 0 110 -20q-12 -39 -34 -117q-9 4 -19 7z" />
    <glyph glyph-name="approxequal" unicode="&#x2248;" horiz-adv-x="625" 
d="M518 349q-40 -25 -94 -25q-64 0 -119 30q-52 33 -96 33q-30 0 -54 -27q-8 -10 -17 -23l-6 -11q-4 -6 -5 -8l-94 111q36 49 69 72q43 29 99 29q61 0 119 -30q58 -33 98 -33q28 0 52 25q8 9 17 23l7 11l6 10l93 -110q-38 -54 -75 -77zM518 98q-40 -24 -94 -24
q-66 0 -119 29q-52 33 -96 33q-30 0 -54 -27q-8 -10 -17 -23l-6 -11q-4 -6 -5 -8l-94 110q36 50 69 73q43 29 99 29q61 0 119 -30q56 -32 98 -32q28 0 52 25q8 8 17 22l7 11l6 10l93 -110q-38 -54 -75 -77z" />
    <glyph glyph-name="notequal" unicode="&#x2260;" horiz-adv-x="625" 
d="M311 171l-51 -111h-159l51 111h-98v143h167l38 84h-205v143h272l53 113h159l-52 -113h85v-143h-153l-38 -84h191v-143h-260z" />
    <glyph glyph-name="lessequal" unicode="&#x2264;" horiz-adv-x="625" 
d="M77 0v143h472v-143h-472zM77 320v144l472 167v-147l-300 -93v-2l300 -92v-145z" />
    <glyph glyph-name="greaterequal" unicode="&#x2265;" horiz-adv-x="625" 
d="M77 0v143h471v-143h-471zM77 153v147l299 92v2l-299 93v144l472 -167v-144z" />
    <glyph glyph-name="lozenge" unicode="&#x25ca;" horiz-adv-x="591" 
d="M441 175l-108 -175h-76q-100 161 -215 349l107 176l108 175h76l108 -175l108 -175zM362 461l-67 110l-66 -110l-67 -111l67 -110l66 -111l67 111l67 110z" />
    </font>
</defs>
</svg>
